<?xml version="1.0" encoding="UTF-8"?>
<svg version="1.1" xmlns="http://www.w3.org/2000/svg" width="1349" height="608">
<path d="M0 0 C445.17 0 890.34 0 1349 0 C1349 200.64 1349 401.28 1349 608 C903.83 608 458.66 608 0 608 C0 407.36 0 206.72 0 0 Z " fill="#F6F7F8" transform="translate(0,0)"/>
<path d="M0 0 C443.19 0 886.38 0 1343 0 C1343 29.04 1343 58.08 1343 88 C899.81 88 456.62 88 0 88 C0 58.96 0 29.92 0 0 Z " fill="#FEFEFE" transform="translate(0,0)"/>
<path d="M0 0 C0.79811085 -0.00676312 1.5962217 -0.01352625 2.41851773 -0.02049431 C5.1092758 -0.03713987 7.79860074 -0.01798519 10.48932791 0.00082541 C12.43954179 -0.00378113 14.38975151 -0.01058026 16.33995098 -0.01938069 C21.73165628 -0.03728414 27.12290763 -0.02381111 32.51459496 -0.00549056 C38.36791204 0.00893673 44.2211671 -0.00551697 50.07448196 -0.01637554 C60.34393674 -0.03139287 70.61326602 -0.02787882 80.88271666 -0.01195765 C91.90408317 0.0050401 102.92537578 0.01118786 113.94675398 0.00402594 C114.64233754 0.00358103 115.33792109 0.00313613 116.05458294 0.00267775 C119.60125236 0.00036216 123.14792164 -0.00212451 126.69459091 -0.00466654 C152.38074865 -0.0226834 178.0668537 -0.01603953 203.75300741 0.00409842 C229.1980103 0.02401512 254.64298781 0.03491931 280.08799887 0.0332427 C281.68471842 0.03314938 283.28143797 0.03305678 284.87815752 0.0329649 C291.29439162 0.03257969 297.71062573 0.03212819 304.12685982 0.03159351 C322.06391591 0.03012111 340.00097178 0.03032822 357.93802786 0.03178549 C358.75490149 0.03185119 359.57177512 0.03191688 360.4134025 0.03198457 C386.45027609 0.03419183 412.48714171 0.04366464 438.52401114 0.05835104 C439.79110424 0.05906523 439.79110424 0.05906523 441.08379518 0.05979385 C454.8024398 0.06755665 468.52108415 0.07576654 482.23972849 0.08400145 C536.6525952 0.11663606 591.06542729 0.12969881 645.47830343 0.12346792 C647.19814671 0.12327398 648.91798999 0.12308048 650.63783327 0.12288744 C653.21511119 0.12259808 655.7923891 0.12230868 658.36966701 0.12201832 C667.78419793 0.12095945 677.19872886 0.11994643 686.61325979 0.11898947 C687.4574872 0.11890208 688.30171461 0.11881469 689.17152466 0.11872465 C734.72599965 0.1140591 780.28047039 0.12382546 825.83494282 0.13882732 C827.44050308 0.13935308 829.04606334 0.13987848 830.6516236 0.14040351 C831.84215053 0.14079324 831.84215053 0.14079324 833.05672852 0.14119085 C834.65799037 0.14171491 836.25925222 0.14223853 837.86051407 0.14276172 C841.84980218 0.14406643 845.83909028 0.14538403 849.82837837 0.14672691 C867.32732907 0.15257451 884.8262774 0.15658029 902.32522917 0.15560484 C903.50895469 0.15554032 903.50895469 0.15554032 904.71659386 0.15547451 C908.69012112 0.15524898 912.66364838 0.15499491 916.63717563 0.15473291 C945.33093972 0.15287128 974.02467255 0.16088952 1002.71842635 0.18637437 C1005.54245651 0.18884199 1008.36648671 0.19126535 1011.19051695 0.19365454 C1011.88360203 0.19424581 1012.5766871 0.19483708 1013.29077476 0.19544627 C1024.28453816 0.20456238 1035.27827694 0.20364313 1046.272042 0.19861387 C1057.07078436 0.1938911 1067.86947439 0.20010376 1078.66820425 0.21732821 C1084.44955594 0.22624903 1090.23080418 0.23033547 1096.01215822 0.22140104 C1101.2638766 0.21338849 1106.51539134 0.21899647 1111.76708729 0.23581792 C1113.66254474 0.23944751 1115.55802 0.23797519 1117.45346802 0.23097877 C1120.01498525 0.22224701 1122.57579411 0.23179634 1125.13727093 0.24609566 C1125.87634386 0.2391597 1126.61541679 0.23222375 1127.37688587 0.22507761 C1131.76994227 0.27388824 1134.57483096 0.9174371 1138.06863546 3.62444448 C1139.76534954 7.01787264 1139.25353702 10.8786696 1139.27176046 14.61272573 C1139.27746054 15.50807531 1139.28316061 16.40342489 1139.28903341 17.32590628 C1139.29848937 19.22317715 1139.30501975 21.1204645 1139.30886984 23.01775503 C1139.31856185 25.91493979 1139.34957378 28.8114111 1139.38113546 31.70842886 C1139.38766689 33.5515236 1139.39291681 35.39462343 1139.39676046 37.23772573 C1139.41528067 38.53484236 1139.41528067 38.53484236 1139.43417501 39.85816336 C1139.4168229 44.56474901 1139.24031838 47.86515482 1136.06863546 51.62444448 C1132.45030283 52.83055536 1129.15052967 52.76299753 1125.38451725 52.75209498 C1124.58883834 52.75374576 1123.79315943 52.75539654 1122.97336904 52.75709734 C1120.2793103 52.76144697 1117.58530557 52.75861334 1114.89124537 52.75587225 C1112.94306564 52.75752072 1110.99488625 52.75960645 1109.04670742 52.76209235 C1103.65146934 52.76768382 1098.25624705 52.76698208 1092.86100699 52.76531476 C1087.00720554 52.76458642 1081.15340865 52.76960009 1075.29960912 52.77388978 C1065.02624118 52.78060154 1054.75287698 52.78356812 1044.47950697 52.78402472 C1033.45248266 52.78452662 1022.42546203 52.78716862 1011.39843893 52.79243231 C1010.70281228 52.79276244 1010.00718562 52.79309258 1009.29047938 52.79343271 C1006.45745216 52.79478266 1003.62442496 52.79614533 1000.79139776 52.79752482 C967.22750133 52.81383917 933.66360561 52.8202147 900.09970589 52.82497269 C883.39315265 52.82735443 866.68659982 52.83105759 849.9800469 52.83500979 C796.4150203 52.84767455 742.84999372 52.85845901 689.28496566 52.86185024 C686.72415872 52.86201248 684.16335177 52.86217804 681.60254483 52.86234463 C676.46664815 52.86267843 671.33075147 52.86300891 666.1948548 52.86333919 C660.18173117 52.86372609 654.16860755 52.8641157 648.15548393 52.86451025 C646.43446735 52.86462267 644.71345077 52.86473409 642.99243419 52.8648445 C587.69907944 52.86839525 532.40573767 52.88347889 477.11238788 52.90678225 C437.38765721 52.92351744 397.66292899 52.93899616 357.93819475 52.94351721 C357.12172995 52.94361069 356.30526516 52.94370418 355.464059 52.9438005 C337.54312906 52.94581927 319.62219917 52.94697554 301.70126912 52.94732908 C295.28929693 52.94746526 288.87732475 52.94767426 282.46535256 52.94792234 C280.87014502 52.9479839 279.27493748 52.94804222 277.67972994 52.94809729 C252.2331324 52.9490181 226.7865484 52.95899824 201.33995531 52.97355477 C175.71973779 52.98815204 150.09953689 52.99322421 124.47931594 52.98513523 C120.942955 52.98401977 117.40659404 52.98300913 113.87023306 52.98206091 C112.83034929 52.98177596 112.83034929 52.98177596 111.76945776 52.98148525 C100.77013923 52.97874624 89.77085133 52.9861107 78.77153947 52.99763428 C67.96897241 53.00874326 57.16645086 53.00898623 46.3638832 52.99826409 C40.57974594 52.9928348 34.79571578 52.99228047 29.01158709 53.00477281 C23.75849936 53.01602433 18.50560694 53.01368477 13.25252632 53.00010574 C11.35544095 52.99765296 9.45834097 53.00032094 7.56127166 53.00850222 C4.99997302 53.01882928 2.43937512 53.01091051 -0.12189716 52.99819064 C-0.86371524 53.00559914 -1.60553332 53.01300763 -2.36983073 53.02064063 C-5.46475469 52.98806583 -7.62217576 52.79472568 -10.35695625 51.28858535 C-12.85612099 48.64698202 -13.06097349 46.07549189 -13.12423563 42.59954214 C-13.14029856 41.79505636 -13.15636148 40.99057058 -13.17291117 40.16170645 C-13.21751196 36.49304611 -13.25840715 32.82456254 -13.28146219 29.15569448 C-13.29803412 27.22165291 -13.32534047 25.28767289 -13.36349344 23.35393667 C-13.41828549 20.56097137 -13.44013696 17.76943745 -13.45480204 14.97600698 C-13.47747141 14.11439962 -13.50014078 13.25279226 -13.5234971 12.36507559 C-13.52064707 11.55428549 -13.51779703 10.74349539 -13.51486063 9.90813589 C-13.52294748 9.19992697 -13.53103434 8.49171804 -13.53936625 7.76204824 C-11.61051296 0.98061329 -6.22500518 -0.10267281 0 0 Z " fill="#FB923C" transform="translate(108.9313645362854,331.3755555152893)"/>
<path d="M0 0 C1.96449254 -0.0195581 1.96449254 -0.0195581 3.9686718 -0.03951132 C5.4204327 -0.02870122 6.87219014 -0.01741794 8.32394409 -0.00571251 C9.8673806 -0.01147309 11.41081026 -0.01941379 12.95422554 -0.02934873 C17.19765056 -0.05025432 21.44051459 -0.03989027 25.68394184 -0.02441764 C30.25935513 -0.01312315 34.83467071 -0.03055737 39.4100647 -0.04431725 C48.37409753 -0.06657455 57.33792128 -0.06173738 66.30196238 -0.04725404 C73.58585739 -0.03597159 80.86969373 -0.03442659 88.15359497 -0.03987312 C89.18945901 -0.04063929 90.22532305 -0.04140545 91.29257691 -0.04219484 C93.3967786 -0.04379343 95.50098028 -0.04541449 97.60518193 -0.04705779 C117.34590955 -0.0613226 137.08652115 -0.04491109 156.82722974 -0.01805596 C173.7732955 0.00428347 190.71919002 0.00040355 207.66525269 -0.02264977 C227.33433541 -0.04939484 247.00331641 -0.05994923 266.67241478 -0.04458845 C268.76896539 -0.04299567 270.86551601 -0.04142381 272.96206665 -0.03987312 C273.99366539 -0.03910175 275.02526413 -0.03833037 276.08812344 -0.03753562 C283.36501765 -0.03321474 290.64184745 -0.04051352 297.91873169 -0.05227089 C306.78436735 -0.06628007 315.6497816 -0.06252929 324.51539183 -0.03586717 C329.04061541 -0.02270764 333.56546959 -0.01761281 338.09069061 -0.03411293 C342.23102482 -0.04898156 346.37064624 -0.04087602 350.51091552 -0.01422517 C352.01083792 -0.00862699 353.51082019 -0.0115106 355.01070428 -0.02360411 C357.04564886 -0.03875672 359.08076148 -0.02025907 361.11566162 0 C362.24717588 0.00081176 363.37869015 0.00162352 364.54449272 0.00245988 C367.55783081 0.6292057 367.55783081 0.6292057 372.55783081 5.6292057 C372.55783081 23.4492057 372.55783081 41.2692057 372.55783081 59.6292057 C245.83783081 59.6292057 119.11783081 59.6292057 -11.44216919 59.6292057 C-11.44216919 0.00820875 -11.44216919 0.00820875 0 0 Z " fill="#FEFEFE" transform="translate(907.4421691894531,547.3707942962646)"/>
<path d="M0 0 C1.96449254 -0.0195581 1.96449254 -0.0195581 3.9686718 -0.03951132 C5.4204327 -0.02870122 6.87219014 -0.01741794 8.32394409 -0.00571251 C9.8673806 -0.01147309 11.41081026 -0.01941379 12.95422554 -0.02934873 C17.19765056 -0.05025432 21.44051459 -0.03989027 25.68394184 -0.02441764 C30.25935513 -0.01312315 34.83467071 -0.03055737 39.4100647 -0.04431725 C48.37409753 -0.06657455 57.33792128 -0.06173738 66.30196238 -0.04725404 C73.58585739 -0.03597159 80.86969373 -0.03442659 88.15359497 -0.03987312 C89.18945901 -0.04063929 90.22532305 -0.04140545 91.29257691 -0.04219484 C93.3967786 -0.04379343 95.50098028 -0.04541449 97.60518193 -0.04705779 C117.34590955 -0.0613226 137.08652115 -0.04491109 156.82722974 -0.01805596 C173.7732955 0.00428347 190.71919002 0.00040355 207.66525269 -0.02264977 C227.33433541 -0.04939484 247.00331641 -0.05994923 266.67241478 -0.04458845 C268.76896539 -0.04299567 270.86551601 -0.04142381 272.96206665 -0.03987312 C273.99366539 -0.03910175 275.02526413 -0.03833037 276.08812344 -0.03753562 C283.36501765 -0.03321474 290.64184745 -0.04051352 297.91873169 -0.05227089 C306.78436735 -0.06628007 315.6497816 -0.06252929 324.51539183 -0.03586717 C329.04061541 -0.02270764 333.56546959 -0.01761281 338.09069061 -0.03411293 C342.23102482 -0.04898156 346.37064624 -0.04087602 350.51091552 -0.01422517 C352.01083792 -0.00862699 353.51082019 -0.0115106 355.01070428 -0.02360411 C357.04564886 -0.03875672 359.08076148 -0.02025907 361.11566162 0 C362.24717588 0.00081176 363.37869015 0.00162352 364.54449272 0.00245988 C367.55783081 0.6292057 367.55783081 0.6292057 372.55783081 5.6292057 C372.55783081 23.4492057 372.55783081 41.2692057 372.55783081 59.6292057 C245.83783081 59.6292057 119.11783081 59.6292057 -11.44216919 59.6292057 C-11.44216919 0.00820875 -11.44216919 0.00820875 0 0 Z " fill="#FEFEFE" transform="translate(491.4421691894531,547.3707942962646)"/>
<path d="M0 0 C1.96449254 -0.0195581 1.96449254 -0.0195581 3.9686718 -0.03951132 C5.4204327 -0.02870122 6.87219014 -0.01741794 8.32394409 -0.00571251 C9.8673806 -0.01147309 11.41081026 -0.01941379 12.95422554 -0.02934873 C17.19765056 -0.05025432 21.44051459 -0.03989027 25.68394184 -0.02441764 C30.25935513 -0.01312315 34.83467071 -0.03055737 39.4100647 -0.04431725 C48.37409753 -0.06657455 57.33792128 -0.06173738 66.30196238 -0.04725404 C73.58585739 -0.03597159 80.86969373 -0.03442659 88.15359497 -0.03987312 C89.18945901 -0.04063929 90.22532305 -0.04140545 91.29257691 -0.04219484 C93.3967786 -0.04379343 95.50098028 -0.04541449 97.60518193 -0.04705779 C117.34590955 -0.0613226 137.08652115 -0.04491109 156.82722974 -0.01805596 C173.7732955 0.00428347 190.71919002 0.00040355 207.66525269 -0.02264977 C227.33433541 -0.04939484 247.00331641 -0.05994923 266.67241478 -0.04458845 C268.76896539 -0.04299567 270.86551601 -0.04142381 272.96206665 -0.03987312 C273.99366539 -0.03910175 275.02526413 -0.03833037 276.08812344 -0.03753562 C283.36501765 -0.03321474 290.64184745 -0.04051352 297.91873169 -0.05227089 C306.78436735 -0.06628007 315.6497816 -0.06252929 324.51539183 -0.03586717 C329.04061541 -0.02270764 333.56546959 -0.01761281 338.09069061 -0.03411293 C342.23102482 -0.04898156 346.37064624 -0.04087602 350.51091552 -0.01422517 C352.01083792 -0.00862699 353.51082019 -0.0115106 355.01070428 -0.02360411 C357.04564886 -0.03875672 359.08076148 -0.02025907 361.11566162 0 C362.24717588 0.00081176 363.37869015 0.00162352 364.54449272 0.00245988 C367.55783081 0.6292057 367.55783081 0.6292057 372.55783081 5.6292057 C372.55783081 23.4492057 372.55783081 41.2692057 372.55783081 59.6292057 C245.83783081 59.6292057 119.11783081 59.6292057 -11.44216919 59.6292057 C-11.44216919 0.00820875 -11.44216919 0.00820875 0 0 Z " fill="#FEFEFE" transform="translate(75.44216918945313,547.3707942962646)"/>
<path d="M0 0 C0.79742615 -0.00671722 1.59485229 -0.01343445 2.41644287 -0.02035522 C5.04551473 -0.03931021 7.67433091 -0.04325828 10.3034668 -0.04541016 C12.13803715 -0.0518403 13.97260647 -0.05856882 15.80717468 -0.06558228 C19.65125912 -0.07754913 23.49525373 -0.08126376 27.33935547 -0.08007812 C32.25201811 -0.07987508 37.16410132 -0.10716483 42.07662678 -0.14162254 C45.86602902 -0.16392113 49.65529253 -0.16791474 53.44475365 -0.16685867 C55.25515932 -0.16921065 57.06556906 -0.17801136 58.87590981 -0.19352341 C61.41507496 -0.21324177 63.95300001 -0.20732286 66.4921875 -0.1953125 C67.23168137 -0.20655151 67.97117523 -0.21779053 68.733078 -0.22937012 C74.18926288 -0.16418169 78.36489044 1.29797559 82.94018555 4.29052734 C86.66653851 8.21300415 89.21639266 12.04764285 89.31518555 17.54052734 C89.17660136 22.49695016 87.92166103 26.31233768 84.94018555 30.29052734 C79.38793266 35.37588624 74.53467782 36.44099859 67.10742188 36.4675293 C66.31028778 36.47410049 65.51315369 36.48067169 64.69186401 36.48744202 C62.05198063 36.5071624 59.41215416 36.51883614 56.7722168 36.52880859 C55.41776742 36.53492188 55.41776742 36.53492188 54.03595543 36.54115868 C49.25460413 36.56201622 44.47328148 36.57631808 39.69189453 36.58569336 C34.76351486 36.59674399 29.8355884 36.6311292 24.90736866 36.67086506 C21.10940232 36.69706726 17.31154326 36.7053885 13.51349449 36.70897484 C11.69749587 36.71383319 9.88150181 36.7254257 8.06559181 36.74401283 C5.516675 36.76847654 2.96892122 36.76742615 0.41992188 36.76049805 C-0.32271408 36.77330811 -1.06535004 36.78611816 -1.83049011 36.79931641 C-8.01423702 36.73841346 -13.43564278 34.88127008 -17.8996582 30.47412109 C-18.44299805 29.60980469 -18.44299805 29.60980469 -18.99731445 28.72802734 C-19.37758789 28.14923828 -19.75786133 27.57044922 -20.1496582 26.97412109 C-22.35611237 22.89265438 -22.64073795 18.81688956 -22.05981445 14.29052734 C-19.99714553 8.09131042 -16.80312634 4.17120233 -10.90339661 1.2071228 C-7.25024961 0.02957358 -3.79699633 -0.00461594 0 0 Z " fill="#FEF4E9" transform="translate(118.059814453125,263.70947265625)"/>
<path d="M0 0 C1.32 0 2.64 0 4 0 C4 80.85 4 161.7 4 245 C2.68 245 1.36 245 0 245 C0 164.15 0 83.3 0 0 Z " fill="#C1C1C1" transform="translate(1345,17)"/>
<path d="M0 0 C4.1633657 2.48274101 7.2097709 5.45365075 9 10 C9.76632731 15.26749194 9.94160686 20.37204813 6.9375 24.9375 C3.6528325 28.77576314 0.00336251 31.43541441 -5.015625 32.37890625 C-10.18834369 32.68492587 -13.12307698 31.27384611 -17 28 C-20.1944824 24.77012167 -22.90852127 21.47506281 -24 17 C-23.73029432 12.05539582 -22.68758226 8.18068351 -20 4 C-17.8125 3.125 -17.8125 3.125 -16 3 C-16 2.34 -16 1.68 -16 1 C-10.59356634 -1.41866769 -5.65789135 -1.54631154 0 0 Z " fill="#303033" transform="translate(91,29)"/>
<path d="M0 0 C1.65 0 3.3 0 5 0 C6.32 4.62 7.64 9.24 9 14 C9.99 9.38 10.98 4.76 12 0 C13.98 0 15.96 0 18 0 C18.99 3.96 19.98 7.92 21 12 C21.99 8.04 22.98 4.08 24 0 C25.98 0 27.96 0 30 0 C28.36695592 7.49347179 26.57281882 14.77160428 24 22 C22.02 22 20.04 22 18 22 C17.01 18.37 16.02 14.74 15 11 C14.525625 12.629375 14.05125 14.25875 13.5625 15.9375 C12.125 20.875 12.125 20.875 11 22 C9.00041636 22.04080783 6.99954746 22.04254356 5 22 C4.16285091 18.70929159 3.33093104 15.41728353 2.5 12.125 C2.14228516 10.71927734 2.14228516 10.71927734 1.77734375 9.28515625 C1.55175781 8.38925781 1.32617188 7.49335938 1.09375 6.5703125 C0.88427734 5.74289551 0.67480469 4.91547852 0.45898438 4.06298828 C0 2 0 2 0 0 Z " fill="#252837" transform="translate(674,487)"/>
<path d="M0 0 C3.43462183 -0.42056594 5.99485082 -0.63981991 8.98828125 1.265625 C13.59950361 5.19900722 13.59950361 5.19900722 15 8 C15.07065617 10.04055005 15.08421976 12.08334257 15.0625 14.125 C15.05347656 15.22070312 15.04445313 16.31640625 15.03515625 17.4453125 C15.02355469 18.28835937 15.01195313 19.13140625 15 20 C14.67 20 14.34 20 14 20 C14 18.35 14 16.7 14 15 C13.34 15 12.68 15 12 15 C11.979375 15.86625 11.95875 16.7325 11.9375 17.625 C10.80296567 21.7093236 9.31745805 23.29540243 6.03515625 25.86328125 C2.44475121 27.86867063 0.06039203 27.58941175 -4 27 C-7 25.5 -7 25.5 -9 24 C-8.34 23.67 -7.68 23.34 -7 23 C-6.34 23.33 -5.68 23.66 -5 24 C-1.0333125 24.39820029 2.69130487 24.50334428 6.4375 23.0625 C8.92547145 19.77837769 9.36122699 16.0091411 10 12 C9.01 12 8.02 12 7 12 C7.12375 13.36125 7.12375 13.36125 7.25 14.75 C7 18 7 18 5.5625 20.3125 C1.88921892 22.73148998 -1.67816914 22.81530637 -6 23 C-8.26089293 18.94847986 -8.75145356 15.57447357 -8 11 C-5.83666939 7.75500409 -4.55587463 7.12827876 -0.75 6.25 C0.1575 6.1675 1.065 6.085 2 6 C2.33 4.68 2.66 3.36 3 2 C2.01 1.67 1.02 1.34 0 1 C0 0.67 0 0.34 0 0 Z " fill="#323D44" transform="translate(84,29)"/>
<path d="M0 0 C0 0.66 0 1.32 0 2 C0.66 2 1.32 2 2 2 C2 1.34 2 0.68 2 0 C3.32 0 4.64 0 6 0 C6.11613204 3.10385211 6.18722029 6.20714662 6.25 9.3125 C6.28351562 10.19357422 6.31703125 11.07464844 6.3515625 11.98242188 C6.44995715 18.45187038 6.44995715 18.45187038 4.28125 21.09375 C1.74182541 22.10256251 -0.02727515 22.30762021 -2.75 22.1875 C-3.94882812 22.14689453 -3.94882812 22.14689453 -5.171875 22.10546875 C-5.77515625 22.07066406 -6.3784375 22.03585938 -7 22 C-7.66 20.68 -8.32 19.36 -9 18 C-6.03 18 -3.06 18 0 18 C0 17.01 0 16.02 0 15 C-1.98 15.33 -3.96 15.66 -6 16 C-8.8188382 13.09307311 -9.93686067 11.51413456 -10.4375 7.4375 C-9.52266202 0.24948733 -6.97049161 -0.52607484 0 0 Z " fill="#242433" transform="translate(793,181)"/>
<path d="M0 0 C5.33333333 0 10.66666667 0 16 0 C17.546875 -0.061875 17.546875 -0.061875 19.125 -0.125 C22 0 22 0 24 2 C24.1953125 5.2578125 24.1953125 5.2578125 24.125 9.125 C24.10695313 10.40632812 24.08890625 11.68765625 24.0703125 13.0078125 C24.04710937 13.99523437 24.02390625 14.98265625 24 16 C22.35 16 20.7 16 19 16 C19 12.04 19 8.08 19 4 C17.68 4 16.36 4 15 4 C15 7.96 15 11.92 15 16 C13.35 16 11.7 16 10 16 C10 12.04 10 8.08 10 4 C8.35 4 6.7 4 5 4 C5 7.96 5 11.92 5 16 C3.35 16 1.7 16 0 16 C0 10.72 0 5.44 0 0 Z " fill="#232F43" transform="translate(738,181)"/>
<path d="M0 0 C2.31 0 4.62 0 7 0 C8.17461555 3.10121711 9.33830456 6.20642241 10.5 9.3125 C10.83386719 10.19357422 11.16773438 11.07464844 11.51171875 11.98242188 C11.82753906 12.82998047 12.14335938 13.67753906 12.46875 14.55078125 C12.90864258 15.72120972 12.90864258 15.72120972 13.35742188 16.9152832 C14 19 14 19 14 22 C12.02 22 10.04 22 8 22 C7.67 20.68 7.34 19.36 7 18 C4.69 18 2.38 18 0 18 C-0.33 19.32 -0.66 20.64 -1 22 C-2.98 22 -4.96 22 -7 22 C-4.69 14.74 -2.38 7.48 0 0 Z " fill="#1A2236" transform="translate(532,175)"/>
<path d="M0 0 C1.65 0 3.3 0 5 0 C5 2.97 5 5.94 5 9 C7.97 9 10.94 9 14 9 C14 6.03 14 3.06 14 0 C15.65 0 17.3 0 19 0 C19 7.26 19 14.52 19 22 C17.35 22 15.7 22 14 22 C14 19.03 14 16.06 14 13 C11.03 13 8.06 13 5 13 C5 15.97 5 18.94 5 22 C3.35 22 1.7 22 0 22 C0 14.74 0 7.48 0 0 Z " fill="#251A31" transform="translate(575,487)"/>
<path d="M0 0 C1.65 0 3.3 0 5 0 C5.66 2.97 6.32 5.94 7 9 C7.66 6.03 8.32 3.06 9 0 C10.98 0 12.96 0 15 0 C15.66 2.64 16.32 5.28 17 8 C17.66 5.36 18.32 2.72 19 0 C20.65 0 22.3 0 24 0 C23.39891424 5.65020618 21.92471317 10.66164461 20 16 C18.02 16 16.04 16 14 16 C13.34 13.36 12.68 10.72 12 8 C11.01 10.64 10.02 13.28 9 16 C7.35 16 5.7 16 4 16 C3.32586789 14.08594633 2.6609668 12.16863974 2 10.25 C1.62875 9.18265625 1.2575 8.1153125 0.875 7.015625 C0 4 0 4 0 0 Z " fill="#282937" transform="translate(615,493)"/>
<path d="M0 0 C10.22989254 -0.60892218 10.22989254 -0.60892218 13.6875 2.125 C15.52526703 6.15058493 15.64759988 9.05720036 14.25 13.25 C12.69497846 15.42703015 11.47170417 15.99913387 9 17 C5.97207178 17.25065631 3.04558972 17.08957617 0 17 C0 11.39 0 5.78 0 0 Z " fill="#F97C2D" transform="translate(153,35)"/>
<path d="M0 0 C2.16796875 0.40625 2.16796875 0.40625 4.79296875 2.40625 C6.61694271 6.38582955 6.54533597 9.27414833 5.16796875 13.40625 C2.82595719 16.28872576 1.36813712 16.38122895 -2.33203125 16.84375 C-5.83203125 16.40625 -5.83203125 16.40625 -8.26953125 14.96875 C-10.51398383 11.28784776 -10.69310086 7.61850944 -9.83203125 3.40625 C-7.15719476 -0.33016222 -4.31050113 -0.1687635 0 0 Z " fill="#1C2537" transform="translate(714.83203125,492.59375)"/>
<path d="M0 0 C2.5 1.5625 2.5 1.5625 4 4 C4.59172793 8.06812955 4.37276489 10.27000208 2.5 13.9375 C-0.52927279 16.43665005 -2.24727566 16.7459903 -6.09375 16.48046875 C-8 16 -8 16 -10.5 13.9375 C-12.37276489 10.27000208 -12.59172793 8.06812955 -12 4 C-9.10500071 -0.70437385 -5.08928147 -1.01159898 0 0 Z " fill="#212130" transform="translate(609,493)"/>
<path d="M0 0 C2.91507818 0.51969632 4.13203607 0.90029959 5.90625 3.33984375 C6.69226937 7.66295031 6.65397267 11.11357857 4.34375 14.90234375 C0.90707919 16.92909833 -1.16792186 16.95971135 -5.09375 16.33984375 C-8.48052089 13.88983928 -9.88073584 12.47591929 -10.65625 8.33984375 C-9.43554941 1.82944061 -6.38028403 -0.48804411 0 0 Z " fill="#23232E" transform="translate(682.09375,180.66015625)"/>
<path d="M0 0 C1.65 0 3.3 0 5 0 C5.33 3.3 5.66 6.6 6 10 C6.99 8.68 7.98 7.36 9 6 C11.6875 5.75 11.6875 5.75 14 6 C13.690625 6.5775 13.38125 7.155 13.0625 7.75 C12.03168951 9.93289279 11.3506029 11.61590029 11 14 C11.73137483 16.18517487 11.73137483 16.18517487 12.9375 18.25 C13.50791016 19.30960937 13.50791016 19.30960937 14.08984375 20.390625 C14.39019531 20.92171875 14.69054687 21.4528125 15 22 C12.75 22.3125 12.75 22.3125 10 22 C7.6875 19.5 7.6875 19.5 6 17 C5.67 18.65 5.34 20.3 5 22 C3.35 22 1.7 22 0 22 C0 14.74 0 7.48 0 0 Z " fill="#18273B" transform="translate(737,487)"/>
<path d="M0 0 C0.99 0.66 1.98 1.32 3 2 C3.29296875 5.2578125 3.29296875 5.2578125 3.1875 9.125 C3.16042969 10.40632812 3.13335938 11.68765625 3.10546875 13.0078125 C3.07066406 13.99523437 3.03585937 14.98265625 3 16 C2.24976563 15.82210937 1.49953125 15.64421875 0.7265625 15.4609375 C-2.15032957 14.81950016 -2.15032957 14.81950016 -5.625 15.625 C-9 16 -9 16 -11 14.875 C-12 13 -12 13 -11.9375 10.4375 C-11 8 -11 8 -9.25 6.6875 C-6.72491331 5.91594573 -4.62610707 5.85410516 -2 6 C-2 5.01 -2 4.02 -2 3 C-6.455 3.495 -6.455 3.495 -11 4 C-10.67 3.01 -10.34 2.02 -10 1 C-6.87293041 -0.5635348 -3.42017557 -0.39958487 0 0 Z " fill="#1E202C" transform="translate(777,181)"/>
<path d="M0 0 C0.99 0.66 1.98 1.32 3 2 C3.29296875 5.2578125 3.29296875 5.2578125 3.1875 9.125 C3.16042969 10.40632812 3.13335938 11.68765625 3.10546875 13.0078125 C3.07066406 13.99523437 3.03585937 14.98265625 3 16 C2.24976563 15.82210937 1.49953125 15.64421875 0.7265625 15.4609375 C-2.15032957 14.81950016 -2.15032957 14.81950016 -5.625 15.625 C-9 16 -9 16 -11 14.875 C-12 13 -12 13 -11.9375 10.4375 C-11 8 -11 8 -9.25 6.6875 C-6.72491331 5.91594573 -4.62610707 5.85410516 -2 6 C-2 5.01 -2 4.02 -2 3 C-6.455 3.495 -6.455 3.495 -11 4 C-10.67 3.01 -10.34 2.02 -10 1 C-6.87293041 -0.5635348 -3.42017557 -0.39958487 0 0 Z " fill="#1E202C" transform="translate(579,181)"/>
<path d="M0 0 C3.625 0.3125 3.625 0.3125 6.0625 1.4375 C8.27204349 4.08895219 7.90520819 5.95000175 7.625 9.3125 C7.625 10.3025 7.625 11.2925 7.625 12.3125 C7.955 12.6425 8.285 12.9725 8.625 13.3125 C9.19916268 18.59479665 9.19916268 18.59479665 7.125 21.1875 C3.57948991 22.78297954 0.45193227 22.90065557 -3.375 22.3125 C-5.875 21 -5.875 21 -7.375 19.3125 C-7.375 18.3225 -7.375 17.3325 -7.375 16.3125 C-3.745 16.6425 -0.115 16.9725 3.625 17.3125 C3.625 16.3225 3.625 15.3325 3.625 14.3125 C0.655 13.8175 0.655 13.8175 -2.375 13.3125 C-2.375 11.9925 -2.375 10.6725 -2.375 9.3125 C-0.725 8.9825 0.925 8.6525 2.625 8.3125 C2.955 6.9925 3.285 5.6725 3.625 4.3125 C1.20854218 4.14562552 1.20854218 4.14562552 -1.375 4.3125 C-2.035 4.9725 -2.695 5.6325 -3.375 6.3125 C-4.695 6.3125 -6.015 6.3125 -7.375 6.3125 C-4.62919355 0.42862903 -4.62919355 0.42862903 0 0 Z " fill="#FB984B" transform="translate(928.375,578.6875)"/>
<path d="M0 0 C3.00963365 0.66606646 4.25064133 1.8694783 5.90625 4.421875 C5.90625 6.071875 5.90625 7.721875 5.90625 9.421875 C2.27625 9.421875 -1.35375 9.421875 -5.09375 9.421875 C-4.10375 10.906875 -4.10375 10.906875 -3.09375 12.421875 C-0.45375 12.091875 2.18625 11.761875 4.90625 11.421875 C4.53125 13.359375 4.53125 13.359375 3.90625 15.421875 C0.69072181 17.02963909 -2.61581 17.02673413 -6.09375 16.421875 C-9.09368115 13.87193352 -9.94855459 12.29304744 -10.59375 8.421875 C-9.50881117 1.912242 -6.33241881 -0.42531171 0 0 Z " fill="#313441" transform="translate(812.09375,180.578125)"/>
<path d="M0 0 C2.4375 1.125 2.4375 1.125 4 3 C4.6875 5.6875 4.6875 5.6875 4 9 C1.8946505 11.89942674 -0.47522123 14.46233971 -3 17 C-0.36 17.33 2.28 17.66 5 18 C5 19.32 5 20.64 5 22 C-0.28 22 -5.56 22 -11 22 C-11 18 -11 18 -9.3203125 16.1484375 C-8.59585937 15.56320312 -7.87140625 14.97796875 -7.125 14.375 C-6.40570313 13.78460937 -5.68640625 13.19421875 -4.9453125 12.5859375 C-4.30335938 12.06257812 -3.66140625 11.53921875 -3 11 C-2.34 10.34 -1.68 9.68 -1 9 C-1.32041397 6.39719432 -1.32041397 6.39719432 -2 4 C-3.97536745 4.34786708 -3.97536745 4.34786708 -6 5 C-6.33 5.66 -6.66 6.32 -7 7 C-8.32 7 -9.64 7 -11 7 C-10.6875 4.625 -10.6875 4.625 -10 2 C-6.28986601 -0.47342266 -4.38939738 -0.38503486 0 0 Z " fill="#FB974B" transform="translate(516,579)"/>
<path d="M0 0 C1.65 0 3.3 0 5 0 C5.99 2.64 6.98 5.28 8 8 C9.32 5.36 10.64 2.72 12 0 C13.65 0 15.3 0 17 0 C16.09574944 2.73385087 15.17725657 5.46145485 14.25 8.1875 C13.99734375 8.95642578 13.7446875 9.72535156 13.484375 10.51757812 C11.94883787 14.98983003 10.44396589 18.60984608 7 22 C3.75 22.3125 3.75 22.3125 1 22 C1.33 20.68 1.66 19.36 2 18 C2.99 18 3.98 18 5 18 C4.72285156 17.11957031 4.44570313 16.23914063 4.16015625 15.33203125 C3.79792969 14.17058594 3.43570313 13.00914062 3.0625 11.8125 C2.52302734 10.08966797 2.52302734 10.08966797 1.97265625 8.33203125 C1.16243964 5.55646994 0.50865693 2.84312452 0 0 Z " fill="#242737" transform="translate(654,181)"/>
<path d="M0 0 C2 1.125 2 1.125 3 3 C3.1875 6.1875 3.1875 6.1875 3 9 C-0.3 9 -3.6 9 -7 9 C-6.67 9.99 -6.34 10.98 -6 12 C-3.36 11.67 -0.72 11.34 2 11 C2 11.99 2 12.98 2 14 C0 16 0 16 -3.875 16.375 C-6.80850708 16.27899431 -7.91241536 16.05255079 -10.5 14.5 C-12.62153384 10.96411027 -12.791013 8.02098277 -12 4 C-8.99732176 -1.00446374 -5.31746703 -0.59082967 0 0 Z " fill="#2C3240" transform="translate(642,181)"/>
<path d="M0 0 C1.65 0 3.3 0 5 0 C6.42258812 3.82320557 7.24042276 6.91281305 7 11 C7.66 11 8.32 11 9 11 C9.2165625 9.1128125 9.2165625 9.1128125 9.4375 7.1875 C9.73748686 4.57332877 10.15813297 2.52560108 11 0 C12.65 0 14.3 0 16 0 C15.38762265 4.4975714 14.2484651 8.45173196 12.625 12.6875 C12.20476563 13.80511719 11.78453125 14.92273438 11.3515625 16.07421875 C10.1245289 18.73042732 9.3436068 20.29447444 7 22 C3.8125 22.1875 3.8125 22.1875 1 22 C1 20.68 1 19.36 1 18 C2.32 18 3.64 18 5 18 C4.72285156 17.11957031 4.44570313 16.23914063 4.16015625 15.33203125 C3.79792969 14.17058594 3.43570313 13.00914062 3.0625 11.8125 C2.52302734 10.08966797 2.52302734 10.08966797 1.97265625 8.33203125 C1.16243964 5.55646994 0.50865693 2.84312452 0 0 Z " fill="#242534" transform="translate(594,181)"/>
<path d="M0 0 C1.65 0 3.3 0 5 0 C5.33 3.63 5.66 7.26 6 11 C7.32 11 8.64 11 10 11 C10.33 7.37 10.66 3.74 11 0 C12.65 0 14.3 0 16 0 C16 5.28 16 10.56 16 16 C14.35 16 12.7 16 11 16 C10.67 15.34 10.34 14.68 10 14 C9.34 14.66 8.68 15.32 8 16 C5.5625 16.375 5.5625 16.375 3 16 C0.63301292 13.65544882 0.03198692 12.329252 -0.29296875 8.984375 C-0.25816406 7.91703125 -0.22335937 6.8496875 -0.1875 5.75 C-0.14689453 4.13351563 -0.14689453 4.13351563 -0.10546875 2.484375 C-0.07066406 1.66453125 -0.03585937 0.8446875 0 0 Z " fill="#292428" transform="translate(691,181)"/>
<path d="M0 0 C1.32 0 2.64 0 4 0 C4.33 0.66 4.66 1.32 5 2 C5.66 1.34 6.32 0.68 7 0 C10 -0.25 10 -0.25 13 0 C15 2 15 2 15.1953125 5.2578125 C15.16050781 7.17207031 15.16050781 7.17207031 15.125 9.125 C15.10695313 10.40632812 15.08890625 11.68765625 15.0703125 13.0078125 C15.04710937 13.99523437 15.02390625 14.98265625 15 16 C13.35 16 11.7 16 10 16 C10 12.04 10 8.08 10 4 C8.35 4 6.7 4 5 4 C5 7.96 5 11.92 5 16 C3.35 16 1.7 16 0 16 C0 10.72 0 5.44 0 0 Z " fill="#2B292D" transform="translate(549,181)"/>
<path d="M0 0 C0.90492188 0.02320313 1.80984375 0.04640625 2.7421875 0.0703125 C4.10730469 0.09738281 4.10730469 0.09738281 5.5 0.125 C6.19867187 0.14820313 6.89734375 0.17140625 7.6171875 0.1953125 C8.2771875 1.5153125 8.9371875 2.8353125 9.6171875 4.1953125 C6.6471875 3.8653125 3.6771875 3.5353125 0.6171875 3.1953125 C1.4121718 5.3534773 1.4121718 5.3534773 3.4296875 5.87109375 C4.1515625 6.08121094 4.8734375 6.29132813 5.6171875 6.5078125 C7.8046875 7.265625 7.8046875 7.265625 9.6171875 8.1953125 C10.6171875 10.8828125 10.6171875 10.8828125 10.6171875 13.1953125 C8.03643348 15.77606652 6.10750769 16.43584008 2.5546875 16.5078125 C-1.3828125 16.1953125 -1.3828125 16.1953125 -4.3828125 14.1953125 C-4.3828125 13.2053125 -4.3828125 12.2153125 -4.3828125 11.1953125 C-1.35861725 11.78335047 1.63477203 12.42209368 4.6171875 13.1953125 C4.6171875 12.2053125 4.6171875 11.2153125 4.6171875 10.1953125 C3.5034375 10.0715625 2.3896875 9.9478125 1.2421875 9.8203125 C-2.3828125 9.1953125 -2.3828125 9.1953125 -4.3828125 7.1953125 C-4.6328125 4.6953125 -4.6328125 4.6953125 -4.3828125 2.1953125 C-2.3828125 0.1953125 -2.3828125 0.1953125 0 0 Z " fill="#222734" transform="translate(758.3828125,492.8046875)"/>
<path d="M0 0 C0.78503906 0.00515625 1.57007813 0.0103125 2.37890625 0.015625 C3.55259766 0.00789062 3.55259766 0.00789062 4.75 0 C6.94140625 0.265625 6.94140625 0.265625 9.94140625 2.265625 C9.94140625 2.925625 9.94140625 3.585625 9.94140625 4.265625 C6.97140625 3.935625 4.00140625 3.605625 0.94140625 3.265625 C2.24664525 5.87610301 3.29967199 5.94628923 6.00390625 6.890625 C6.73738281 7.15101563 7.47085938 7.41140625 8.2265625 7.6796875 C9.07541016 7.96972656 9.07541016 7.96972656 9.94140625 8.265625 C10.12890625 11.140625 10.12890625 11.140625 9.94140625 14.265625 C6.94401684 16.26388461 6.30793117 16.54112898 2.94140625 16.515625 C1.92046875 16.52335937 1.92046875 16.52335937 0.87890625 16.53125 C-1.05859375 16.265625 -1.05859375 16.265625 -4.05859375 14.265625 C-4.05859375 13.275625 -4.05859375 12.285625 -4.05859375 11.265625 C-1.0343985 11.85366297 1.95899078 12.49240618 4.94140625 13.265625 C4.94140625 12.275625 4.94140625 11.285625 4.94140625 10.265625 C3.82765625 10.141875 2.71390625 10.018125 1.56640625 9.890625 C-2.05859375 9.265625 -2.05859375 9.265625 -4.05859375 7.265625 C-4.30859375 4.765625 -4.30859375 4.765625 -4.05859375 2.265625 C-2.05859375 0.265625 -2.05859375 0.265625 0 0 Z " fill="#1F2431" transform="translate(617.05859375,180.734375)"/>
<path d="M0 0 C3.43462183 -0.42056594 5.99485082 -0.63981991 8.98828125 1.265625 C13.59950361 5.19900722 13.59950361 5.19900722 15 8 C15.07065617 10.04055005 15.08421976 12.08334257 15.0625 14.125 C15.05347656 15.22070312 15.04445313 16.31640625 15.03515625 17.4453125 C15.02355469 18.28835937 15.01195313 19.13140625 15 20 C14.67 20 14.34 20 14 20 C14 18.35 14 16.7 14 15 C13.34 15 12.68 15 12 15 C11.979375 15.86625 11.95875 16.7325 11.9375 17.625 C10.80296567 21.7093236 9.31745805 23.29540243 6.03515625 25.86328125 C2.44475121 27.86867063 0.06039203 27.58941175 -4 27 C-7 25.5 -7 25.5 -9 24 C-8.34 23.67 -7.68 23.34 -7 23 C-6.34 23.33 -5.68 23.66 -5 24 C-1.00518404 24.401024 2.71782877 24.48081421 6.5 23.0625 C8.96309263 19.67574764 9.31804458 16.1275119 9 12 C7.30755015 8.66892836 7.30755015 8.66892836 5 6 C4.649375 5.236875 4.29875 4.47375 3.9375 3.6875 C3.04927159 1.64102129 3.04927159 1.64102129 0 1 C0 0.67 0 0.34 0 0 Z " fill="#282A2C" transform="translate(84,29)"/>
<path d="M0 0 C1.588125 -0.061875 3.17625 -0.12375 4.8125 -0.1875 C6.15248047 -0.23970703 6.15248047 -0.23970703 7.51953125 -0.29296875 C10 0 10 0 11.80078125 1.35546875 C13.50731102 3.69569361 13.42408618 5.1727588 13 8 C11.9375 9.8125 11.9375 9.8125 10 11 C6.3125 11.1875 6.3125 11.1875 3 11 C3 12.98 3 14.96 3 17 C2.01 17 1.02 17 0 17 C0 11.39 0 5.78 0 0 Z " fill="#F97520" transform="translate(117,35)"/>
<path d="M0 0 C-0.66 0.66 -1.32 1.32 -2 2 C-1.34 2.33 -0.68 2.66 0 3 C-0.26171875 4.91796875 -0.26171875 4.91796875 -1 7 C-2.70703125 7.80078125 -2.70703125 7.80078125 -4.8125 8.3125 C-8.30504366 9.42860911 -9.71098827 10.471154 -11.5 13.6875 C-11.995 14.780625 -12.49 15.87375 -13 17 C-13.33 17 -13.66 17 -14 17 C-14 15.02 -14 13.04 -14 11 C-15.32 11.33 -16.64 11.66 -18 12 C-18 14.97 -18 17.94 -18 21 C-20 18 -20 18 -19.8125 14.6875 C-18.99234837 10.96527335 -18.06020444 8.20476247 -16 5 C-13.8125 4.125 -13.8125 4.125 -12 4 C-12 3.34 -12 2.68 -12 2 C-7.82262526 0.40861915 -4.46839215 -0.21278058 0 0 Z " fill="#636363" transform="translate(87,28)"/>
<path d="M0 0 C1.32 0 2.64 0 4 0 C4.11613204 3.10385211 4.18722029 6.20714662 4.25 9.3125 C4.28351562 10.19357422 4.31703125 11.07464844 4.3515625 11.98242188 C4.44995715 18.45187038 4.44995715 18.45187038 2.28125 21.09375 C-0.25817459 22.10256251 -2.02727515 22.30762021 -4.75 22.1875 C-5.94882812 22.14689453 -5.94882812 22.14689453 -7.171875 22.10546875 C-7.77515625 22.07066406 -8.3784375 22.03585938 -9 22 C-9.66 20.68 -10.32 19.36 -11 18 C-8.03 18 -5.06 18 -2 18 C-2.02320313 16.95199219 -2.04640625 15.90398437 -2.0703125 14.82421875 C-2.08907303 13.44531963 -2.10727293 12.0664128 -2.125 10.6875 C-2.14175781 9.99720703 -2.15851562 9.30691406 -2.17578125 8.59570312 C-2.21217794 4.82864604 -2.14378864 3.21568296 0 0 Z " fill="#22232A" transform="translate(795,181)"/>
<path d="M0 0 C1.65 0 3.3 0 5 0 C5 1.32 5 2.64 5 4 C5.99 4 6.98 4 8 4 C8 4.99 8 5.98 8 7 C7.01 7 6.02 7 5 7 C5 9.97 5 12.94 5 16 C5.99 16 6.98 16 8 16 C8.33 17.32 8.66 18.64 9 20 C5.625 20.1875 5.625 20.1875 2 20 C-0.20914 16.68629 -0.22481553 15.6553979 -0.125 11.8125 C-0.10695313 10.91144531 -0.08890625 10.01039063 -0.0703125 9.08203125 C-0.04710937 8.39496094 -0.02390625 7.70789063 0 7 C-0.66 7 -1.32 7 -2 7 C-2 6.01 -2 5.02 -2 4 C-1.34 4 -0.68 4 0 4 C0 2.68 0 1.36 0 0 Z " fill="#2C2A2B" transform="translate(657,489)"/>
<path d="M0 0 C2.5 0.25 2.5 0.25 4.5 2.25 C4.83 1.59 5.16 0.93 5.5 0.25 C6.16 0.25 6.82 0.25 7.5 0.25 C7.5 1.24 7.5 2.23 7.5 3.25 C8.139375 3.064375 8.77875 2.87875 9.4375 2.6875 C10.118125 2.543125 10.79875 2.39875 11.5 2.25 C12.5 3.25 12.5 3.25 12.5625 6.8125 C12.541875 7.946875 12.52125 9.08125 12.5 10.25 C11.84 10.25 11.18 10.25 10.5 10.25 C10.5 8.27 10.5 6.29 10.5 4.25 C9.51 4.745 9.51 4.745 8.5 5.25 C7.84444881 7.77733235 7.84444881 7.77733235 7.5 10.25 C6.84 10.25 6.18 10.25 5.5 10.25 C5.17 9.59 4.84 8.93 4.5 8.25 C3.84 8.91 3.18 9.57 2.5 10.25 C0 10.5625 0 10.5625 -2.5 10.25 C-4.64915785 7.02626323 -4.88286803 5.98296326 -4.5 2.25 C-2.5 0.25 -2.5 0.25 0 0 Z " fill="#FEEBD8" transform="translate(116.5,276.75)"/>
<path d="M0 0 C1.65 0 3.3 0 5 0 C5 7.26 5 14.52 5 22 C3.35 22 1.7 22 0 22 C0 14.74 0 7.48 0 0 Z " fill="#13314A" transform="translate(730,175)"/>
<path d="M0 0 C1.65 0 3.3 0 5 0 C5 7.26 5 14.52 5 22 C3.35 22 1.7 22 0 22 C0 14.74 0 7.48 0 0 Z " fill="#13314A" transform="translate(586,175)"/>
<path d="M0 0 C0 7.26 0 14.52 0 22 C-1.32 22 -2.64 22 -4 22 C-4.33 16.39 -4.66 10.78 -5 5 C-6.98 5.99 -6.98 5.99 -9 7 C-8.6875 4.625 -8.6875 4.625 -8 2 C-5 0 -5 0 0 0 Z " fill="#FB9340" transform="translate(98,579)"/>
<path d="M0 0 C3.5 0.25 3.5 0.25 5.5 2.25 C5.625 4.875 5.625 4.875 5.5 7.25 C2.86 7.25 0.22 7.25 -2.5 7.25 C-2.17 8.24 -1.84 9.23 -1.5 10.25 C1.965 9.755 1.965 9.755 5.5 9.25 C4.84 10.57 4.18 11.89 3.5 13.25 C-2.125 13.5 -2.125 13.5 -5.5 11.25 C-5.86328125 9.15625 -5.86328125 9.15625 -5.8125 6.75 C-5.80863281 5.9559375 -5.80476562 5.161875 -5.80078125 4.34375 C-5.24285242 0.45998568 -3.72497443 0.2660696 0 0 Z " fill="#F98E4E" transform="translate(256.5,38.75)"/>
<path d="M0 0 C1.670625 0.061875 1.670625 0.061875 3.375 0.125 C3.40185938 2.27076637 3.42133088 4.41662645 3.4375 6.5625 C3.44910156 7.75746094 3.46070313 8.95242188 3.47265625 10.18359375 C3.375 13.125 3.375 13.125 2.375 14.125 C-3.15441176 14.36029412 -3.15441176 14.36029412 -5.625 13.125 C-5.625 12.465 -5.625 11.805 -5.625 11.125 C-3.645 11.125 -1.665 11.125 0.375 11.125 C-0.24375 11.00125 -0.8625 10.8775 -1.5 10.75 C-3.625 10.125 -3.625 10.125 -5.625 8.125 C-5.875 5.125 -5.875 5.125 -5.625 2.125 C-3.625 0.125 -3.625 0.125 0 0 Z " fill="#FEF9F1" transform="translate(719.625,353.875)"/>
<path d="M0 0 C1.875 1.25 1.875 1.25 3 3 C3 4.32 3 5.64 3 7 C0.03 7 -2.94 7 -6 7 C-6 7.99 -6 8.98 -6 10 C-3.36 10 -0.72 10 2 10 C2 10.66 2 11.32 2 12 C-0.79870027 13.39935013 -2.90498792 13.25265405 -6 13 C-7.875 11.9375 -7.875 11.9375 -9 10 C-9.63316583 4.09045226 -9.63316583 4.09045226 -7.875 1.0625 C-5.11019567 -0.50422245 -3.11811483 -0.38976435 0 0 Z " fill="#F97820" transform="translate(202,39)"/>
<path d="M0 0 C1.875 1.25 1.875 1.25 3 3 C3 4.32 3 5.64 3 7 C0.03 7 -2.94 7 -6 7 C-5.01 8.485 -5.01 8.485 -4 10 C-2.35 9.67 -0.7 9.34 1 9 C1.33 9.99 1.66 10.98 2 12 C-0.79870027 13.39935013 -2.90498792 13.25265405 -6 13 C-7.875 11.9375 -7.875 11.9375 -9 10 C-9.63316583 4.09045226 -9.63316583 4.09045226 -7.875 1.0625 C-5.11019567 -0.50422245 -3.11811483 -0.38976435 0 0 Z " fill="#FA9255" transform="translate(179,39)"/>
<path d="M0 0 C3.66666667 0 7.33333333 0 11 0 C11 1.32 11 2.64 11 4 C9.35 4.33 7.7 4.66 6 5 C5.67 8.63 5.34 12.26 5 16 C3.35 16 1.7 16 0 16 C0 10.72 0 5.44 0 0 Z " fill="#2C2B30" transform="translate(710,181)"/>
<path d="M0 0 C3.3 0 6.6 0 10 0 C10 1.32 10 2.64 10 4 C8.68 4.33 7.36 4.66 6 5 C5.67 8.63 5.34 12.26 5 16 C3.35 16 1.7 16 0 16 C0 10.72 0 5.44 0 0 Z " fill="#11273E" transform="translate(724,493)"/>
<path d="M0 0 C0.99 0 1.98 0 3 0 C2.8129432 7.95841652 2.8129432 7.95841652 0 11.5625 C-4.10751201 13.53068284 -7.5340241 13.30107703 -12 13 C-12.99 13 -13.98 13 -15 13 C-15.66 13 -16.32 13 -17 13 C-18.0502717 9.0323069 -17.99716532 5.98866127 -17 2 C-16.34 1.67 -15.68 1.34 -15 1 C-14.34 3.97 -13.68 6.94 -13 10 C-11.576875 9.896875 -10.15375 9.79375 -8.6875 9.6875 C-7.88699219 9.62949219 -7.08648437 9.57148437 -6.26171875 9.51171875 C-3.57869663 8.9046792 -2.64415965 8.17851154 -1 6 C-0.2730774 2.89160979 -0.2730774 2.89160979 0 0 Z " fill="#45464A" transform="translate(91,41)"/>
<path d="M0 0 C0.66 0 1.32 0 2 0 C2.33 1.65 2.66 3.3 3 5 C4.32 4.34 5.64 3.68 7 3 C6.67 3.99 6.34 4.98 6 6 C6.556875 5.484375 7.11375 4.96875 7.6875 4.4375 C10 3 10 3 12.75 3.3125 C13.4925 3.539375 14.235 3.76625 15 4 C13.02 4.99 13.02 4.99 11 6 C12.32 6.66 13.64 7.32 15 8 C14.67 9.32 14.34 10.64 14 12 C12.54257537 12.08096803 11.08387193 12.13917774 9.625 12.1875 C8.81289062 12.22230469 8.00078125 12.25710937 7.1640625 12.29296875 C6.44992187 12.19628906 5.73578125 12.09960938 5 12 C4.34 11.01 3.68 10.02 3 9 C2.67 9.99 2.34 10.98 2 12 C1.34 12 0.68 12 0 12 C0 8.04 0 4.08 0 0 Z " fill="#B7B9BC" transform="translate(1182,38)"/>
<path d="M0 0 C0.66 1.32 1.32 2.64 2 4 C-0.64 3.67 -3.28 3.34 -6 3 C-6 5.31 -6 7.62 -6 10 C-4.35 10 -2.7 10 -1 10 C-1 9.34 -1 8.68 -1 8 C-0.01 8.33 0.98 8.66 2 9 C1.34 10.32 0.68 11.64 0 13 C-6.34507042 13.35915493 -6.34507042 13.35915493 -8.9375 11.9375 C-10.6140629 8.88023824 -10.36528977 6.4093712 -10 3 C-7.7672032 -1.07157064 -4.21152194 -0.23838803 0 0 Z " fill="#F98137" transform="translate(217,39)"/>
<path d="M0 0 C0.66 0.33 1.32 0.66 2 1 C2 2.65 2 4.3 2 6 C4.64 6.99 7.28 7.98 10 9 C10 9.99 10 10.98 10 12 C6.97580475 11.41196203 3.98241547 10.77321882 1 10 C1 10.99 1 11.98 1 13 C0.01 13.33 -0.98 13.66 -2 14 C-5.22265625 8.82421875 -5.22265625 8.82421875 -6 7 C-4.77065985 3.31197956 -3.06140622 2.27643027 0 0 Z " fill="#E8ECEC" transform="translate(753,494)"/>
<path d="M0 0 C1.65 0 3.3 0 5 0 C5.66 2.97 6.32 5.94 7 9 C7.99 8.67 8.98 8.34 10 8 C10.125 13.75 10.125 13.75 9 16 C7.35 16 5.7 16 4 16 C3.32586789 14.08594633 2.6609668 12.16863974 2 10.25 C1.62875 9.18265625 1.2575 8.1153125 0.875 7.015625 C0 4 0 4 0 0 Z " fill="#1F2232" transform="translate(615,493)"/>
<path d="M0 0 C0.33 0 0.66 0 1 0 C1.53456823 6.56924952 1.68294834 11.36010533 -2.515625 16.66015625 C-4.30539618 18.27566024 -5.71671926 19.19340626 -8 20 C-10.578125 19.7578125 -10.578125 19.7578125 -13.25 19.125 C-14.14203125 18.92132813 -15.0340625 18.71765625 -15.953125 18.5078125 C-16.62859375 18.34023438 -17.3040625 18.17265625 -18 18 C-18 17.67 -18 17.34 -18 17 C-17.40832031 16.92523438 -16.81664063 16.85046875 -16.20703125 16.7734375 C-11.96392243 16.06740634 -8.87456281 15.48289638 -6 12.125 C-4.37046289 9.57884827 -3.34107378 7.9559728 -3 5 C-2.34 5 -1.68 5 -1 5 C-0.67 3.35 -0.34 1.7 0 0 Z " fill="#5F5F61" transform="translate(99,39)"/>
<path d="M0 0 C1.32 0 2.64 0 4 0 C4.67305018 1.60149886 5.33822227 3.20631029 6 4.8125 C6.37125 5.70582031 6.7425 6.59914063 7.125 7.51953125 C8 10 8 10 8 13 C7.01 13 6.02 13 5 13 C5 12.01 5 11.02 5 10 C3.02 10 1.04 10 -1 10 C-1 10.99 -1 11.98 -1 13 C-1.99 13 -2.98 13 -4 13 C-3.52140759 11.39566191 -3.04210442 9.79153584 -2.5625 8.1875 C-2.29566406 7.29417969 -2.02882813 6.40085937 -1.75390625 5.48046875 C-1.19612127 3.64526945 -0.60655425 1.81966274 0 0 Z " fill="#FDE1CC" transform="translate(612,351)"/>
<path d="M0 0 C0.66 1.32 1.32 2.64 2 4 C-0.64 3.67 -3.28 3.34 -6 3 C-5.67 4.98 -5.34 6.96 -5 9 C-2.69 9 -0.38 9 2 9 C1.34 10.32 0.68 11.64 0 13 C-3.51903714 13.31991247 -5.42015168 13.37169764 -8.4375 11.4375 C-10 9 -10 9 -9.9375 5.375 C-8.34409134 -0.36127119 -5.34762882 -0.23767239 0 0 Z " fill="#F97E33" transform="translate(148,39)"/>
<path d="M0 0 C2.62113708 0 4.50935112 -0.31292445 7 -1 C7.33 -0.34 7.66 0.32 8 1 C7.01 1.33 6.02 1.66 5 2 C5.99 2.33 6.98 2.66 8 3 C7.67 4.32 7.34 5.64 7 7 C5.948125 6.814375 4.89625 6.62875 3.8125 6.4375 C0.40457789 6.04642697 -1.73089212 6.23079815 -5 7 C-6 6 -6 6 -6.0625 2.9375 C-6.041875 1.968125 -6.02125 0.99875 -6 0 C-3.47064411 -1.26467795 -2.65809097 -0.7249339 0 0 Z " fill="#A7A8B0" transform="translate(293,280)"/>
<path d="M0 0 C4.55555556 0.55555556 4.55555556 0.55555556 6 2 C6.07271741 4.35313555 6.08370868 6.70833668 6.0625 9.0625 C6.05347656 10.35285156 6.04445313 11.64320313 6.03515625 12.97265625 C6.02355469 13.97167969 6.01195312 14.97070312 6 16 C4.35 16 2.7 16 1 16 C0.92652344 14.73542969 0.92652344 14.73542969 0.8515625 13.4453125 C0.77679687 12.34960938 0.70203125 11.25390625 0.625 10.125 C0.55539062 9.03445312 0.48578125 7.94390625 0.4140625 6.8203125 C0.26746509 3.86953526 0.26746509 3.86953526 -2 2 C-1.34 1.34 -0.68 0.68 0 0 Z " fill="#2B2828" transform="translate(756,181)"/>
<path d="M0 0 C1.32 0 2.64 0 4 0 C4.66 1.98 5.32 3.96 6 6 C8.10232344 3.1315587 8.10232344 3.1315587 9 0 C10.32 0.33 11.64 0.66 13 1 C11.68 4.96 10.36 8.92 9 13 C7.35 13 5.7 13 4 13 C3.32942113 11.2097939 2.6636531 9.41778511 2 7.625 C1.62875 6.62726562 1.2575 5.62953125 0.875 4.6015625 C0 2 0 2 0 0 Z " fill="#F97F32" transform="translate(236,39)"/>
<path d="M0 0 C4.29 0 8.58 0 13 0 C14.60725635 3.21451269 14.05748185 6.43612536 14 10 C13.01 10 12.02 10 11 10 C11 7.36 11 4.72 11 2 C10.01 2 9.02 2 8 2 C8 4.64 8 7.28 8 10 C7.34 10 6.68 10 6 10 C5.67 7.69 5.34 5.38 5 3 C4.34 3 3.68 3 3 3 C2.67 5.31 2.34 7.62 2 10 C1.34 10 0.68 10 0 10 C0 6.7 0 3.4 0 0 Z " fill="#FEF3EA" transform="translate(688,354)"/>
<path d="M0 0 C0 2.97 0 5.94 0 9 C-6.41194487 10.33078101 -6.41194487 10.33078101 -9 8.875 C-10 7 -10 7 -9.9375 4.4375 C-9 2 -9 2 -7.25 0.6875 C-4.72491331 -0.08405427 -2.62610707 -0.14589484 0 0 Z " fill="#2B2A31" transform="translate(775,187)"/>
<path d="M0 0 C0 2.97 0 5.94 0 9 C-6.41194487 10.33078101 -6.41194487 10.33078101 -9 8.875 C-10 7 -10 7 -9.9375 4.4375 C-9 2 -9 2 -7.25 0.6875 C-4.72491331 -0.08405427 -2.62610707 -0.14589484 0 0 Z " fill="#2B2A31" transform="translate(577,187)"/>
<path d="M0 0 C1.65 0 3.3 0 5 0 C5 5.28 5 10.56 5 16 C3.35 16 1.7 16 0 16 C-0.9360342 12.20732808 -0.98276252 9.06325435 -0.5625 5.1875 C-0.40974609 3.72376953 -0.40974609 3.72376953 -0.25390625 2.23046875 C-0.12822266 1.12638672 -0.12822266 1.12638672 0 0 Z " fill="#202741" transform="translate(702,181)"/>
<path d="M0 0 C1.65 0 3.3 0 5 0 C5 5.28 5 10.56 5 16 C3.35 16 1.7 16 0 16 C0 10.72 0 5.44 0 0 Z " fill="#281833" transform="translate(648,493)"/>
<path d="M0 0 C1.32 0 2.64 0 4 0 C4 0.99 4 1.98 4 3 C4.66 3 5.32 3 6 3 C6 3.99 6 4.98 6 6 C5.34 6 4.68 6 4 6 C4 8.31 4 10.62 4 13 C4.66 13 5.32 13 6 13 C6 13.99 6 14.98 6 16 C1.125 15.125 1.125 15.125 0 14 C-0.14115161 11.32941149 -0.04247107 8.67567762 0 6 C-0.66 6 -1.32 6 -2 6 C-2 5.01 -2 4.02 -2 3 C-1.34 3 -0.68 3 0 3 C0 2.01 0 1.02 0 0 Z " fill="#F98236" transform="translate(222,36)"/>
<path d="M0 0 C1.32 0 2.64 0 4 0 C4 0.99 4 1.98 4 3 C4.66 3 5.32 3 6 3 C6 3.99 6 4.98 6 6 C5.34 6 4.68 6 4 6 C4 8.31 4 10.62 4 13 C4.66 13 5.32 13 6 13 C6 13.99 6 14.98 6 16 C1.125 15.125 1.125 15.125 0 14 C-0.14115161 11.32941149 -0.04247107 8.67567762 0 6 C-0.66 6 -1.32 6 -2 6 C-2 5.01 -2 4.02 -2 3 C-1.34 3 -0.68 3 0 3 C0 2.01 0 1.02 0 0 Z " fill="#F98236" transform="translate(185,36)"/>
<path d="M0 0 C1.32 0 2.64 0 4 0 C4 0.99 4 1.98 4 3 C4.66 3.33 5.32 3.66 6 4 C5.67 7.96 5.34 11.92 5 16 C3.35 16 1.7 16 0 16 C0 10.72 0 5.44 0 0 Z " fill="#2A182F" transform="translate(738,181)"/>
<path d="M0 0 C1.32 0 2.64 0 4 0 C5.14077657 3.42232972 5.09815117 6.08673217 5.0625 9.6875 C5.05347656 10.86699219 5.04445313 12.04648438 5.03515625 13.26171875 C5.02355469 14.16535156 5.01195312 15.06898438 5 16 C3.35 16 1.7 16 0 16 C0 10.72 0 5.44 0 0 Z " fill="#112239" transform="translate(549,181)"/>
<path d="M0 0 C0.33 0.66 0.66 1.32 1 2 C2.65 2 4.3 2 6 2 C6.33 4.31 6.66 6.62 7 9 C7.66 9 8.32 9 9 9 C9.33 6.69 9.66 4.38 10 2 C10.66 2 11.32 2 12 2 C12 4.97 12 7.94 12 11 C8.04 11 4.08 11 0 11 C-1.125 2.25 -1.125 2.25 0 0 Z " fill="#BBB7BA" transform="translate(1243,39)"/>
<path d="M0 0 C1.36125 0.37125 1.36125 0.37125 2.75 0.75 C3.08 2.07 3.41 3.39 3.75 4.75 C3.09 4.75 2.43 4.75 1.75 4.75 C1.605625 5.389375 1.46125 6.02875 1.3125 6.6875 C0.75 8.75 0.75 8.75 -0.25 9.75 C-2.24958364 9.79080783 -4.25045254 9.79254356 -6.25 9.75 C-7 7 -7 7 -7.25 3.75 C-5.03899004 0.30082446 -4.13051831 -0.31773218 0 0 Z " fill="#3F6C7B" transform="translate(85.25,38.25)"/>
<path d="M0 0 C1.010625 0.0825 2.02125 0.165 3.0625 0.25 C5.0625 3.25 5.0625 3.25 5.0625 6.25 C2.7525 6.25 0.4425 6.25 -1.9375 6.25 C-1.9375 6.91 -1.9375 7.57 -1.9375 8.25 C0.0425 7.92 2.0225 7.59 4.0625 7.25 C3.7325 8.24 3.4025 9.23 3.0625 10.25 C0.1875 10.4375 0.1875 10.4375 -2.9375 10.25 C-4.9375 7.25 -4.9375 7.25 -4.625 4.125 C-3.71417611 0.31610009 -3.71417611 0.31610009 0 0 Z " fill="#FEE3CB" transform="translate(671.9375,353.75)"/>
<path d="M0 0 C1.99954746 -0.04254356 4.00041636 -0.04080783 6 0 C7.89488952 1.89488952 7.18019112 4.57139146 7.23046875 7.08984375 C7 9 7 9 5 11 C3.35 11 1.7 11 0 11 C0 7.37 0 3.74 0 0 Z " fill="#FEFCF8" transform="translate(157,38)"/>
<path d="M0 0 C1.99954746 -0.04254356 4.00041636 -0.04080783 6 0 C7 1 7 1 7.09765625 3.06640625 C7.08605469 3.89011719 7.07445312 4.71382813 7.0625 5.5625 C7.05347656 6.38878906 7.04445313 7.21507812 7.03515625 8.06640625 C7.02355469 8.70449219 7.01195312 9.34257812 7 10 C4.36 10 1.72 10 -1 10 C-1.625 8.125 -1.625 8.125 -2 6 C-1.34 5.34 -0.68 4.68 0 4 C1.32 4 2.64 4 4 4 C4 3.34 4 2.68 4 2 C2.35 2.33 0.7 2.66 -1 3 C-0.67 2.01 -0.34 1.02 0 0 Z " fill="#FDD9C6" transform="translate(705,354)"/>
<path d="M0 0 C2.5 0.25 2.5 0.25 4.5 2.25 C4.5 3.57 4.5 4.89 4.5 6.25 C3.51 6.58 2.52 6.91 1.5 7.25 C2.49 7.25 3.48 7.25 4.5 7.25 C4.17 8.24 3.84 9.23 3.5 10.25 C0.625 10.375 0.625 10.375 -2.5 10.25 C-4.5 8.25 -4.5 8.25 -4.75 5.25 C-4.43608753 1.48305032 -3.83691092 0.38369109 0 0 Z " fill="#FDD1B4" transform="translate(729.5,353.75)"/>
<path d="M0 0 C2.375 -0.125 2.375 -0.125 5 0 C7 2 7 2 7.1953125 3.9453125 C7.13020833 5.96354167 7.06510417 7.98177083 7 10 C4.36 10 1.72 10 -1 10 C-1.625 8.125 -1.625 8.125 -2 6 C-1.34 5.34 -0.68 4.68 0 4 C1.32 4 2.64 4 4 4 C4 3.34 4 2.68 4 2 C2.35 2.33 0.7 2.66 -1 3 C-0.67 2.01 -0.34 1.02 0 0 Z " fill="#FEF3EA" transform="translate(634,354)"/>
<path d="M0 0 C0.66 0 1.32 0 2 0 C2.99 2.31 3.98 4.62 5 7 C5.66 4.69 6.32 2.38 7 0 C7.66 0 8.32 0 9 0 C9.66 2.31 10.32 4.62 11 7 C11.99 4.69 12.98 2.38 14 0 C15.15957207 3.47871621 14.77456651 4.34219645 13.5625 7.6875 C13.27503906 8.49574219 12.98757813 9.30398437 12.69140625 10.13671875 C12.46324219 10.75160156 12.23507812 11.36648437 12 12 C11.34 12 10.68 12 10 12 C9.34 9.69 8.68 7.38 8 5 C7.34 7.31 6.68 9.62 6 12 C4.68 11.67 3.36 11.34 2 11 C1.34 7.37 0.68 3.74 0 0 Z " fill="#817782" transform="translate(1150,38)"/>
<path d="M0 0 C0.05399736 1.45792884 0.09279177 2.91642712 0.125 4.375 C0.14820313 5.18710938 0.17140625 5.99921875 0.1953125 6.8359375 C0 9 0 9 -2 11 C-4.625 10.625 -4.625 10.625 -7 10 C-7 7.03 -7 4.06 -7 1 C-4.53721199 -0.231394 -2.7204945 -0.07159196 0 0 Z " fill="#999BA7" transform="translate(199,243)"/>
<path d="M0 0 C4.39674114 0.50731629 6.83808109 3.11914055 10 6 C11.38226016 8.76452033 11.09525387 11.0461363 11.0625 14.125 C11.05347656 15.22070312 11.04445313 16.31640625 11.03515625 17.4453125 C11.02355469 18.28835937 11.01195313 19.13140625 11 20 C10.67 20 10.34 20 10 20 C10 18.35 10 16.7 10 15 C9.34 15 8.68 15 8 15 C7.5875 13.948125 7.175 12.89625 6.75 11.8125 C5.30588622 8.41295943 3.44808942 5.78575693 1 3 C1.33 2.34 1.66 1.68 2 1 C1.34 0.67 0.68 0.34 0 0 Z " fill="#444446" transform="translate(88,29)"/>
<path d="M0 0 C4.55555556 0.55555556 4.55555556 0.55555556 6 2 C6.1875 4.4375 6.1875 4.4375 6 7 C4 9 4 9 1.375 9.125 C0.59125 9.08375 -0.1925 9.0425 -1 9 C-1.625 5.625 -1.625 5.625 -2 2 C-1.34 1.34 -0.68 0.68 0 0 Z " fill="#7F8795" transform="translate(1168,41)"/>
<path d="M0 0 C4.55555556 0.55555556 4.55555556 0.55555556 6 2 C6.1875 4.4375 6.1875 4.4375 6 7 C4 9 4 9 1.375 9.125 C0.59125 9.08375 -0.1925 9.0425 -1 9 C-1.625 5.625 -1.625 5.625 -2 2 C-1.34 1.34 -0.68 0.68 0 0 Z " fill="#7F8795" transform="translate(1051,41)"/>
<path d="M0 0 C3 1 3 1 5 4 C5.66 2.68 6.32 1.36 7 0 C7.66 0 8.32 0 9 0 C8.34580901 5.06998019 6.1453591 9.41990777 4 14 C2.68 14 1.36 14 0 14 C0 13.34 0 12.68 0 12 C0.99 12 1.98 12 3 12 C2.7834375 11.38511719 2.566875 10.77023437 2.34375 10.13671875 C2.0653125 9.32847656 1.786875 8.52023437 1.5 7.6875 C1.2215625 6.88699219 0.943125 6.08648437 0.65625 5.26171875 C0 3 0 3 0 0 Z " fill="#FEEEE3" transform="translate(647,354)"/>
<path d="M0 0 C0.66 0 1.32 0 2 0 C2 1.65 2 3.3 2 5 C3.98 5 5.96 5 8 5 C8 3.35 8 1.7 8 0 C8.66 0 9.32 0 10 0 C10 3.96 10 7.92 10 12 C9.34 12 8.68 12 8 12 C8 10.35 8 8.7 8 7 C6.02 7 4.04 7 2 7 C2 8.65 2 10.3 2 12 C1.34 12 0.68 12 0 12 C0 8.04 0 4.08 0 0 Z " fill="#878994" transform="translate(1098,38)"/>
<path d="M0 0 C0.66 0 1.32 0 2 0 C2 1.65 2 3.3 2 5 C3.98 5 5.96 5 8 5 C8 3.35 8 1.7 8 0 C8.66 0 9.32 0 10 0 C10 3.96 10 7.92 10 12 C9.34 12 8.68 12 8 12 C8 10.35 8 8.7 8 7 C6.02 7 4.04 7 2 7 C2 8.65 2 10.3 2 12 C1.34 12 0.68 12 0 12 C0 8.04 0 4.08 0 0 Z " fill="#878994" transform="translate(1037,38)"/>
<path d="M0 0 C2.625 0.375 2.625 0.375 5 1 C5.625 3.3125 5.625 3.3125 6 6 C5.01 7.485 5.01 7.485 4 9 C1.4375 9.25 1.4375 9.25 -1 9 C-2 8 -2 8 -2.1875 5.0625 C-2 2 -2 2 0 0 Z " fill="#767887" transform="translate(1112,41)"/>
<path d="M0 0 C0.66 1.32 1.32 2.64 2 4 C-0.64 3.34 -3.28 2.68 -6 2 C-6.33 2.99 -6.66 3.98 -7 5 C-7.99 5.495 -7.99 5.495 -9 6 C-9.40729228 8.32156597 -9.74438677 10.6568787 -10 13 C-10.66 12.67 -11.32 12.34 -12 12 C-12.48 4.8 -12.48 4.8 -10.5 1.5 C-6.85991277 -0.68405234 -4.20345267 -0.28023018 0 0 Z " fill="#293239" transform="translate(88,36)"/>
<path d="M0 0 C1.64574566 -0.02688151 3.29161413 -0.04634123 4.9375 -0.0625 C5.85402344 -0.07410156 6.77054688 -0.08570313 7.71484375 -0.09765625 C10 0 10 0 11 1 C11.04092937 3.33297433 11.04241723 5.66705225 11 8 C10.34 8 9.68 8 9 8 C9 6.02 9 4.04 9 2 C8.34 2 7.68 2 7 2 C7 3.98 7 5.96 7 8 C6.34 8 5.68 8 5 8 C5 6.02 5 4.04 5 2 C4.01 2 3.02 2 2 2 C2 3.98 2 5.96 2 8 C1.34 8 0.68 8 0 8 C0 5.36 0 2.72 0 0 Z " fill="#897B8D" transform="translate(171,243)"/>
<path d="M0 0 C0 2.64 0 5.28 0 8 C-1.98 8 -3.96 8 -6 8 C-6.82638376 5.10765685 -7 3.11257569 -7 0 C-4.3333581 -1.33332095 -2.83319697 -0.67102033 0 0 Z " fill="#90909A" transform="translate(1240,42)"/>
<path d="M0 0 C0.598125 0.350625 1.19625 0.70125 1.8125 1.0625 C1.4825 2.7125 1.1525 4.3625 0.8125 6.0625 C-0.5075 6.3925 -1.8275 6.7225 -3.1875 7.0625 C-3.1875 8.0525 -3.1875 9.0425 -3.1875 10.0625 C-3.8475 10.0625 -4.5075 10.0625 -5.1875 10.0625 C-5.1875 6.7625 -5.1875 3.4625 -5.1875 0.0625 C-2.1875 -0.9375 -2.1875 -0.9375 0 0 Z " fill="#706981" transform="translate(112.1875,243.9375)"/>
<path d="M0 0 C1.32 0 2.64 0 4 0 C4 4.29 4 8.58 4 13 C2.68 13 1.36 13 0 13 C0 8.71 0 4.42 0 0 Z " fill="#F98447" transform="translate(230,39)"/>
<path d="M0 0 C1.32 0 2.64 0 4 0 C4 4.29 4 8.58 4 13 C2.68 13 1.36 13 0 13 C0 8.71 0 4.42 0 0 Z " fill="#F98447" transform="translate(132,39)"/>
<path d="M0 0 C-0.66 0.66 -1.32 1.32 -2 2 C-1.34 2.33 -0.68 2.66 0 3 C-0.33 4.32 -0.66 5.64 -1 7 C-2.32 7.33 -3.64 7.66 -5 8 C-5 7.34 -5 6.68 -5 6 C-5.99 6 -6.98 6 -8 6 C-8.33 5.01 -8.66 4.02 -9 3 C-9.99 3.33 -10.98 3.66 -12 4 C-12 3.34 -12 2.68 -12 2 C-7.82262526 0.40861915 -4.46839215 -0.21278058 0 0 Z " fill="#565658" transform="translate(87,28)"/>
<path d="M0 0 C0.33 0 0.66 0 1 0 C1 3.3 1 6.6 1 10 C-0.65 10 -2.3 10 -4 10 C-4.66 9.34 -5.32 8.68 -6 8 C-5.625 5.375 -5.625 5.375 -5 3 C-4.360625 2.87625 -3.72125 2.7525 -3.0625 2.625 C-2.0415625 2.315625 -2.0415625 2.315625 -1 2 C-0.67 1.34 -0.34 0.68 0 0 Z " fill="#95919F" transform="translate(141,241)"/>
<path d="M0 0 C2.64 0 5.28 0 8 0 C6.92598892 2.91517292 6.22189824 4.77810176 4 7 C5.32 7.33 6.64 7.66 8 8 C8 8.66 8 9.32 8 10 C5.36 10 2.72 10 0 10 C0.59927826 6.64404172 1.84622436 4.62198774 4 2 C2.68 2 1.36 2 0 2 C0 1.34 0 0.68 0 0 Z " fill="#FEF3ED" transform="translate(658,354)"/>
<path d="M0 0 C2.125 0.375 2.125 0.375 4 1 C4 3.31 4 5.62 4 8 C2.34385343 8.38218767 0.67542976 8.71395102 -1 9 C-2 8 -2 8 -2.1875 5.0625 C-2 2 -2 2 0 0 Z " fill="#DDE4E3" transform="translate(604,496)"/>
<path d="M0 0 C2.33294775 -0.04241723 4.66702567 -0.04092937 7 0 C8 1 8 1 8.09765625 3.06640625 C8.08605469 3.89011719 8.07445312 4.71382813 8.0625 5.5625 C8.05347656 6.38878906 8.04445313 7.21507812 8.03515625 8.06640625 C8.02355469 8.70449219 8.01195312 9.34257812 8 10 C7.34 10 6.68 10 6 10 C5.67 7.69 5.34 5.38 5 3 C4.34 3 3.68 3 3 3 C2.67 5.31 2.34 7.62 2 10 C1.34 10 0.68 10 0 10 C0 6.7 0 3.4 0 0 Z " fill="#FEF5F2" transform="translate(622,354)"/>
<path d="M0 0 C2.125 0.375 2.125 0.375 4 1 C4 3.31 4 5.62 4 8 C2.34385343 8.38218767 0.67542976 8.71395102 -1 9 C-2 8 -2 8 -2.1875 5.0625 C-2 2 -2 2 0 0 Z " fill="#E2EDEF" transform="translate(679,184)"/>
<path d="M0 0 C0.61875 0.28875 1.2375 0.5775 1.875 0.875 C6.15866124 2.41711805 10.52928212 3.18398547 15 4 C12.56986275 6.85276981 12.15993802 6.98452213 8.125 7.375 C4.38480528 7.25078689 2.03100164 6.27325123 -1 4 C-0.01 3.67 0.98 3.34 2 3 C1.34 2.01 0.68 1.02 0 0 Z " fill="#434547" transform="translate(76,54)"/>
<path d="M0 0 C3.25696479 0.41755959 4.63443291 0.63443291 7 3 C7 4.32 7 5.64 7 7 C4.03 6.67 1.06 6.34 -2 6 C-1.125 1.125 -1.125 1.125 0 0 Z " fill="#FA9766" transform="translate(198,39)"/>
<path d="M0 0 C3.69230769 0.69230769 3.69230769 0.69230769 5 2 C4.71269945 4.33944736 4.38063221 6.6739143 4 9 C2.35 8.67 0.7 8.34 -1 8 C-1.04241723 5.66705225 -1.04092937 3.33297433 -1 1 C-0.67 0.67 -0.34 0.34 0 0 Z " fill="#E5E4DC" transform="translate(711,496)"/>
<path d="M0 0 C3.53571429 0.53571429 3.53571429 0.53571429 5 2 C5.125 4.5 5.125 4.5 5 7 C4 8 4 8 1.4375 8.0625 C0.633125 8.041875 -0.17125 8.02125 -1 8 C-1.625 5.125 -1.625 5.125 -2 2 C-1.34 1.34 -0.68 0.68 0 0 Z " fill="#FCB585" transform="translate(133,279)"/>
<path d="M0 0 C3.53571429 0.53571429 3.53571429 0.53571429 5 2 C5.125 4.5 5.125 4.5 5 7 C4 8 4 8 1.4375 8.0625 C0.633125 8.041875 -0.17125 8.02125 -1 8 C-1.625 5.125 -1.625 5.125 -2 2 C-1.34 1.34 -0.68 0.68 0 0 Z " fill="#9397A7" transform="translate(236,279)"/>
<path d="M0 0 C2.125 0.375 2.125 0.375 4 1 C4 3.31 4 5.62 4 8 C2.35 8.33 0.7 8.66 -1 9 C-1.625 5.625 -1.625 5.625 -2 2 C-1.34 1.34 -0.68 0.68 0 0 Z " fill="#E7EDEC" transform="translate(790,184)"/>
<path d="M0 0 C0.99 0 1.98 0 3 0 C2.91253716 1.43861294 2.80434652 2.87597508 2.6875 4.3125 C2.62949219 5.11300781 2.57148437 5.91351563 2.51171875 6.73828125 C1.90564977 9.4170136 1.19801915 10.38258968 -1 12 C-4.1875 12.1875 -4.1875 12.1875 -7 12 C-6.21625 11.319375 -5.4325 10.63875 -4.625 9.9375 C-1.54149479 6.48691084 -0.95642485 4.43433338 0 0 Z " fill="#4C5050" transform="translate(91,41)"/>
<path d="M0 0 C0.99 0.495 0.99 0.495 2 1 C2.33 1.99 2.66 2.98 3 4 C3.99 2.68 4.98 1.36 6 0 C6.66 1.32 7.32 2.64 8 4 C8.99 2.68 9.98 1.36 11 0 C10.125 6.75 10.125 6.75 9 9 C8.34 9 7.68 9 7 9 C6.67 7.68 6.34 6.36 6 5 C5.34 6.32 4.68 7.64 4 9 C3.34 9 2.68 9 2 9 C1.34 6.03 0.68 3.06 0 0 Z " fill="#7B7F94" transform="translate(1119,41)"/>
<path d="M0 0 C0.33 0.99 0.66 1.98 1 3 C2.65 3 4.3 3 6 3 C6 3.33 6 3.66 6 4 C4.35 4 2.7 4 1 4 C1.99 5.485 1.99 5.485 3 7 C4.65 6.67 6.3 6.34 8 6 C8.33 6.99 8.66 7.98 9 9 C6.20129973 10.39935013 4.09501208 10.25265405 1 10 C-0.875 8.8125 -0.875 8.8125 -2 7 C-2.3125 4.4375 -2.3125 4.4375 -2 2 C-1.34 1.34 -0.68 0.68 0 0 Z " fill="#F97620" transform="translate(172,42)"/>
<path d="M0 0 C3.69230769 0.69230769 3.69230769 0.69230769 5 2 C5.04063832 3.66617115 5.042721 5.33388095 5 7 C2.625 7.625 2.625 7.625 0 8 C-0.66 7.34 -1.32 6.68 -2 6 C-1.44444444 1.44444444 -1.44444444 1.44444444 0 0 Z " fill="#B2B3B7" transform="translate(260,279)"/>
<path d="M0 0 C2.125 0.375 2.125 0.375 4 1 C4.625 3.375 4.625 3.375 5 6 C4.34 6.66 3.68 7.32 3 8 C0.375 7.625 0.375 7.625 -2 7 C-2.125 4.625 -2.125 4.625 -2 2 C-1.34 1.34 -0.68 0.68 0 0 Z " fill="#69667E" transform="translate(121,243)"/>
<path d="M0 0 C0.598125 0.20625 1.19625 0.4125 1.8125 0.625 C2.1425 1.945 2.4725 3.265 2.8125 4.625 C0.8325 4.625 -1.1475 4.625 -3.1875 4.625 C-2.8575 5.285 -2.5275 5.945 -2.1875 6.625 C-0.5375 6.625 1.1125 6.625 2.8125 6.625 C2.4825 7.285 2.1525 7.945 1.8125 8.625 C-0.5625 8.75 -0.5625 8.75 -3.1875 8.625 C-5.1875 6.625 -5.1875 6.625 -5.5 4.125 C-5.396875 3.3 -5.29375 2.475 -5.1875 1.625 C-2.1875 -0.375 -2.1875 -0.375 0 0 Z " fill="#919298" transform="translate(1077.1875,41.375)"/>
<path d="M0 0 C2.125 0.375 2.125 0.375 4 1 C5.125 5.75 5.125 5.75 4 8 C2.33388095 8.042721 0.66617115 8.04063832 -1 8 C-2 7 -2 7 -2.1875 4.5625 C-2 2 -2 2 0 0 Z " fill="#FBA97D" transform="translate(158,279)"/>
<path d="M0 0 C0 1.98 0 3.96 0 6 C-1.65614657 6.38218767 -3.32457024 6.71395102 -5 7 C-6 6 -6 6 -6.0625 2.9375 C-6.041875 1.968125 -6.02125 0.99875 -6 0 C-3.50907189 -1.24546405 -2.58919267 -0.7767578 0 0 Z " fill="#FB9952" transform="translate(146,280)"/>
<path d="M0 0 C3.35620271 1.38877354 5.07298728 2.91677965 7 6 C7 6.66 7 7.32 7 8 C6.34 8 5.68 8 5 8 C5 9.98 5 11.96 5 14 C4.34 13.34 3.68 12.68 3 12 C2.67 12.66 2.34 13.32 2 14 C1.34 13.67 0.68 13.34 0 13 C0.33 12.01 0.66 11.02 1 10 C1.66 10 2.32 10 3 10 C2.67 9.01 2.34 8.02 2 7 C2.66 7 3.32 7 4 7 C1.9927092 3.9890638 1.16115776 3.36983503 -2 2 C-1.34 2 -0.68 2 0 2 C0 1.34 0 0.68 0 0 Z " fill="#39414A" transform="translate(86,33)"/>
<path d="M0 0 C2.625 0.375 2.625 0.375 5 1 C5 2.32 5 3.64 5 5 C3.02 5 1.04 5 -1 5 C-0.67 5.66 -0.34 6.32 0 7 C1.65 7 3.3 7 5 7 C4.67 7.66 4.34 8.32 4 9 C2.33388095 9.042721 0.66617115 9.04063832 -1 9 C-2 8 -2 8 -2.1875 5.0625 C-2 2 -2 2 0 0 Z " fill="#8B8C95" transform="translate(1265,41)"/>
<path d="M0 0 C2.625 0.375 2.625 0.375 5 1 C5 2.32 5 3.64 5 5 C3.02 5 1.04 5 -1 5 C-0.67 5.66 -0.34 6.32 0 7 C1.65 7 3.3 7 5 7 C4.67 7.66 4.34 8.32 4 9 C2.33388095 9.042721 0.66617115 9.04063832 -1 9 C-2 8 -2 8 -2.1875 5.0625 C-2 2 -2 2 0 0 Z " fill="#8B8C95" transform="translate(1226,41)"/>
<path d="M0 0 C0.66 0 1.32 0 2 0 C2.33 1.65 2.66 3.3 3 5 C4.32 4.34 5.64 3.68 7 3 C6.62875 3.7425 6.2575 4.485 5.875 5.25 C4.70484137 7.94283647 4.70484137 7.94283647 5.875 10.3125 C6.431875 11.1478125 6.431875 11.1478125 7 12 C6.34 12 5.68 12 5 12 C4.34 11.01 3.68 10.02 3 9 C2.67 9.99 2.34 10.98 2 12 C1.34 12 0.68 12 0 12 C0 8.04 0 4.08 0 0 Z " fill="#7E7F96" transform="translate(1182,38)"/>
<path d="M0 0 C2 3 2 3 2 6 C1.01 6 0.02 6 -1 6 C-1 5.01 -1 4.02 -1 3 C-2.98 3 -4.96 3 -7 3 C-7 3.99 -7 4.98 -7 6 C-7.99 6 -8.98 6 -10 6 C-9.625 3.5625 -9.625 3.5625 -9 1 C-5.95699684 -0.52150158 -3.345915 -0.23899393 0 0 Z " fill="#FEF0E9" transform="translate(618,358)"/>
<path d="M0 0 C2.125 0.375 2.125 0.375 4 1 C4.33 2.32 4.66 3.64 5 5 C4.01 5.495 4.01 5.495 3 6 C3.66 6.33 4.32 6.66 5 7 C4 8 4 8 1.4375 8.0625 C0.633125 8.041875 -0.17125 8.02125 -1 8 C-1.625 5.125 -1.625 5.125 -2 2 C-1.34 1.34 -0.68 0.68 0 0 Z " fill="#FBA775" transform="translate(185,279)"/>
<path d="M0 0 C0.99 0 1.98 0 3 0 C3 4.29 3 8.58 3 13 C2.01 13 1.02 13 0 13 C0 8.71 0 4.42 0 0 Z " fill="#FEECD7" transform="translate(683,351)"/>
<path d="M0 0 C2.31 0 4.62 0 7 0 C7 0.66 7 1.32 7 2 C5.35 2 3.7 2 2 2 C2 3.32 2 4.64 2 6 C3.65 6 5.3 6 7 6 C7 6.33 7 6.66 7 7 C5.35 7 3.7 7 2 7 C2 8.65 2 10.3 2 12 C1.34 12 0.68 12 0 12 C0 8.04 0 4.08 0 0 Z " fill="#898887" transform="translate(1215,38)"/>
<path d="M0 0 C1.67542976 0.28604898 3.34385343 0.61781233 5 1 C5 3.31 5 5.62 5 8 C3.02 8 1.04 8 -1 8 C-1 6.68 -1 5.36 -1 4 C-0.01 3.67 0.98 3.34 2 3 C1.01 2.34 0.02 1.68 -1 1 C-0.67 0.67 -0.34 0.34 0 0 Z " fill="#808294" transform="translate(129,243)"/>
<path d="M0 0 C1.67542976 0.28604898 3.34385343 0.61781233 5 1 C5 3.31 5 5.62 5 8 C3.02 8 1.04 8 -1 8 C-1 6.68 -1 5.36 -1 4 C-0.01 3.67 0.98 3.34 2 3 C1.01 2.34 0.02 1.68 -1 1 C-0.67 0.67 -0.34 0.34 0 0 Z " fill="#847E90" transform="translate(185,243)"/>
<path d="M0 0 C1.67542976 0.28604898 3.34385343 0.61781233 5 1 C5 3.31 5 5.62 5 8 C3.02 8 1.04 8 -1 8 C-1 6.68 -1 5.36 -1 4 C-0.01 3.67 0.98 3.34 2 3 C1.01 2.34 0.02 1.68 -1 1 C-0.67 0.67 -0.34 0.34 0 0 Z " fill="#847E90" transform="translate(149,243)"/>
<path d="M0 0 C2.97 0.495 2.97 0.495 6 1 C6 2.65 6 4.3 6 6 C4.02 6.33 2.04 6.66 0 7 C0 4.69 0 2.38 0 0 Z " fill="#FDDFDE" transform="translate(120,37)"/>
<path d="M0 0 C1.2375 0.1546875 1.2375 0.1546875 2.5 0.3125 C3.16 1.3025 3.82 2.2925 4.5 3.3125 C1.53 2.8175 1.53 2.8175 -1.5 2.3125 C-1.5 3.9625 -1.5 5.6125 -1.5 7.3125 C0.48 7.3125 2.46 7.3125 4.5 7.3125 C3.51 8.7975 3.51 8.7975 2.5 10.3125 C0 10.6875 0 10.6875 -2.5 10.3125 C-4.64915785 7.08876323 -4.88286803 6.04546326 -4.5 2.3125 C-2.5 0.3125 -2.5 0.3125 0 0 Z " fill="#FB9C59" transform="translate(116.5,276.6875)"/>
<path d="M0 0 C2.39763185 2.39763185 2.34280586 3.33273498 2.625 6.625 C2.69976562 7.44226562 2.77453125 8.25953125 2.8515625 9.1015625 C2.92503906 10.04128906 2.92503906 10.04128906 3 11 C2.34 11 1.68 11 1 11 C0.67 11.66 0.34 12.32 0 13 C0 12.01 0 11.02 0 10 C-0.66 10 -1.32 10 -2 10 C-2 7.69 -2 5.38 -2 3 C-1.34 3 -0.68 3 0 3 C0 2.01 0 1.02 0 0 Z " fill="#FDF4F1" transform="translate(191,39)"/>
<path d="M0 0 C1.99954746 -0.04254356 4.00041636 -0.04080783 6 0 C7 1 7 1 7.09765625 3.06640625 C7.08605469 3.89011719 7.07445312 4.71382813 7.0625 5.5625 C7.05347656 6.38878906 7.04445313 7.21507812 7.03515625 8.06640625 C7.02355469 8.70449219 7.01195312 9.34257812 7 10 C6.01 9.67 5.02 9.34 4 9 C4 6.69 4 4.38 4 2 C2.35 2.33 0.7 2.66 -1 3 C-0.67 2.01 -0.34 1.02 0 0 Z " fill="#FEF4E8" transform="translate(705,354)"/>
<path d="M0 0 C0 1.32 0 2.64 0 4 C-1.32 4.33 -2.64 4.66 -4 5 C-2.68 5 -1.36 5 0 5 C0 5.66 0 6.32 0 7 C-1.66611905 7.042721 -3.33382885 7.04063832 -5 7 C-6 6 -6 6 -6.0625 2.9375 C-6.041875 1.968125 -6.02125 0.99875 -6 0 C-3.50907189 -1.24546405 -2.58919267 -0.7767578 0 0 Z " fill="#9FA4AC" transform="translate(309,280)"/>
<path d="M0 0 C0.66 0 1.32 0 2 0 C2.33 1.65 2.66 3.3 3 5 C3.99 5 4.98 5 6 5 C6.33 3.35 6.66 1.7 7 0 C7.33 0 7.66 0 8 0 C8 2.97 8 5.94 8 9 C1.125 7.125 1.125 7.125 0 6 C-0.04080783 4.00041636 -0.04254356 1.99954746 0 0 Z " fill="#FEF5F6" transform="translate(714,356)"/>
<path d="M0 0 C1.98 0 3.96 0 6 0 C4.68 0.33 3.36 0.66 2 1 C2 1.99 2 2.98 2 4 C3.32 4 4.64 4 6 4 C6 4.66 6 5.32 6 6 C4.68 6 3.36 6 2 6 C2 7.32 2 8.64 2 10 C1.34 10 0.68 10 0 10 C0 6.7 0 3.4 0 0 Z " fill="#FB9861" transform="translate(168,277)"/>
<path d="M0 0 C0.66 0 1.32 0 2 0 C2.99 2.31 3.98 4.62 5 7 C5.66 6.34 6.32 5.68 7 5 C6.67 7.31 6.34 9.62 6 12 C4.68 11.67 3.36 11.34 2 11 C1.34 7.37 0.68 3.74 0 0 Z " fill="#918D95" transform="translate(1150,38)"/>
<path d="M0 0 C0.33 0 0.66 0 1 0 C1.33 2.31 1.66 4.62 2 7 C2.66 7 3.32 7 4 7 C4.33 4.69 4.66 2.38 5 0 C5.66 0 6.32 0 7 0 C7 2.97 7 5.94 7 9 C5.00045254 9.04254356 2.99958364 9.04080783 1 9 C0 8 0 8 -0.09765625 6.15234375 C-0.06510417 4.1015625 -0.03255208 2.05078125 0 0 Z " fill="#77828D" transform="translate(1248,41)"/>
<path d="M0 0 C0 0.66 0 1.32 0 2 C-0.86625 2.2784375 -0.86625 2.2784375 -1.75 2.5625 C-5.10427843 4.70551122 -6.17907996 7.48822563 -8 11 C-8.33 11 -8.66 11 -9 11 C-8.70673279 7.18752628 -8.49869932 4.6706646 -6.1875 1.5625 C-4 0 -4 0 0 0 Z " fill="#818181" transform="translate(82,34)"/>
<path d="M0 0 C3.87132028 0.57352893 6.08172796 2.48704352 9 5 C8.67 6.32 8.34 7.64 8 9 C2.125 5.25 2.125 5.25 1 3 C1.33 2.34 1.66 1.68 2 1 C1.34 0.67 0.68 0.34 0 0 Z " fill="#3D3D40" transform="translate(88,29)"/>
<path d="M0 0 C0.33 0.99 0.66 1.98 1 3 C1.9590625 2.7215625 1.9590625 2.7215625 2.9375 2.4375 C3.618125 2.293125 4.29875 2.14875 5 2 C6 3 6 3 6.0625 6.5625 C6.041875 7.696875 6.02125 8.83125 6 10 C5.34 10 4.68 10 4 10 C4 8.02 4 6.04 4 4 C3.01 4.495 3.01 4.495 2 5 C1.34444881 7.52733235 1.34444881 7.52733235 1 10 C0.67 10 0.34 10 0 10 C0 6.7 0 3.4 0 0 Z " fill="#FB9F58" transform="translate(123,277)"/>
<path d="M0 0 C0.33 0 0.66 0 1 0 C0.76378859 6.02339107 0.76378859 6.02339107 -1.26171875 8.61328125 C-2.8125 10 -2.8125 10 -6 12 C-8.375 11.8125 -8.375 11.8125 -10 11 C-9.071875 10.4225 -8.14375 9.845 -7.1875 9.25 C-3.28302311 6.49389866 -1.5017579 4.50527371 0 0 Z " fill="#888789" transform="translate(96,45)"/>
<path d="M0 0 C2.97 0 5.94 0 9 0 C8.67 1.32 8.34 2.64 8 4 C5.33579484 4 3.47739354 3.90837763 1 3 C0.67 2.01 0.34 1.02 0 0 Z " fill="#FCD9D5" transform="translate(173,46)"/>
<path d="M0 0 C2.76223278 2.76223278 2.57856291 5.20706617 3 9 C1.35 9 -0.3 9 -2 9 C-1.34 6.03 -0.68 3.06 0 0 Z " fill="#CECABA" transform="translate(535,180)"/>
<path d="M0 0 C1.32 0 2.64 0 4 0 C4 1.65 4 3.3 4 5 C2.68 5.33 1.36 5.66 0 6 C-0.38218767 4.34385343 -0.71395102 2.67542976 -1 1 C-0.67 0.67 -0.34 0.34 0 0 Z " fill="#ECF4F1" transform="translate(1112,43)"/>
<path d="M0 0 C1.98 0.495 1.98 0.495 4 1 C3.67 2.65 3.34 4.3 3 6 C1.68 5.67 0.36 5.34 -1 5 C-0.67 3.35 -0.34 1.7 0 0 Z " fill="#FB9E4F" transform="translate(717,356)"/>
<path d="M0 0 C2.375 -0.125 2.375 -0.125 5 0 C7 2 7 2 7 5 C5.02 5 3.04 5 1 5 C1.99 4.34 2.98 3.68 4 3 C2.35 3.33 0.7 3.66 -1 4 C-0.67 2.68 -0.34 1.36 0 0 Z " fill="#FEF7EE" transform="translate(727,354)"/>
<path d="M0 0 C2.97 0 5.94 0 9 0 C8.67 1.32 8.34 2.64 8 4 C2.25 4.125 2.25 4.125 0 3 C0 2.01 0 1.02 0 0 Z " fill="#FBD1CF" transform="translate(196,46)"/>
<path d="M0 0 C1.5 1.375 1.5 1.375 3 3 C3 3.66 3 4.32 3 5 C4.98 4.67 6.96 4.34 9 4 C8.67 4.99 8.34 5.98 8 7 C5.125 7.1875 5.125 7.1875 2 7 C0 4 0 4 0 0 Z " fill="#FDECE6" transform="translate(667,357)"/>
<path d="M0 0 C0.66 0.33 1.32 0.66 2 1 C1.67 1.99 1.34 2.98 1 4 C0.64456573 6.33006911 0.3086247 8.66327016 0 11 C-0.66 11 -1.32 11 -2 11 C-2.96891192 5.62694301 -2.96891192 5.62694301 -3 3 C-1.5625 1 -1.5625 1 0 0 Z " fill="#A4A7A9" transform="translate(249,276)"/>
<path d="M0 0 C0 0.99 0 1.98 0 3 C-2.43338652 4.53508028 -3.67124507 5.03088304 -6.578125 4.7578125 C-7.90070313 4.44457031 -7.90070313 4.44457031 -9.25 4.125 C-10.14203125 3.92132813 -11.0340625 3.71765625 -11.953125 3.5078125 C-12.62859375 3.34023438 -13.3040625 3.17265625 -14 3 C-14 2.67 -14 2.34 -14 2 C-13.07767578 2.03480469 -13.07767578 2.03480469 -12.13671875 2.0703125 C-10.92435547 2.09738281 -10.92435547 2.09738281 -9.6875 2.125 C-8.48673828 2.15980469 -8.48673828 2.15980469 -7.26171875 2.1953125 C-4.30148751 1.9396794 -2.94679265 0 0 0 Z " fill="#515454" transform="translate(95,54)"/>
<path d="M0 0 C0.33 1.32 0.66 2.64 1 4 C-0.32 4 -1.64 4 -3 4 C-3.33 4.99 -3.66 5.98 -4 7 C-5.32 6.67 -6.64 6.34 -8 6 C-8 5.01 -8 4.02 -8 3 C-5.36 3 -2.72 3 0 3 C0 2.01 0 1.02 0 0 Z " fill="#FBD4D6" transform="translate(262,43)"/>
<path d="M0 0 C1.32 0.66 2.64 1.32 4 2 C3.67 3.65 3.34 5.3 3 7 C2.01 7 1.02 7 0 7 C-0.38133299 5.0085944 -0.71325582 3.00720923 -1 1 C-0.67 0.67 -0.34 0.34 0 0 Z " fill="#4AADB8" transform="translate(82,39)"/>
<path d="M0 0 C0.66 0.33 1.32 0.66 2 1 C1.690625 1.721875 1.38125 2.44375 1.0625 3.1875 C0.07439461 5.80307309 -0.5287754 8.25118982 -1 11 C-1.66 10.67 -2.32 10.34 -3 10 C-3.29296875 3.9453125 -3.29296875 3.9453125 -3 2 C-2.01 1.34 -1.02 0.68 0 0 Z " fill="#1A2126" transform="translate(79,38)"/>
<path d="M0 0 C1.98 0 3.96 0 6 0 C6.33 1.32 6.66 2.64 7 4 C5.02 4 3.04 4 1 4 C0.67 2.68 0.34 1.36 0 0 Z " fill="#FDD5B7" transform="translate(632,360)"/>
<path d="M0 0 C0.33 0.66 0.66 1.32 1 2 C-0.43257963 4.72872311 -1.81722366 6.81722366 -4 9 C-6.125 8.625 -6.125 8.625 -8 8 C-6.50260417 6.79557292 -5.00520833 5.59114583 -3.5078125 4.38671875 C-1.74707893 2.87729455 -1.74707893 2.87729455 0 0 Z " fill="#747B78" transform="translate(92,44)"/>
<path d="M0 0 C1.65 0 3.3 0 5 0 C5 0.66 5 1.32 5 2 C4.01 2 3.02 2 2 2 C2 4.31 2 6.62 2 9 C1.34 9 0.68 9 0 9 C0 6.03 0 3.06 0 0 Z " fill="#7F8996" transform="translate(1257,41)"/>
<path d="M0 0 C1.32 0 2.64 0 4 0 C4 1.65 4 3.3 4 5 C2.68 5 1.36 5 0 5 C0 3.35 0 1.7 0 0 Z " fill="#FDFCF6" transform="translate(1168,43)"/>
<path d="M0 0 C1.32 0 2.64 0 4 0 C4 1.65 4 3.3 4 5 C2.68 5 1.36 5 0 5 C0 3.35 0 1.7 0 0 Z " fill="#FDFCF6" transform="translate(1051,43)"/>
<path d="M0 0 C0.66 0.66 1.32 1.32 2 2 C5.08347826 2.16681109 5.08347826 2.16681109 8 2 C7.67 2.99 7.34 3.98 7 5 C5.02 5 3.04 5 1 5 C0.67 3.35 0.34 1.7 0 0 Z " fill="#FEF0E0" transform="translate(726,359)"/>
<path d="M0 0 C0.33 1.32 0.66 2.64 1 4 C-1.3125 4.625 -1.3125 4.625 -4 5 C-4.99 4.34 -5.98 3.68 -7 3 C-4.69 2.01 -2.38 1.02 0 0 Z " fill="#E8EDED" transform="translate(793,195)"/>
<path d="M0 0 C1.98 0 3.96 0 6 0 C6 1.32 6 2.64 6 4 C3.03 3.505 3.03 3.505 0 3 C0 2.01 0 1.02 0 0 Z " fill="#2F3551" transform="translate(728,493)"/>
<path d="M0 0 C2.64 0 5.28 0 8 0 C8 0.99 8 1.98 8 3 C2.25 3.125 2.25 3.125 0 2 C0 1.34 0 0.68 0 0 Z " fill="#FEEADC" transform="translate(714,365)"/>
<path d="M0 0 C0.33 0 0.66 0 1 0 C1 1.65 1 3.3 1 5 C-0.98 5 -2.96 5 -5 5 C-5.33 4.01 -5.66 3.02 -6 2 C-4.02 2 -2.04 2 0 2 C0 1.34 0 0.68 0 0 Z " fill="#DEEDF5" transform="translate(1231,44)"/>
<path d="M0 0 C2.97 0.33 5.94 0.66 9 1 C7.515 2.485 7.515 2.485 6 4 C4.02 3.34 2.04 2.68 0 2 C0 1.34 0 0.68 0 0 Z " fill="#CDD6DB" transform="translate(759,496)"/>
<path d="M0 0 C1.32 0 2.64 0 4 0 C4 1.65 4 3.3 4 5 C2.68 4.67 1.36 4.34 0 4 C0 2.68 0 1.36 0 0 Z " fill="#EFF8F6" transform="translate(288,281)"/>
<path d="M0 0 C0.66 0.66 1.32 1.32 2 2 C0.25 3.5625 0.25 3.5625 -2 5 C-4.25 4.6875 -4.25 4.6875 -6 4 C-6 3.34 -6 2.68 -6 2 C-4.02 2 -2.04 2 0 2 C0 1.34 0 0.68 0 0 Z " fill="#DFEDF4" transform="translate(1270,44)"/>
<path d="M0 0 C0.66 0 1.32 0 2 0 C2.66 2.97 3.32 5.94 4 9 C3.34 9 2.68 9 2 9 C1 7 0 5 -1 3 C-0.67 2.01 -0.34 1.02 0 0 Z " fill="#83818E" transform="translate(1157,38)"/>
<path d="M0 0 C2.97 0.495 2.97 0.495 6 1 C6.33 2.98 6.66 4.96 7 7 C5 5.625 5 5.625 3 4 C3 3.34 3 2.68 3 2 C2.01 1.67 1.02 1.34 0 1 C0 0.67 0 0.34 0 0 Z " fill="#2C2B2F" transform="translate(84,29)"/>
<path d="M0 0 C1.65 0.33 3.3 0.66 5 1 C5 1.99 5 2.98 5 4 C3.35 3.67 1.7 3.34 0 3 C0 2.01 0 1.02 0 0 Z " fill="#CACFD1" transform="translate(758,502)"/>
<path d="M0 0 C1.98 0.495 1.98 0.495 4 1 C4 1.99 4 2.98 4 4 C2.35 4 0.7 4 -1 4 C-0.67 2.68 -0.34 1.36 0 0 Z " fill="#2E2939" transform="translate(649,486)"/>
<path d="M0 0 C1.32 0.33 2.64 0.66 4 1 C3.67 2.32 3.34 3.64 3 5 C2.01 5 1.02 5 0 5 C0 3.35 0 1.7 0 0 Z " fill="#FAF5EC" transform="translate(236,281)"/>
<path d="M0 0 C1.32 0 2.64 0 4 0 C3.67 1.65 3.34 3.3 3 5 C2.01 4.67 1.02 4.34 0 4 C0 2.68 0 1.36 0 0 Z " fill="#FDDFD4" transform="translate(141,281)"/>
<path d="M0 0 C0.99 0 1.98 0 3 0 C3 1.65 3 3.3 3 5 C1.68 4.67 0.36 4.34 -1 4 C-0.67 2.68 -0.34 1.36 0 0 Z " fill="#E9EEEE" transform="translate(121,245)"/>
<path d="M0 0 C0.99 0 1.98 0 3 0 C3 1.65 3 3.3 3 5 C1.68 4.67 0.36 4.34 -1 4 C-0.67 2.68 -0.34 1.36 0 0 Z " fill="#E2EBED" transform="translate(109,245)"/>
<path d="M0 0 C1.32 0 2.64 0 4 0 C3.67 1.32 3.34 2.64 3 4 C1.68 4 0.36 4 -1 4 C-0.67 2.68 -0.34 1.36 0 0 Z " fill="#DEE9EA" transform="translate(771,190)"/>
<path d="M0 0 C1.32 0 2.64 0 4 0 C3.67 1.32 3.34 2.64 3 4 C1.68 4 0.36 4 -1 4 C-0.67 2.68 -0.34 1.36 0 0 Z " fill="#DEE9EA" transform="translate(573,190)"/>
<path d="M0 0 C-0.66 1.32 -1.32 2.64 -2 4 C-3.65 4 -5.3 4 -7 4 C-7 3.34 -7 2.68 -7 2 C-4.35261084 0.5393715 -3.10551666 0 0 0 Z " fill="#F97B32" transform="translate(262,48)"/>
<path d="M0 0 C0.66 0.33 1.32 0.66 2 1 C1.42655063 3.86724686 1.1385485 4.8614515 -1 7 C-1.99 6.67 -2.98 6.34 -4 6 C-3.34 5.01 -2.68 4.02 -2 3 C-1.34 3 -0.68 3 0 3 C0 2.01 0 1.02 0 0 Z " fill="#22282F" transform="translate(88,44)"/>
<path d="M0 0 C2 1 2 1 4 4 C4.125 6.6875 4.125 6.6875 4 9 C3.34 9 2.68 9 2 9 C1.34 6.03 0.68 3.06 0 0 Z " fill="#89858F" transform="translate(1119,41)"/>
<path d="M0 0 C0.33 1.32 0.66 2.64 1 4 C-1.97 3.505 -1.97 3.505 -5 3 C-5 2.34 -5 1.68 -5 1 C-3 0 -3 0 0 0 Z " fill="#C7C1B9" transform="translate(1238,41)"/>
<path d="M0 0 C2.97 0.495 2.97 0.495 6 1 C6.33 2.32 6.66 3.64 7 5 C6.34 5 5.68 5 5 5 C4.67 5.66 4.34 6.32 4 7 C3.566875 5.824375 3.566875 5.824375 3.125 4.625 C2.15087746 1.90328368 2.15087746 1.90328368 0 0 Z " fill="#31707C" transform="translate(82,38)"/>
<path d="M0 0 C2.31 0.33 4.62 0.66 7 1 C6.67 1.99 6.34 2.98 6 4 C4.02 3.34 2.04 2.68 0 2 C0 1.34 0 0.68 0 0 Z " fill="#D9DFE1" transform="translate(618,184)"/>
<path d="M0 0 C2.475 0.99 2.475 0.99 5 2 C5 2.66 5 3.32 5 4 C3.02 4 1.04 4 -1 4 C-1 1 -1 1 0 0 Z " fill="#F8F5EB" transform="translate(1272,45)"/>
<path d="M0 0 C0.66 0 1.32 0 2 0 C2 2.64 2 5.28 2 8 C1.34 7.67 0.68 7.34 0 7 C-0.6875 4 -0.6875 4 -1 1 C-0.67 0.67 -0.34 0.34 0 0 Z " fill="#343436" transform="translate(71,39)"/>
<path d="M0 0 C0.99 0.33 1.98 0.66 3 1 C3 2.65 3 4.3 3 6 C2.01 6 1.02 6 0 6 C0 4.02 0 2.04 0 0 Z " fill="#F97725" transform="translate(259,40)"/>
</svg>
