<?xml version="1.0" encoding="UTF-8"?>
<svg version="1.1" xmlns="http://www.w3.org/2000/svg" width="1344" height="607">
<path d="M0 0 C443.52 0 887.04 0 1344 0 C1344 200.31 1344 400.62 1344 607 C900.48 607 456.96 607 0 607 C0 406.69 0 206.38 0 0 Z " fill="#FEFEFE" transform="translate(0,0)"/>
<path d="M0 0 C1.20947579 -0.00779995 2.41895159 -0.01559991 3.66507816 -0.02363622 C7.01948882 -0.04013422 10.37250045 -0.03419214 13.72682619 -0.01870513 C17.34518539 -0.00739871 20.96342175 -0.02485074 24.58175659 -0.03860474 C31.66885672 -0.06084941 38.75569223 -0.05603059 45.84280276 -0.04154153 C51.60210261 -0.03025408 57.36132825 -0.02871624 63.12063599 -0.03416061 C63.94002185 -0.03492678 64.75940771 -0.03569294 65.60362345 -0.03648233 C67.26813915 -0.03808094 68.93265482 -0.039702 70.59717047 -0.04134528 C86.20897038 -0.05560638 101.82062355 -0.03920444 117.43239939 -0.01234345 C130.83090161 0.00999568 144.22918724 0.00611566 157.62768555 -0.01693726 C173.18323426 -0.04368893 188.73865433 -0.05423305 204.29422283 -0.03887594 C205.95264878 -0.03728318 207.61107475 -0.03571132 209.26950073 -0.03416061 C210.08549887 -0.03338924 210.90149701 -0.03261786 211.74222237 -0.03182311 C217.49526337 -0.0275042 223.24822284 -0.03479675 229.00125122 -0.04655838 C236.01140006 -0.06057493 243.02126894 -0.05680148 250.03138566 -0.03015466 C253.6088173 -0.01700478 257.18578201 -0.01188334 260.7632103 -0.02840042 C264.63911706 -0.04602507 268.51425758 -0.02499568 272.39013672 0 C274.09075555 -0.01673041 274.09075555 -0.01673041 275.82573032 -0.03379881 C280.41784021 0.02388693 283.37069798 0.16091132 287.39529705 2.47502613 C290.09737622 7.21911697 289.86943972 11.45384491 289.79634094 16.82810974 C289.80062103 17.96893509 289.80490112 19.10976044 289.80931091 20.28515625 C289.81614666 23.45396371 289.80046962 26.62174998 289.77543201 29.79043676 C289.75359912 33.25895487 289.760905 36.72743398 289.7645216 40.19600201 C289.76718008 46.92919013 289.74409229 53.66204488 289.71201495 60.39514733 C289.67602191 68.18323379 289.67204166 75.97111987 289.66809082 83.75930786 C289.64183657 104.32206417 289.57203101 124.88474619 289.50756836 145.44741821 C289.40444336 191.37929321 289.30131836 237.31116821 289.19506836 284.63491821 C188.21506836 284.63491821 87.23506836 284.63491821 -16.80493164 284.63491821 C-16.90805664 238.70304321 -17.01118164 192.77116821 -17.11743164 145.44741821 C-17.16295166 130.92717651 -17.20847168 116.40693481 -17.25537109 101.44668579 C-17.2779541 83.75930786 -17.2779541 83.75930786 -17.28215027 75.48750305 C-17.28682156 69.69178684 -17.30519826 63.89631037 -17.33280945 58.10066223 C-17.36459018 51.41996613 -17.37912228 44.73950074 -17.37215639 38.05872844 C-17.36913832 34.63960595 -17.37399159 31.2209994 -17.40100729 27.80197108 C-17.42575155 24.14359183 -17.41992965 20.48651678 -17.40620422 16.82810974 C-17.42076755 15.75740581 -17.43533087 14.68670187 -17.4503355 13.58355236 C-17.40539981 9.15005222 -17.22419514 6.37102697 -15.00516033 2.47502613 C-10.09767459 -0.34674201 -5.56967936 -0.0547936 0 0 Z " fill="#FDFDFD" transform="translate(1020.804931640625,322.3650817871094)"/>
<path d="M0 0 C1.27161484 0.00142502 2.54322968 0.00285004 3.8533783 0.00431824 C4.90479256 0.00147072 4.90479256 0.00147072 5.97744751 -0.00143433 C8.29940396 -0.0051457 10.62104916 0.0055661 12.94297791 0.01676941 C14.55198123 0.01796101 16.16098526 0.01841441 17.76998901 0.01815796 C21.1435328 0.01972339 24.51697055 0.02801827 27.89048767 0.04142761 C32.22415805 0.05843118 36.55771195 0.06224161 40.89141178 0.06148243 C44.21385824 0.06175376 47.53627902 0.06722878 50.85871696 0.07448387 C52.45718122 0.07767548 54.0556484 0.07963909 55.65411568 0.08037758 C57.8833479 0.0825352 60.11245418 0.09126634 62.34165955 0.10197449 C63.61247879 0.10578629 64.88329803 0.10959808 66.19262695 0.11352539 C69.03282166 0.24723816 69.03282166 0.24723816 70.03282166 1.24723816 C70.13060707 3.83964196 70.16276927 6.40538512 70.15307617 8.99822998 C70.1539306 9.81987843 70.15478502 10.64152688 70.15566534 11.48807377 C70.15732266 14.26271596 70.15179467 17.03729873 70.14634705 19.81193542 C70.1460652 21.7923533 70.14622285 23.77277128 70.14678955 25.75318909 C70.14707764 31.147595 70.14117914 36.54197889 70.13421559 41.93637967 C70.12798388 47.56717395 70.1273784 53.19796868 70.12619019 58.82876587 C70.12307633 69.49956841 70.11486221 80.17036076 70.1048407 90.84115881 C70.09368124 102.98605234 70.08816953 115.13094636 70.08314526 127.27584374 C70.07267964 152.2663155 70.05433349 177.25677329 70.03282166 202.24723816 C45.28282166 202.24723816 20.53282166 202.24723816 -4.96717834 202.24723816 C-5.0122761 176.20501693 -5.04913886 150.16282718 -5.07080269 124.12057686 C-5.08112767 112.02948232 -5.09521127 99.93841371 -5.11805725 87.84733582 C-5.1379538 77.31222577 -5.15088588 66.7771345 -5.15535533 56.24200618 C-5.15796906 50.6606081 -5.16413767 45.07926375 -5.17863846 39.49788284 C-5.19216344 34.24981586 -5.19641134 29.00182498 -5.19339371 23.75374222 C-5.19394616 21.82273445 -5.19795375 19.89172426 -5.20558929 17.96073151 C-5.2154711 15.33389951 -5.21317218 12.70735871 -5.20768738 10.08052063 C-5.21351306 9.30815665 -5.21933874 8.53579268 -5.22534096 7.74002373 C-5.18380661 0.43193723 -5.18380661 0.43193723 0 0 Z " fill="#84B74E" transform="translate(1106.9671783447266,404.7527618408203)"/>
<path d="M0 0 C1.58669495 -0.00472824 1.58669495 -0.00472824 3.20544434 -0.009552 C4.93196228 -0.00651566 4.93196228 -0.00651566 6.69335938 -0.00341797 C8.45226501 -0.00485306 8.45226501 -0.00485306 10.2467041 -0.00631714 C12.73169 -0.00699917 15.21667766 -0.00514331 17.70166016 -0.00097656 C21.52054825 0.00437134 25.33931872 -0.00092083 29.15820312 -0.00732422 C31.56575547 -0.00666344 33.97330774 -0.00538229 36.38085938 -0.00341797 C38.10737732 -0.00645432 38.10737732 -0.00645432 39.86877441 -0.009552 C40.92657104 -0.00639984 41.98436768 -0.00324768 43.07421875 0 C44.47867249 0.00119339 44.47867249 0.00119339 45.91149902 0.00241089 C48.03710938 0.12939453 48.03710938 0.12939453 49.03710938 1.12939453 C49.13489479 3.72179833 49.16705699 6.28754149 49.15736389 8.88038635 C49.15821832 9.7020348 49.15907274 10.52368325 49.15995306 11.37023014 C49.16161038 14.14487233 49.15608239 16.9194551 49.15063477 19.6940918 C49.15035292 21.67450967 49.15051057 23.65492765 49.15107727 25.63534546 C49.15136536 31.02975138 49.14546686 36.42413527 49.13850331 41.81853604 C49.1322716 47.44933032 49.13166612 53.08012505 49.13047791 58.71092224 C49.12736405 69.38172478 49.11914993 80.05251713 49.10912842 90.72331518 C49.09796896 102.86820872 49.09245725 115.01310273 49.08743298 127.15800011 C49.07696736 152.14847188 49.05862121 177.13892967 49.03710938 202.12939453 C30.88710938 202.12939453 12.73710938 202.12939453 -5.96289062 202.12939453 C-5.98543492 175.93951937 -6.0038682 149.74965202 -6.0147028 123.55976963 C-6.01986645 111.40027584 -6.02691045 99.24078849 -6.03833008 87.08129883 C-6.04827482 76.48723485 -6.05474355 65.89317553 -6.05697912 55.29910702 C-6.05828659 49.6859005 -6.06137469 44.07270733 -6.06862068 38.45950508 C-6.07537759 33.18272917 -6.07750826 27.90597218 -6.07599831 22.62919235 C-6.07627478 20.6864798 -6.07828185 18.74376665 -6.0820961 16.80105782 C-6.08702821 14.16081027 -6.08589071 11.52063537 -6.08314514 8.88038635 C-6.08605798 8.10121859 -6.08897082 7.32205082 -6.09197193 6.51927191 C-6.07491903 0.50547743 -5.961492 0.00506559 0 0 Z " fill="#84B74E" transform="translate(621.962890625,404.87060546875)"/>
<path d="M0 0 C0.79265574 -0.00467997 1.58531147 -0.00935994 2.40198708 -0.01418173 C5.06682529 -0.02617937 7.73115376 -0.01665605 10.39599609 -0.00723267 C12.30287985 -0.01129625 14.20976126 -0.01663693 16.11663818 -0.02316284 C21.30250545 -0.03686756 26.48819415 -0.03152478 31.67406464 -0.02202559 C37.09391267 -0.01444532 42.51374513 -0.02147004 47.93359375 -0.02618408 C57.03632358 -0.0316464 66.13898046 -0.02443752 75.24169922 -0.01016235 C85.77487598 0.00616505 96.30787856 0.00087688 106.8410511 -0.01564157 C115.87464454 -0.02924286 124.90818545 -0.03118274 133.94178581 -0.02332556 C139.34152966 -0.01864158 144.74119155 -0.01804408 150.14093018 -0.02793503 C155.2167402 -0.03658269 160.29232503 -0.03062313 165.36811066 -0.01325226 C167.23419063 -0.00927562 169.10028946 -0.01044147 170.966362 -0.01704025 C173.50745546 -0.02519952 176.04782054 -0.01500276 178.58886719 0 C179.33292627 -0.00669217 180.07698536 -0.01338433 180.84359169 -0.02027929 C183.74978351 0.0131606 185.79742024 0.04820207 188.25177002 1.69138145 C190.02489492 4.56461668 189.72053123 7.73187143 189.69287109 11.00595093 C189.69717636 12.12090942 189.69717636 12.12090942 189.7015686 13.25839233 C189.70360836 14.82854983 189.6980846 16.39873279 189.68554688 17.96884155 C189.66949062 20.37241425 189.68539711 22.77430554 189.70458984 25.17782593 C189.70260739 26.70387131 189.69876368 28.22991564 189.69287109 29.75595093 C189.69894379 30.4747644 189.70501648 31.19357788 189.71127319 31.93417358 C189.64243755 36.81703284 189.64243755 36.81703284 188.25177002 39.0705204 C185.22566803 41.09648608 182.10820695 40.79355526 178.58886719 40.76190186 C177.39988358 40.76892181 177.39988358 40.76892181 176.18688011 40.77608359 C173.5220419 40.78808122 170.85771343 40.77855791 168.19287109 40.76913452 C166.28598733 40.77319811 164.37910593 40.77853879 162.472229 40.7850647 C157.28636174 40.79876942 152.10067304 40.79342663 146.91480255 40.78392744 C141.49495451 40.77634717 136.07512206 40.7833719 130.65527344 40.78808594 C121.55254361 40.79354826 112.44988673 40.78633938 103.34716797 40.77206421 C92.8139912 40.75573681 82.28098863 40.76102498 71.74781609 40.77754343 C62.71422265 40.79114472 53.68068174 40.7930846 44.64708138 40.78522742 C39.24733753 40.78054343 33.84767563 40.77994594 28.44793701 40.78983688 C23.37212698 40.79848454 18.29654216 40.79252499 13.22075653 40.77515411 C11.35467656 40.77117748 9.48857773 40.77234332 7.62250519 40.77894211 C5.08141173 40.78710138 2.54104665 40.77690462 0 40.76190186 C-0.74405909 40.76859402 -1.48811817 40.77528619 -2.2547245 40.78218114 C-5.16091632 40.74874125 -7.20855306 40.71369979 -9.66290283 39.0705204 C-11.43602774 36.19728517 -11.13166404 33.03003043 -11.10400391 29.75595093 C-11.10687408 29.01264526 -11.10974426 28.2693396 -11.11270142 27.50350952 C-11.11474117 25.93335202 -11.10921741 24.36316907 -11.09667969 22.7930603 C-11.08062343 20.38948761 -11.09652993 17.98759632 -11.11572266 15.58407593 C-11.11374021 14.05803055 -11.10989649 12.53198622 -11.10400391 11.00595093 C-11.11311295 9.92773071 -11.11311295 9.92773071 -11.12240601 8.82772827 C-11.05357036 3.94486902 -11.05357036 3.94486902 -9.66290283 1.69138145 C-6.63680084 -0.33458423 -3.51933977 -0.0316534 0 0 Z " fill="#FBFBFB" transform="translate(26.70556640625,11.619049072265625)"/>
<path d="M0 0 C4.40608743 2.16298837 7.1987497 4.39680479 9 9 C9.68426057 14.04325384 9.5739862 17.83076884 7.3125 22.4375 C4.28115306 25.79656012 2.25860352 27.69355631 -2.33203125 28.31640625 C-8.04951809 28.58213652 -11.60250453 27.96847152 -16 24 C-19.38570467 20.16286804 -19.51291172 16.36598538 -19.3515625 11.4375 C-18.67904883 6.77473854 -16.30117669 4.14809708 -12.875 1.125 C-8.55651358 -0.56484251 -4.5732948 -0.65960983 0 0 Z " fill="#F6DC85" transform="translate(1318,15)"/>
<path d="M0 0 C12.05357143 -0.66964286 12.05357143 -0.66964286 15.6875 2.375 C18.15261389 5.17323738 18.89861152 6.10778133 19.3125 9.75 C18.91485635 13.88549396 17.65876389 15.83822672 15 19 C10.14290305 22.14282744 6.22476493 21 0 21 C0 14.07 0 7.14 0 0 Z " fill="#19131C" transform="translate(34,96)"/>
<path d="M0 0 C1.65 0 3.3 0 5 0 C5 2.31 5 4.62 5 7 C5.99 6.34 6.98 5.68 8 5 C11.6111941 5.12897122 14.07127015 5.30345261 17 7.5 C18.56940095 11.42350238 18.10458411 14.97017245 17 19 C15.375 21.125 15.375 21.125 13 22 C9.3125 21.625 9.3125 21.625 6 21 C5.67 21.33 5.34 21.66 5 22 C3.35 22 1.7 22 0 22 C0 14.74 0 7.48 0 0 Z " fill="#1C1815" transform="translate(110,95)"/>
<path d="M0 0 C1.65 0 3.3 0 5 0 C5 7.26 5 14.52 5 22 C2.66666667 22 0.33333333 22 -2 22 C-2.94875 22.103125 -3.8975 22.20625 -4.875 22.3125 C-8 22 -8 22 -10.375 20 C-12.63651355 15.82489806 -12.67423269 13.71962885 -12 9 C-9.875 6.4375 -9.875 6.4375 -7 5 C-3.6875 5.25 -3.6875 5.25 -1 6 C-0.67 4.02 -0.34 2.04 0 0 Z " fill="#1A1310" transform="translate(191,95)"/>
<path d="M0 0 C1.36125 0.37125 1.36125 0.37125 2.75 0.75 C3.08 0.42 3.41 0.09 3.75 -0.25 C5.4 -0.25 7.05 -0.25 8.75 -0.25 C8.75 5.36 8.75 10.97 8.75 16.75 C-1.015625 17.23828125 -1.015625 17.23828125 -4.25 16.75 C-7.24066822 13.86701541 -8.14946094 12.37557635 -8.8125 8.25 C-8.25 4.75 -8.25 4.75 -6.125 1.75 C-3.25 -0.25 -3.25 -0.25 0 0 Z " fill="#1D1511" transform="translate(155.25,100.25)"/>
<path d="M0 0 C1.36125 0.37125 1.36125 0.37125 2.75 0.75 C3.08 0.42 3.41 0.09 3.75 -0.25 C5.4 -0.25 7.05 -0.25 8.75 -0.25 C8.75 5.36 8.75 10.97 8.75 16.75 C-1.015625 17.23828125 -1.015625 17.23828125 -4.25 16.75 C-7.24066822 13.86701541 -8.14946094 12.37557635 -8.8125 8.25 C-8.25 4.75 -8.25 4.75 -6.125 1.75 C-3.25 -0.25 -3.25 -0.25 0 0 Z " fill="#1D1511" transform="translate(62.25,100.25)"/>
<path d="M0 0 C4.45850936 0.79616239 5.90783917 1.93313458 8.5 5.625 C9.125 9.125 9.125 9.125 8.5 12.625 C5.90783917 16.31686542 4.45850936 17.45383761 0 18.25 C-4.45850936 17.45383761 -5.90783917 16.31686542 -8.5 12.625 C-9.125 9.125 -9.125 9.125 -8.5 5.625 C-5.90783917 1.93313458 -4.45850936 0.79616239 0 0 Z " fill="#18161B" transform="translate(137.5,99.375)"/>
<path d="M0 0 C3.80634156 1.83520039 5.4868474 2.97369479 7.375 6.75 C7.58125 7.4925 7.7875 8.235 8 9 C5.36 9 2.72 9 0 9 C-0.66 10.65 -1.32 12.3 -2 14 C-1.566875 14.39832031 -1.13375 14.79664063 -0.6875 15.20703125 C-0.130625 15.73683594 0.42625 16.26664063 1 16.8125 C1.556875 17.33457031 2.11375 17.85664062 2.6875 18.39453125 C4 20 4 20 4 23 C-1.24508705 22.41721255 -3.52614239 18.16405398 -6.68359375 14.34765625 C-9.06277387 11.93637927 -10.79747413 10.98843391 -14 10 C-14 9.34 -14 8.68 -14 8 C-13.01 8 -12.02 8 -11 8 C-11 7.34 -11 6.68 -11 6 C-12.98 6.33 -14.96 6.66 -17 7 C-16.03441599 4.45436943 -15.06131195 3.05364796 -13 1.25 C-8.6272841 -0.57196496 -4.66956775 -0.67241776 0 0 Z " fill="#F3E5B0" transform="translate(1318,15)"/>
<path d="M0 0 C1.65 0 3.3 0 5 0 C5.33 1.98 5.66 3.96 6 6 C6.33 5.67 6.66 5.34 7 5 C13.6 5.6 13.6 5.6 16 8 C16.1953125 11.2578125 16.1953125 11.2578125 16.125 15.125 C16.10695313 16.40632813 16.08890625 17.68765625 16.0703125 19.0078125 C16.04710938 19.99523437 16.02390625 20.98265625 16 22 C14.35 22 12.7 22 11 22 C10.67 18.04 10.34 14.08 10 10 C8.68 10 7.36 10 6 10 C5.67 13.96 5.34 17.92 5 22 C3.35 22 1.7 22 0 22 C0 14.74 0 7.48 0 0 Z " fill="#0E1925" transform="translate(91,95)"/>
<path d="M0 0 C2.3125 1.4375 2.3125 1.4375 4 4 C4.63042968 7.12879917 4.63892788 9.87203134 4 13 C1.875 16.125 1.875 16.125 -1 18 C-4.1875 18 -4.1875 18 -7 17 C-9.82335308 12.76497038 -9.65923537 8.97275072 -9 4 C-6.58669516 0.24597025 -4.41796011 -0.88359202 0 0 Z " fill="#1E1B23" transform="translate(148,255)"/>
<path d="M0 0 C6.6 0.6 6.6 0.6 9 3 C9.66364834 7.8616099 9.96271742 12.46678337 7.3125 16.6875 C4.54871092 18.25613705 3.1263916 18.56114721 0 18 C-2.01608431 16.41769422 -2.88531991 15.38758966 -3.6171875 12.9140625 C-4.05971411 8.9849626 -4.30682593 6.6694384 -2.625 3 C-1 1 -1 1 0 0 Z " fill="#1C181A" transform="translate(127,255)"/>
<path d="M0 0 C1.3303125 0.00773438 1.3303125 0.00773438 2.6875 0.015625 C3.574375 0.01046875 4.46125 0.0053125 5.375 0 C7.6875 0.265625 7.6875 0.265625 9.6875 2.265625 C9.91796875 4.83203125 9.91796875 4.83203125 9.875 7.828125 C9.86533203 9.31505859 9.86533203 9.31505859 9.85546875 10.83203125 C9.6875 13.265625 9.6875 13.265625 8.6875 14.265625 C6.68950428 14.36436316 4.68792842 14.39534299 2.6875 14.390625 C1.594375 14.39320313 0.50125 14.39578125 -0.625 14.3984375 C-3.3125 14.265625 -3.3125 14.265625 -4.3125 13.265625 C-4.43737758 11.45635219 -4.48820846 9.64166393 -4.5 7.828125 C-4.51417969 6.83941406 -4.52835938 5.85070312 -4.54296875 4.83203125 C-4.23751921 1.43066948 -3.43357063 0.39439663 0 0 Z " fill="#929292" transform="translate(1275.3125,209.734375)"/>
<path d="M0 0 C1.17755859 -0.01160156 1.17755859 -0.01160156 2.37890625 -0.0234375 C3.05824219 0.10804687 3.73757812 0.23953125 4.4375 0.375 C7.54159013 5.03113519 6.08106104 8.90473114 5.4375 14.375 C1.4775 14.375 -2.4825 14.375 -6.5625 14.375 C-7.91592809 3.91669207 -7.91592809 3.91669207 -6.3671875 1.54296875 C-4.10299421 0.07761422 -2.68385808 -0.02652907 0 0 Z " fill="#4C4C4C" transform="translate(41.5625,24.625)"/>
<path d="M0 0 C1.36125 0.37125 1.36125 0.37125 2.75 0.75 C3.08 2.07 3.41 3.39 3.75 4.75 C0.78 4.255 0.78 4.255 -2.25 3.75 C-2.91 5.07 -3.57 6.39 -4.25 7.75 C-3.13625 7.54375 -2.0225 7.3375 -0.875 7.125 C0.32125 7.00125 1.5175 6.8775 2.75 6.75 C4.75 8.75 4.75 8.75 5.0625 11.6875 C4.75 14.75 4.75 14.75 3.625 16.625 C0.80716375 18.31570175 -1.03734627 18.28544229 -4.25 17.75 C-7.0551498 14.85134521 -7.4881996 12.08350131 -7.6875 8.1875 C-7.56656061 5.03781772 -7.32788077 3.87580739 -5.625 1.125 C-3.25 -0.25 -3.25 -0.25 0 0 Z " fill="#13131A" transform="translate(1037.25,255.25)"/>
<path d="M0 0 C2.375 1.3125 2.375 1.3125 4 3 C4 3.99 4 4.98 4 6 C0.97580475 5.41196203 -2.01758453 4.77321882 -5 4 C-4.07033509 6.4263724 -4.07033509 6.4263724 -0.5 7.3125 C3 9 3 9 4.125 11.5 C4 14 4 14 3 15.8125 C-0.11891335 17.6643548 -2.45343905 17.43554257 -6 17 C-8.4375 15.0625 -8.4375 15.0625 -10 13 C-10 12.67 -10 12.34 -10 12 C-7.03 12.33 -4.06 12.66 -1 13 C-1 12.34 -1 11.68 -1 11 C-2.134375 10.690625 -3.26875 10.38125 -4.4375 10.0625 C-8 9 -8 9 -9 8 C-9.25 5.0625 -9.25 5.0625 -9 2 C-5.51131349 -0.32579101 -4.10281481 -0.41865457 0 0 Z " fill="#1D1A1C" transform="translate(84,100)"/>
<path d="M0 0 C3.63 0 7.26 0 11 0 C11 1.32 11 2.64 11 4 C8.69 4 6.38 4 4 4 C4.33 4.66 4.66 5.32 5 6 C6.66500443 6.34153937 8.33178677 6.67449498 10 7 C12 9 12 9 12.3125 11.9375 C12 15 12 15 10.875 16.875 C8.11909116 18.52854531 6.14924548 18.39365568 3 18 C1.125 16.625 1.125 16.625 0 15 C0 14.34 0 13.68 0 13 C2.31 13.33 4.62 13.66 7 14 C7 12.68 7 11.36 7 10 C4.69 10.33 2.38 10.66 0 11 C0 7.37 0 3.74 0 0 Z " fill="#312428" transform="translate(88,255)"/>
<path d="M0 0 C2.75630128 0.29959796 5.33227373 0.81220199 8 1.5625 C10.68488499 2.14981859 13.2616784 2.06223458 16 2 C16 4.64 16 7.28 16 10 C10.375 10.25 10.375 10.25 7 8 C6.34 8.66 5.68 9.32 5 10 C2.5 10.25 2.5 10.25 0 10 C-2 8 -2 8 -2.25 5 C-2 2 -2 2 0 0 Z " fill="#C8C9CC" transform="translate(528,27)"/>
<path d="M0 0 C4.29 0 8.58 0 13 0 C13 0.99 13 1.98 13 3 C12.01 3 11.02 3 10 3 C10 3.66 10 4.32 10 5 C10.66 5 11.32 5 12 5 C12 5.66 12 6.32 12 7 C11.34 7 10.68 7 10 7 C9.34 8.32 8.68 9.64 8 11 C6.68 11 5.36 11 4 11 C4 11.99 4 12.98 4 14 C4.99 14 5.98 14 7 14 C7 13.34 7 12.68 7 12 C8.32 12 9.64 12 11 12 C10.125 15.875 10.125 15.875 9 17 C6.0625 17.1875 6.0625 17.1875 3 17 C1 15 1 15 0.875 11.875 C0.91625 10.92625 0.9575 9.9775 1 9 C2.32 8.67 3.64 8.34 5 8 C3.35 7.67 1.7 7.34 0 7 C0 6.34 0 5.68 0 5 C2.31 5 4.62 5 7 5 C7 4.34 7 3.68 7 3 C4.69 3 2.38 3 0 3 C0 2.01 0 1.02 0 0 Z " fill="#1F2024" transform="translate(58,256)"/>
<path d="M0 0 C0.33 0.66 0.66 1.32 1 2 C2.32 2 3.64 2 5 2 C6.67225729 2.30404678 8.34080104 2.63128912 10 3 C9.67 3.66 9.34 4.32 9 5 C9.33 5.33 9.66 5.66 10 6 C9.5625 8.0625 9.5625 8.0625 9 10 C5 10 1 10 -3 10 C-3.86625 10.020625 -4.7325 10.04125 -5.625 10.0625 C-8 10 -8 10 -9 9 C-9.04080783 7.00041636 -9.04254356 4.99954746 -9 3 C-5.846632 2.29925156 -3.27275026 2 0 2 C0 1.34 0 0.68 0 0 Z " fill="#DEE8EF" transform="translate(853,27)"/>
<path d="M0 0 C2.5625 0.3125 2.5625 0.3125 4.4375 1.375 C6.26273223 4.51845551 5.41596115 6.89865541 4.5625 10.3125 C3 12.25 3 12.25 1.5625 13.3125 C3.2125 13.6425 4.8625 13.9725 6.5625 14.3125 C6.5625 15.6325 6.5625 16.9525 6.5625 18.3125 C2.6025 18.3125 -1.3575 18.3125 -5.4375 18.3125 C-4.33501865 12.80009324 -3.26509277 12.04440295 0.5625 8.3125 C1.42369134 6.13903432 1.42369134 6.13903432 1.5625 4.3125 C0.2425 4.3125 -1.0775 4.3125 -2.4375 4.3125 C-2.4375 4.9725 -2.4375 5.6325 -2.4375 6.3125 C-3.4275 6.3125 -4.4175 6.3125 -5.4375 6.3125 C-4.69883196 2.6191598 -4.09013702 0.52437654 0 0 Z " fill="#26252A" transform="translate(711.4375,254.6875)"/>
<path d="M0 0 C2.5625 0.3125 2.5625 0.3125 4.4375 1.375 C6.26273223 4.51845551 5.41596115 6.89865541 4.5625 10.3125 C3 12.25 3 12.25 1.5625 13.3125 C3.2125 13.6425 4.8625 13.9725 6.5625 14.3125 C6.5625 15.6325 6.5625 16.9525 6.5625 18.3125 C2.6025 18.3125 -1.3575 18.3125 -5.4375 18.3125 C-4.33501865 12.80009324 -3.26509277 12.04440295 0.5625 8.3125 C1.42369134 6.13903432 1.42369134 6.13903432 1.5625 4.3125 C0.2425 4.3125 -1.0775 4.3125 -2.4375 4.3125 C-2.4375 4.9725 -2.4375 5.6325 -2.4375 6.3125 C-3.4275 6.3125 -4.4175 6.3125 -5.4375 6.3125 C-4.69883196 2.6191598 -4.09013702 0.52437654 0 0 Z " fill="#26252A" transform="translate(108.4375,254.6875)"/>
<path d="M0 0 C0.86625 0.37125 0.86625 0.37125 1.75 0.75 C1.75 1.41 1.75 2.07 1.75 2.75 C0.76 2.75 -0.23 2.75 -1.25 2.75 C-1.25 3.41 -1.25 4.07 -1.25 4.75 C-0.46625 4.8325 0.3175 4.915 1.125 5 C3.75 5.75 3.75 5.75 5.0625 7.625 C5.75 9.75 5.75 9.75 5.75 12.75 C2.84907498 14.68395001 1.85325263 15.05131941 -1.4375 15.375 C-2.695625 15.49875 -3.95375 15.6225 -5.25 15.75 C-7.09752571 12.05494858 -6.72415437 7.7835598 -6.25 3.75 C-3.55120482 -0.39457831 -3.55120482 -0.39457831 0 0 Z " fill="#FBE8AC" transform="translate(1305.25,20.25)"/>
<path d="M0 0 C0.61875 0.33 1.2375 0.66 1.875 1 C4.61867229 2.2911399 6.13937931 1.79461686 9 1 C9 1.99 9 2.98 9 4 C9.33 4.33 9.66 4.66 10 5 C9.5625 7.0625 9.5625 7.0625 9 9 C8.195625 8.814375 7.39125 8.62875 6.5625 8.4375 C5.716875 8.293125 4.87125 8.14875 4 8 C3.67 8.33 3.34 8.66 3 9 C2.2575 8.835 1.515 8.67 0.75 8.5 C-1.9942739 7.822703 -1.9942739 7.822703 -4.6875 8.5625 C-5.450625 8.706875 -6.21375 8.85125 -7 9 C-7.66 8.34 -8.32 7.68 -9 7 C-8.625 4.375 -8.625 4.375 -8 2 C-7.236875 1.855625 -6.47375 1.71125 -5.6875 1.5625 C-2.91827092 1.0367406 -2.91827092 1.0367406 0 0 Z " fill="#7E7679" transform="translate(1114,210)"/>
<path d="M0 0 C1 1 1 1 1.0625 3.375 C1.041875 4.24125 1.02125 5.1075 1 6 C1 8.0217996 1.0639477 10.04447908 1.1875 12.0625 C1.125625 13.031875 1.06375 14.00125 1 15 C-2.45245824 17.30163882 -3.94738713 17.34490322 -8 17 C-8.66 16.34 -9.32 15.68 -10 15 C-10 14.01 -10 13.02 -10 12 C-7.69 12.33 -5.38 12.66 -3 13 C-2.67 12.01 -2.34 11.02 -2 10 C-3.32 9.67 -4.64 9.34 -6 9 C-6 8.01 -6 7.02 -6 6 C-5.01 6 -4.02 6 -3 6 C-3 5.01 -3 4.02 -3 3 C-5.31 3.33 -7.62 3.66 -10 4 C-9.625 2.0625 -9.625 2.0625 -9 0 C-5.90842747 -1.54578627 -3.31526981 -0.60277633 0 0 Z " fill="#1E1D21" transform="translate(83,256)"/>
<path d="M0 0 C0.99 0.495 0.99 0.495 2 1 C2.78375 0.835 3.5675 0.67 4.375 0.5 C7.11002792 -0.0209577 8.37301303 0.32206788 11 1 C12.33981486 0.6937566 13.67511887 0.36548445 15 0 C16 1 16 1 16.0625 4.5625 C16.041875 5.696875 16.02125 6.83125 16 8 C14.35 8.33 12.7 8.66 11 9 C10.67 8.34 10.34 7.68 10 7 C9.34 7.66 8.68 8.32 8 9 C5.5625 9.125 5.5625 9.125 3 9 C2.01 9 1.02 9 0 9 C0 6.03 0 3.06 0 0 Z " fill="#B6B9BE" transform="translate(1068,548)"/>
<path d="M0 0 C0.99 0 1.98 0 3 0 C3 0.99 3 1.98 3 3 C6.63 3 10.26 3 14 3 C14.08912219 6.83225427 13.87867729 10.26562152 13 14 C12.01 14 11.02 14 10 14 C10 13.34 10 12.68 10 12 C8.68 12 7.36 12 6 12 C6 12.66 6 13.32 6 14 C5.01 14 4.02 14 3 14 C2.87625 13.360625 2.7525 12.72125 2.625 12.0625 C1.8020178 8.02988724 0.90114025 4.01576093 0 0 Z " fill="#A6A6A6" transform="translate(947,210)"/>
<path d="M0 0 C3.33333333 0 6.66666667 0 10 0 C10 1.98 10 3.96 10 6 C8.35 6 6.7 6 5 6 C5 9.63 5 13.26 5 17 C3.35 17 1.7 17 0 17 C0 11.39 0 5.78 0 0 Z " fill="#141C29" transform="translate(168,100)"/>
<path d="M0 0 C0.33 0.66 0.66 1.32 1 2 C1.99 2 2.98 2 4 2 C4.33 1.34 4.66 0.68 5 0 C5.66 0 6.32 0 7 0 C7 0.66 7 1.32 7 2 C8.65 2 10.3 2 12 2 C12 4.64 12 7.28 12 10 C8.04 10 4.08 10 0 10 C-1.125 2.25 -1.125 2.25 0 0 Z " fill="#E3F0F7" transform="translate(978,27)"/>
<path d="M0 0 C1.6396875 0.2475 1.6396875 0.2475 3.3125 0.5 C6.53946069 0.93755399 8.01854772 0.91736993 11 0 C12 1 12 1 12.0625 4.5625 C12.041875 5.696875 12.02125 6.83125 12 8 C10.35 8.33 8.7 8.66 7 9 C6.67 8.34 6.34 7.68 6 7 C5.34 7.66 4.68 8.32 4 9 C1.375 8.625 1.375 8.625 -1 8 C-1.04241723 5.66705225 -1.04092937 3.33297433 -1 1 C-0.67 0.67 -0.34 0.34 0 0 Z " fill="#B2B4B8" transform="translate(1072,397)"/>
<path d="M0 0 C6.875 0.875 6.875 0.875 8 2 C8.46554364 9.21592649 8.46554364 9.21592649 6.8125 12 C5 13 5 13 0 13 C0 8.71 0 4.42 0 0 Z " fill="#EFF4F0" transform="translate(39,100)"/>
<path d="M0 0 C0.66 0 1.32 0 2 0 C2.33 0.66 2.66 1.32 3 2 C4.32303717 2.3721042 5.65737935 2.70630173 7 3 C8 4 8 4 8.0625 7.0625 C8.041875 8.031875 8.02125 9.00125 8 10 C7.34 10 6.68 10 6 10 C6 8.02 6 6.04 6 4 C4.68 4 3.36 4 2 4 C2 5.98 2 7.96 2 10 C0.68 10 -0.64 10 -2 10 C-2.886875 10.020625 -3.77375 10.04125 -4.6875 10.0625 C-7 10 -7 10 -8 9 C-8.04080783 7.00041636 -8.04254356 4.99954746 -8 3 C-5.625 2.375 -5.625 2.375 -3 2 C-2.34 2.66 -1.68 3.32 -1 4 C-0.67 2.68 -0.34 1.36 0 0 Z " fill="#AFABAE" transform="translate(675,27)"/>
<path d="M0 0 C3 0.25 3 0.25 5 2.25 C5.1953125 5.5078125 5.1953125 5.5078125 5.125 9.375 C5.10695313 10.65632813 5.08890625 11.93765625 5.0703125 13.2578125 C5.04710938 14.24523437 5.02390625 15.23265625 5 16.25 C3.35 16.25 1.7 16.25 0 16.25 C-0.02578125 15.40695313 -0.0515625 14.56390625 -0.078125 13.6953125 C-0.16320312 12.05175781 -0.16320312 12.05175781 -0.25 10.375 C-0.29640625 9.28445312 -0.3428125 8.19390625 -0.390625 7.0703125 C-0.68846128 4.1167935 -0.68846128 4.1167935 -3.046875 2.8671875 C-3.69140625 2.66351563 -4.3359375 2.45984375 -5 2.25 C-3 0.25 -3 0.25 0 0 Z " fill="#1E1611" transform="translate(102,100.75)"/>
<path d="M0 0 C0.66 0 1.32 0 2 0 C2 0.66 2 1.32 2 2 C2.66 2 3.32 2 4 2 C4 2.66 4 3.32 4 4 C3.34 4 2.68 4 2 4 C2 5.65 2 7.3 2 9 C2.66 9.33 3.32 9.66 4 10 C3.4225 9.814375 2.845 9.62875 2.25 9.4375 C0.04253969 8.84088648 0.04253969 8.84088648 -1.9375 9.5 C-4.5437064 10.13180761 -6.42673558 9.64331611 -9 9 C-9 7.02 -9 5.04 -9 3 C-5.94152152 2.45627049 -3.11227195 2 0 2 C0 1.34 0 0.68 0 0 Z " fill="#4B3434" transform="translate(1197,353)"/>
<path d="M0 0 C1.67061696 0.08991168 3.33793042 0.24626756 5 0.4375 C5.9075 0.53933594 6.815 0.64117187 7.75 0.74609375 C8.4925 0.82988281 9.235 0.91367188 10 1 C10.33 1 10.66 1 11 1 C11 3.64 11 6.28 11 9 C7.37 9 3.74 9 0 9 C-0.87890625 2.84765625 -0.87890625 2.84765625 -1 1 C-0.67 0.67 -0.34 0.34 0 0 Z " fill="#6A6269" transform="translate(75,210)"/>
<path d="M0 0 C0.66 0.99 1.32 1.98 2 3 C1.01 3 0.02 3 -1 3 C-1 4.32 -1 5.64 -1 7 C0.32 6.67 1.64 6.34 3 6 C3 7.32 3 8.64 3 10 C4.32 10.66 5.64 11.32 7 12 C1.90363007 12.36258758 -1.90042893 12.54014017 -6.5625 10.25 C-8.9392256 8.05609944 -9.77347501 7.17134992 -10 4 C-8.906875 3.855625 -7.81375 3.71125 -6.6875 3.5625 C-3.06877013 3.11711896 -3.06877013 3.11711896 0 2 C0 1.34 0 0.68 0 0 Z " fill="#EED785" transform="translate(1311,31)"/>
<path d="M0 0 C2.4375 0.75 2.4375 0.75 4.4375 2.75 C4.75 5.25 4.75 5.25 4.4375 7.75 C1.21376323 9.89915785 0.17046326 10.13286803 -3.5625 9.75 C-5.5625 7.75 -5.5625 7.75 -5.875 4.75 C-5.771875 3.76 -5.66875 2.77 -5.5625 1.75 C-2.5625 -0.25 -2.5625 -0.25 0 0 Z " fill="#F9FBFB" transform="translate(731.5625,27.25)"/>
<path d="M0 0 C1.65 0.33 3.3 0.66 5 1 C5.22429687 1.89332031 5.44859375 2.78664063 5.6796875 3.70703125 C7.22344957 7.55730174 8.93632389 9.08477719 12.125 11.6875 C14.8828125 13.94921875 14.8828125 13.94921875 17 16 C17 16.99 17 17.98 17 19 C11.75491295 18.41721255 9.47385761 14.16405398 6.31640625 10.34765625 C3.93722613 7.93637927 2.20252587 6.98843391 -1 6 C-1 5.34 -1 4.68 -1 4 C-0.01 4 0.98 4 2 4 C2 3.34 2 2.68 2 2 C1.34 2 0.68 2 0 2 C0 1.34 0 0.68 0 0 Z " fill="#8F9F99" transform="translate(1305,19)"/>
<path d="M0 0 C2.5 0.25 2.5 0.25 4.5 2.25 C4.75 5.25 4.75 5.25 4.5 8.25 C2.5 10.25 2.5 10.25 0 10.5 C-2.5 10.25 -2.5 10.25 -4.5 8.25 C-4.75 5.25 -4.75 5.25 -4.5 2.25 C-2.5 0.25 -2.5 0.25 0 0 Z " fill="#CBC9CA" transform="translate(37.5,129.75)"/>
<path d="M0 0 C0.66 0 1.32 0 2 0 C2 0.66 2 1.32 2 2 C2.66 2 3.32 2 4 2 C4 1.34 4 0.68 4 0 C4.66 0 5.32 0 6 0 C6.33 0.66 6.66 1.32 7 2 C8.32303717 2.3721042 9.65737935 2.70630173 11 3 C12 4 12 4 12.0625 7.0625 C12.041875 8.031875 12.02125 9.00125 12 10 C11.34 10 10.68 10 10 10 C10 8.02 10 6.04 10 4 C8.68 4 7.36 4 6 4 C6 5.98 6 7.96 6 10 C4.35 10 2.7 10 1 10 C-1.42857143 3.71428571 -1.42857143 3.71428571 0 0 Z " fill="#7D7780" transform="translate(169,353)"/>
<path d="M0 0 C1.671549 0.30791692 3.33805547 0.64386903 5 1 C7.23167185 0.63143136 7.23167185 0.63143136 9 0 C9 2.64 9 5.28 9 8 C7.35425434 8.02688151 5.70838587 8.04634123 4.0625 8.0625 C3.14597656 8.07410156 2.22945312 8.08570313 1.28515625 8.09765625 C-1 8 -1 8 -2 7 C-2.1875 4.5625 -2.1875 4.5625 -2 2 C-1.34 1.34 -0.68 0.68 0 0 Z " fill="#D4D5D5" transform="translate(567,29)"/>
<path d="M0 0 C5.56818182 0.56818182 5.56818182 0.56818182 7 2 C7.1875 4.9375 7.1875 4.9375 7 8 C5 10 5 10 2.5 10.25 C0 10 0 10 -2 8 C-2.25 5 -2.25 5 -2 2 C-1.34 1.34 -0.68 0.68 0 0 Z " fill="#BEBDBE" transform="translate(891,27)"/>
<path d="M0 0 C0.33 0.66 0.66 1.32 1 2 C2.65 2 4.3 2 6 2 C6.66 3.32 7.32 4.64 8 6 C8.66 4.68 9.32 3.36 10 2 C11.21386936 5.64160808 10.6674695 6.33165469 9.0625 9.6875 C8.49208984 10.89986328 8.49208984 10.89986328 7.91015625 12.13671875 C7.60980469 12.75160156 7.30945313 13.36648437 7 14 C6.34 14 5.68 14 5 14 C5.33 12.35 5.66 10.7 6 9 C4.02 9.33 2.04 9.66 0 10 C-1.125 2.25 -1.125 2.25 0 0 Z " fill="#E5EEEC" transform="translate(578,27)"/>
<path d="M0 0 C2.375 0.6875 2.375 0.6875 3.375 1.6875 C3.5625 4.625 3.5625 4.625 3.375 7.6875 C1.375 9.6875 1.375 9.6875 -1.125 9.9375 C-3.625 9.6875 -3.625 9.6875 -5.625 7.6875 C-5.9375 4.6875 -5.9375 4.6875 -5.625 1.6875 C-2.625 -0.3125 -2.625 -0.3125 0 0 Z " fill="#99969A" transform="translate(246.625,27.3125)"/>
<path d="M0 0 C0.94875 0.04125 1.8975 0.0825 2.875 0.125 C2.92895478 1.74963842 2.96777195 3.37478541 3 5 C3.02320313 5.90492187 3.04640625 6.80984375 3.0703125 7.7421875 C2.875 10.125 2.875 10.125 0.875 12.125 C-1.6875 11.875 -1.6875 11.875 -4.125 11.125 C-4.455 10.465 -4.785 9.805 -5.125 9.125 C-2.155 9.62 -2.155 9.62 0.875 10.125 C0.875 9.465 0.875 8.805 0.875 8.125 C0.070625 8.145625 -0.73375 8.16625 -1.5625 8.1875 C-4.125 8.125 -4.125 8.125 -5.125 7.125 C-5.3125 4.6875 -5.3125 4.6875 -5.125 2.125 C-3.125 0.125 -3.125 0.125 0 0 Z " fill="#8A8893" transform="translate(463.125,28.875)"/>
<path d="M0 0 C4.75 0.75 4.75 0.75 7 3 C7.33015665 6.10347254 7.50531294 8.15781176 5.875 10.875 C3.11909116 12.52854531 1.14924548 12.39365568 -2 12 C-3.875 10.625 -3.875 10.625 -5 9 C-5 8.34 -5 7.68 -5 7 C-2.69 7.33 -0.38 7.66 2 8 C2 6.68 2 5.36 2 4 C1.34 3.34 0.68 2.68 0 2 C0 1.34 0 0.68 0 0 Z " fill="#241D21" transform="translate(93,261)"/>
<path d="M0 0 C0.94875 0.04125 1.8975 0.0825 2.875 0.125 C2.875 3.755 2.875 7.385 2.875 11.125 C-2.125 12.125 -2.125 12.125 -4.125 11.125 C-4.125 10.465 -4.125 9.805 -4.125 9.125 C-2.475 9.455 -0.825 9.785 0.875 10.125 C0.875 9.465 0.875 8.805 0.875 8.125 C-0.775 7.795 -2.425 7.465 -4.125 7.125 C-4.75 4.75 -4.75 4.75 -5.125 2.125 C-3.125 0.125 -3.125 0.125 0 0 Z " fill="#938B88" transform="translate(1005.125,28.875)"/>
<path d="M0 0 C0 3.63 0 7.26 0 11 C-0.66 11 -1.32 11 -2 11 C-2.33 8.69 -2.66 6.38 -3 4 C-4.12516085 5.83284443 -4.12516085 5.83284443 -5 8 C-4.67 8.99 -4.34 9.98 -4 11 C-4.99 10.67 -5.98 10.34 -7 10 C-7.33 9.34 -7.66 8.68 -8 8 C-8.33 8.99 -8.66 9.98 -9 11 C-9.66 11 -10.32 11 -11 11 C-11 7.7 -11 4.4 -11 1 C-10.34 1 -9.68 1 -9 1 C-8.67 1.99 -8.34 2.98 -8 4 C-7.34 3.01 -6.68 2.02 -6 1 C-3.88864324 0.27422112 -2.22998296 0 0 0 Z " fill="#978D90" transform="translate(660,26)"/>
<path d="M0 0 C2.56411552 2.56411552 5.12103274 5.1267962 7.625 7.75 C9.86533112 10.19004674 9.86533112 10.19004674 13 11 C12.34 12.32 11.68 13.64 11 15 C8.125 15.125 8.125 15.125 5 15 C4.34 14.34 3.68 13.68 3 13 C3.66 13 4.32 13 5 13 C5 12.01 5 11.02 5 10 C3.68 10.33 2.36 10.66 1 11 C1 9.68 1 8.36 1 7 C1.66 6.67 2.32 6.34 3 6 C2.2575 5.071875 2.2575 5.071875 1.5 4.125 C0 2 0 2 0 0 Z " fill="#F6D871" transform="translate(1309,27)"/>
<path d="M0 0 C3.02419525 0.58803797 6.01758453 1.22678118 9 2 C9 4.64 9 7.28 9 10 C8.01 9.67 7.02 9.34 6 9 C3.99124558 9.27571139 1.98821313 9.60235737 0 10 C0 9.01 0 8.02 0 7 C0.99 7.33 1.98 7.66 3 8 C3.33 7.34 3.66 6.68 4 6 C2.35 5.67 0.7 5.34 -1 5 C-0.67 3.35 -0.34 1.7 0 0 Z " fill="#C8C2C5" transform="translate(599,27)"/>
<path d="M0 0 C1.65 0 3.3 0 5 0 C5 3.63 5 7.26 5 11 C3.35 11 1.7 11 0 11 C-0.33 9.35 -0.66 7.7 -1 6 C-2.32 5.67 -3.64 5.34 -5 5 C-4.42655063 7.86724686 -4.1385485 8.8614515 -2 11 C-3.32 10.67 -4.64 10.34 -6 10 C-6.33 8.35 -6.66 6.7 -7 5 C-4.625 3.9375 -4.625 3.9375 -2 3 C-1.34 3.33 -0.68 3.66 0 4 C0 2.68 0 1.36 0 0 Z " fill="#6A6267" transform="translate(121,26)"/>
<path d="M0 0 C6 0 6 0 8 1 C8 2.98 8 4.96 8 7 C6.35 7.33 4.7 7.66 3 8 C2.67 9.32 2.34 10.64 2 12 C1.34 12 0.68 12 0 12 C0 8.04 0 4.08 0 0 Z " fill="#9B8E8B" transform="translate(546,29)"/>
<path d="M0 0 C0.66 0.66 1.32 1.32 2 2 C2.66 1.34 3.32 0.68 4 0 C6.625 0.375 6.625 0.375 9 1 C9 3.31 9 5.62 9 8 C5.9088726 8.66835187 3.16770671 9 0 9 C0 6.03 0 3.06 0 0 Z " fill="#B7C4CE" transform="translate(97,548)"/>
<path d="M0 0 C2.31 0.33 4.62 0.66 7 1 C7.09765625 7.15234375 7.09765625 7.15234375 7 9 C6 10 6 10 2.9375 10.0625 C1.968125 10.041875 0.99875 10.02125 0 10 C0 6.7 0 3.4 0 0 Z " fill="#5B3B40" transform="translate(1091,353)"/>
<path d="M0 0 C0.66 0 1.32 0 2 0 C2.33 1.32 2.66 2.64 3 4 C4.175625 3.690625 4.175625 3.690625 5.375 3.375 C6.674375 3.189375 6.674375 3.189375 8 3 C10 5 10 5 10 8 C9.01 8.33 8.02 8.66 7 9 C7.66 9.33 8.32 9.66 9 10 C5.846632 10.70074844 3.27275026 11 0 11 C0 7.37 0 3.74 0 0 Z " fill="#5C5B64" transform="translate(760,208)"/>
<path d="M0 0 C2.31 0.33 4.62 0.66 7 1 C7.09765625 7.15234375 7.09765625 7.15234375 7 9 C6 10 6 10 2.9375 10.0625 C1.968125 10.041875 0.99875 10.02125 0 10 C0 6.7 0 3.4 0 0 Z " fill="#92878A" transform="translate(330,27)"/>
<path d="M0 0 C0.66 0 1.32 0 2 0 C2 3.3 2 6.6 2 10 C-0.33294775 10.04241723 -2.66702567 10.04092937 -5 10 C-6 9 -6 9 -6.1875 6.5625 C-6 4 -6 4 -4 2 C-3.01 2 -2.02 2 -1 2 C-0.67 1.34 -0.34 0.68 0 0 Z " fill="#9C979A" transform="translate(149,130)"/>
<path d="M0 0 C0.66 0 1.32 0 2 0 C2 3.3 2 6.6 2 10 C-0.33294775 10.04241723 -2.66702567 10.04092937 -5 10 C-6 9 -6 9 -6.1875 6.5625 C-6 4 -6 4 -4 2 C-3.01 2 -2.02 2 -1 2 C-0.67 1.34 -0.34 0.68 0 0 Z " fill="#949095" transform="translate(389,27)"/>
<path d="M0 0 C0.66 0 1.32 0 2 0 C2 3.3 2 6.6 2 10 C-0.875 10.125 -0.875 10.125 -4 10 C-4.66 9.34 -5.32 8.68 -6 8 C-5.625 5.375 -5.625 5.375 -5 3 C-4.360625 2.87625 -3.72125 2.7525 -3.0625 2.625 C-2.0415625 2.315625 -2.0415625 2.315625 -1 2 C-0.67 1.34 -0.34 0.68 0 0 Z " fill="#4E474D" transform="translate(1093,209)"/>
<path d="M0 0 C0.66 0 1.32 0 2 0 C2 3.3 2 6.6 2 10 C-0.875 10.125 -0.875 10.125 -4 10 C-4.66 9.34 -5.32 8.68 -6 8 C-5.625 5.375 -5.625 5.375 -5 3 C-4.360625 2.87625 -3.72125 2.7525 -3.0625 2.625 C-2.0415625 2.315625 -2.0415625 2.315625 -1 2 C-0.67 1.34 -0.34 0.68 0 0 Z " fill="#8C868B" transform="translate(911,27)"/>
<path d="M0 0 C0.66 0 1.32 0 2 0 C2 3.3 2 6.6 2 10 C-0.875 10.125 -0.875 10.125 -4 10 C-4.66 9.34 -5.32 8.68 -6 8 C-5.625 5.375 -5.625 5.375 -5 3 C-4.360625 2.87625 -3.72125 2.7525 -3.0625 2.625 C-2.0415625 2.315625 -2.0415625 2.315625 -1 2 C-0.67 1.34 -0.34 0.68 0 0 Z " fill="#8C868B" transform="translate(831,27)"/>
<path d="M0 0 C0.66 0 1.32 0 2 0 C2.33 0.66 2.66 1.32 3 2 C5.02463255 2.65213292 5.02463255 2.65213292 7 3 C7.625 5.375 7.625 5.375 8 8 C6 10 6 10 2.875 10.125 C1.451875 10.063125 1.451875 10.063125 0 10 C0 6.7 0 3.4 0 0 Z " fill="#8A848F" transform="translate(350,27)"/>
<path d="M0 0 C0.99 0.33 1.98 0.66 3 1 C3 1.99 3 2.98 3 4 C5.43717258 3.72965366 5.43717258 3.72965366 8 3 C8.66 2.01 9.32 1.02 10 0 C10 2.97 10 5.94 10 9 C6.7 9 3.4 9 0 9 C0 6.03 0 3.06 0 0 Z " fill="#FDFDFD" transform="translate(1273,214)"/>
<path d="M0 0 C0.66 -0.33 1.32 -0.66 2 -1 C2.33 1.31 2.66 3.62 3 6 C-3.15234375 6.87890625 -3.15234375 6.87890625 -5 7 C-6 6 -6 6 -6.0625 2.9375 C-6.041875 1.968125 -6.02125 0.99875 -6 0 C-3.4791665 -1.26041675 -2.64903564 -0.66225891 0 0 Z " fill="#C6C6C4" transform="translate(850,30)"/>
<path d="M0 0 C1.4540625 0.0309375 1.4540625 0.0309375 2.9375 0.0625 C3.2675 2.3725 3.5975 4.6825 3.9375 7.0625 C0.5625 7.6875 0.5625 7.6875 -3.0625 8.0625 C-3.7225 7.4025 -4.3825 6.7425 -5.0625 6.0625 C-4.33395709 0.0884481 -4.33395709 0.0884481 0 0 Z " fill="#A7A6A4" transform="translate(1110.0625,210.9375)"/>
<path d="M0 0 C1.23556641 0.01740234 1.23556641 0.01740234 2.49609375 0.03515625 C3.32238281 0.04417969 4.14867187 0.05320312 5 0.0625 C5.63808594 0.07410156 6.27617188 0.08570312 6.93359375 0.09765625 C6.93359375 2.07765625 6.93359375 4.05765625 6.93359375 6.09765625 C3.63359375 6.09765625 0.33359375 6.09765625 -3.06640625 6.09765625 C-3.06640625 0.14491523 -3.06640625 0.14491523 0 0 Z " fill="#C6C6C6" transform="translate(39.06640625,31.90234375)"/>
<path d="M0 0 C0 2.64 0 5.28 0 8 C-2.33294775 8.04241723 -4.66702567 8.04092937 -7 8 C-8 7 -8 7 -8.0625 3.9375 C-8.041875 2.968125 -8.02125 1.99875 -8 1 C-5.29120665 -0.35439668 -2.99066732 -0.06501451 0 0 Z " fill="#898D97" transform="translate(443,29)"/>
<path d="M0 0 C0.94875 0.04125 1.8975 0.0825 2.875 0.125 C2.875 2.765 2.875 5.405 2.875 8.125 C0.54205225 8.16741723 -1.79202567 8.16592937 -4.125 8.125 C-5.125 7.125 -5.125 7.125 -5.3125 4.6875 C-5.02108357 0.70480882 -3.90175738 0.1560703 0 0 Z " fill="#8C8A94" transform="translate(373.125,28.875)"/>
<path d="M0 0 C2.6875 0.875 2.6875 0.875 5 2 C5.125 4.375 5.125 4.375 5 7 C4.34 7.66 3.68 8.32 3 9 C-1.55555556 8.44444444 -1.55555556 8.44444444 -3 7 C-3.25 4.5625 -3.25 4.5625 -3 2 C-2.01 1.34 -1.02 0.68 0 0 Z " fill="#E1E3DF" transform="translate(118,104)"/>
<path d="M0 0 C2.64 0 5.28 0 8 0 C8.33 0.99 8.66 1.98 9 3 C7.5625 5.6875 7.5625 5.6875 6 8 C4.35 7.67 2.7 7.34 1 7 C1 6.01 1 5.02 1 4 C0.34 3.34 -0.32 2.68 -1 2 C-0.67 1.34 -0.34 0.68 0 0 Z " fill="#C4C4C4" transform="translate(1274,211)"/>
<path d="M0 0 C1.4540625 0.0309375 1.4540625 0.0309375 2.9375 0.0625 C2.9375 2.7025 2.9375 5.3425 2.9375 8.0625 C0.0625 8.1875 0.0625 8.1875 -3.0625 8.0625 C-3.7225 7.4025 -4.3825 6.7425 -5.0625 6.0625 C-4.33395709 0.0884481 -4.33395709 0.0884481 0 0 Z " fill="#4F414F" transform="translate(731.0625,210.9375)"/>
<path d="M0 0 C1.4540625 0.0309375 1.4540625 0.0309375 2.9375 0.0625 C2.9375 2.7025 2.9375 5.3425 2.9375 8.0625 C0.0625 8.1875 0.0625 8.1875 -3.0625 8.0625 C-3.7225 7.4025 -4.3825 6.7425 -5.0625 6.0625 C-4.33395709 0.0884481 -4.33395709 0.0884481 0 0 Z " fill="#4C4956" transform="translate(1055.0625,210.9375)"/>
<path d="M0 0 C1.4540625 0.0309375 1.4540625 0.0309375 2.9375 0.0625 C2.9375 2.7025 2.9375 5.3425 2.9375 8.0625 C0.0625 8.1875 0.0625 8.1875 -3.0625 8.0625 C-3.7225 7.4025 -4.3825 6.7425 -5.0625 6.0625 C-4.33395709 0.0884481 -4.33395709 0.0884481 0 0 Z " fill="#4C4956" transform="translate(755.0625,210.9375)"/>
<path d="M0 0 C1.4540625 0.0309375 1.4540625 0.0309375 2.9375 0.0625 C2.9375 2.7025 2.9375 5.3425 2.9375 8.0625 C0.0625 8.1875 0.0625 8.1875 -3.0625 8.0625 C-3.7225 7.4025 -4.3825 6.7425 -5.0625 6.0625 C-4.33395709 0.0884481 -4.33395709 0.0884481 0 0 Z " fill="#908683" transform="translate(560.0625,28.9375)"/>
<path d="M0 0 C1.4540625 0.0309375 1.4540625 0.0309375 2.9375 0.0625 C2.9375 2.7025 2.9375 5.3425 2.9375 8.0625 C0.0625 8.1875 0.0625 8.1875 -3.0625 8.0625 C-3.7225 7.4025 -4.3825 6.7425 -5.0625 6.0625 C-4.33395709 0.0884481 -4.33395709 0.0884481 0 0 Z " fill="#908683" transform="translate(541.0625,28.9375)"/>
<path d="M0 0 C1.67542976 0.28604898 3.34385343 0.61781233 5 1 C5.125 7.75 5.125 7.75 4 10 C2.35 9.67 0.7 9.34 -1 9 C-1.09765625 2.84765625 -1.09765625 2.84765625 -1 1 C-0.67 0.67 -0.34 0.34 0 0 Z " fill="#E4E5DD" transform="translate(128,259)"/>
<path d="M0 0 C3.3 0 6.6 0 10 0 C10 0.66 10 1.32 10 2 C9.01 2 8.02 2 7 2 C7 2.66 7 3.32 7 4 C7.66 4.33 8.32 4.66 9 5 C8.34 5 7.68 5 7 5 C6.67 5.99 6.34 6.98 6 8 C5.01 8.495 5.01 8.495 4 9 C4.99 9.99 5.98 10.98 7 12 C6.67 12.66 6.34 13.32 6 14 C4.02 11.69 2.04 9.38 0 7 C1.32 6.67 2.64 6.34 4 6 C3.01 5.34 2.02 4.68 1 4 C2.32 4 3.64 4 5 4 C5 3.34 5 2.68 5 2 C3.35 2 1.7 2 0 2 C0 1.34 0 0.68 0 0 Z " fill="#8E8E8E" transform="translate(626,210)"/>
<path d="M0 0 C2.31 0.33 4.62 0.66 7 1 C6.814375 1.928125 6.62875 2.85625 6.4375 3.8125 C5.75876119 7.01343771 5.75876119 7.01343771 7 10 C6.34 10 5.68 10 5 10 C4.67 8.68 4.34 7.36 4 6 C3.34 6 2.68 6 2 6 C2 7.32 2 8.64 2 10 C1.34 10 0.68 10 0 10 C0 6.7 0 3.4 0 0 Z " fill="#726767" transform="translate(1029,353)"/>
<path d="M0 0 C3.53571429 0.53571429 3.53571429 0.53571429 5 2 C5.04080783 3.99958364 5.04254356 6.00045254 5 8 C2.625 8.625 2.625 8.625 0 9 C-2 7 -2 7 -2.25 4.5 C-2 2 -2 2 0 0 Z " fill="#E5ECEC" transform="translate(154,104)"/>
<path d="M0 0 C3.53571429 0.53571429 3.53571429 0.53571429 5 2 C5.1875 4.4375 5.1875 4.4375 5 7 C4.34 7.66 3.68 8.32 3 9 C0.375 8.625 0.375 8.625 -2 8 C-2.125 5.125 -2.125 5.125 -2 2 C-1.34 1.34 -0.68 0.68 0 0 Z " fill="#E7EAE5" transform="translate(136,104)"/>
<path d="M0 0 C3.53571429 0.53571429 3.53571429 0.53571429 5 2 C5.04080783 3.99958364 5.04254356 6.00045254 5 8 C2.625 8.625 2.625 8.625 0 9 C-2 7 -2 7 -2.25 4.5 C-2 2 -2 2 0 0 Z " fill="#E5ECEC" transform="translate(61,104)"/>
<path d="M0 0 C1 1 1 1 1.125 3.5 C1 6 1 6 0 7 C-2.4375 7.1875 -2.4375 7.1875 -5 7 C-5.66 6.34 -6.32 5.68 -7 5 C-6.75 2.4375 -6.75 2.4375 -6 0 C-3.49749232 -1.25125384 -2.59701335 -0.83774624 0 0 Z " fill="#9A8E8C" transform="translate(474,30)"/>
<path d="M0 0 C3 3 3 3 5 6 C5.99 4.02 6.98 2.04 8 0 C8.66 0 9.32 0 10 0 C10 3.3 10 6.6 10 10 C9.34 10 8.68 10 8 10 C7.67 9.34 7.34 8.68 7 8 C6.01 8.66 5.02 9.32 4 10 C3.34 8.68 2.68 7.36 2 6 C1.34 7.32 0.68 8.64 0 10 C0 6.7 0 3.4 0 0 Z " fill="#303558" transform="translate(140,353)"/>
<path d="M0 0 C2.625 0.375 2.625 0.375 5 1 C5.625 3.375 5.625 3.375 6 6 C5.34 6.66 4.68 7.32 4 8 C1.375 7.625 1.375 7.625 -1 7 C-1.625 4.625 -1.625 4.625 -2 2 C-1.34 1.34 -0.68 0.68 0 0 Z " fill="#514F56" transform="translate(153,355)"/>
<path d="M0 0 C1.65 0 3.3 0 5 0 C7 2 7 2 7 5 C6.34 5 5.68 5 5 5 C5.66 6.65 6.32 8.3 7 10 C6.01 9.67 5.02 9.34 4 9 C3.67 8.34 3.34 7.68 3 7 C2.67 7.99 2.34 8.98 2 10 C1.34 10 0.68 10 0 10 C0 6.7 0 3.4 0 0 Z " fill="#69636D" transform="translate(58,353)"/>
<path d="M0 0 C2.625 0.375 2.625 0.375 5 1 C5.625 3.375 5.625 3.375 6 6 C5.34 6.66 4.68 7.32 4 8 C1.375 7.625 1.375 7.625 -1 7 C-1.625 4.625 -1.625 4.625 -2 2 C-1.34 1.34 -0.68 0.68 0 0 Z " fill="#514F56" transform="translate(67,211)"/>
<path d="M0 0 C2.625 0.375 2.625 0.375 5 1 C5.625 3.375 5.625 3.375 6 6 C4 8 4 8 1.375 8.125 C0.59125 8.08375 -0.1925 8.0425 -1 8 C-1.625 5.125 -1.625 5.125 -2 2 C-1.34 1.34 -0.68 0.68 0 0 Z " fill="#BEBDC1" transform="translate(191,132)"/>
<path d="M0 0 C2.625 0.375 2.625 0.375 5 1 C5.625 3.375 5.625 3.375 6 6 C4 8 4 8 1.375 8.125 C0.59125 8.08375 -0.1925 8.0425 -1 8 C-1.625 5.125 -1.625 5.125 -2 2 C-1.34 1.34 -0.68 0.68 0 0 Z " fill="#BEBDC1" transform="translate(136,132)"/>
<path d="M0 0 C2.625 0.375 2.625 0.375 5 1 C5.625 3.375 5.625 3.375 6 6 C4 8 4 8 1.375 8.125 C0.59125 8.08375 -0.1925 8.0425 -1 8 C-1.625 5.125 -1.625 5.125 -2 2 C-1.34 1.34 -0.68 0.68 0 0 Z " fill="#BEBDC1" transform="translate(127,132)"/>
<path d="M0 0 C3.53571429 0.53571429 3.53571429 0.53571429 5 2 C5.04080783 3.99958364 5.04254356 6.00045254 5 8 C2.625 8.625 2.625 8.625 0 9 C-2 7 -2 7 -2.25 4.5 C-2 2 -2 2 0 0 Z " fill="#EBF0EB" transform="translate(186,104)"/>
<path d="M0 0 C2.625 0.375 2.625 0.375 5 1 C5.625 3.375 5.625 3.375 6 6 C5.34 6.66 4.68 7.32 4 8 C1.375 7.625 1.375 7.625 -1 7 C-1.625 4.625 -1.625 4.625 -2 2 C-1.34 1.34 -0.68 0.68 0 0 Z " fill="#8D8891" transform="translate(818,29)"/>
<path d="M0 0 C2.625 0.375 2.625 0.375 5 1 C5.625 3.375 5.625 3.375 6 6 C5.34 6.66 4.68 7.32 4 8 C1.375 7.625 1.375 7.625 -1 7 C-1.625 4.625 -1.625 4.625 -2 2 C-1.34 1.34 -0.68 0.68 0 0 Z " fill="#8D8891" transform="translate(361,29)"/>
<path d="M0 0 C1.1446875 0.2784375 1.1446875 0.2784375 2.3125 0.5625 C5.08967375 1.22819173 5.08967375 1.22819173 8 0 C8 2.64 8 5.28 8 8 C4.72724974 8 2.153368 7.70074844 -1 7 C-0.34 6.67 0.32 6.34 1 6 C1.66 6.33 2.32 6.66 3 7 C3 6.34 3 5.68 3 5 C1.68 4.67 0.36 4.34 -1 4 C-0.67 2.68 -0.34 1.36 0 0 Z " fill="#A39E9F" transform="translate(751,29)"/>
<path d="M0 0 C0.04254356 1.99954746 0.04080783 4.00041636 0 6 C-1 7 -1 7 -3.5 7.125 C-6 7 -6 7 -7 6 C-7.04080783 4.00041636 -7.04254356 1.99954746 -7 0 C-4.3333581 -1.33332095 -2.83319697 -0.67102033 0 0 Z " fill="#948D96" transform="translate(108,133)"/>
<path d="M0 0 C2.625 0.375 2.625 0.375 5 1 C5.04254356 2.99954746 5.04080783 5.00041636 5 7 C4 8 4 8 1.5 8.125 C-1 8 -1 8 -2 7 C-2.1875 4.5625 -2.1875 4.5625 -2 2 C-1.34 1.34 -0.68 0.68 0 0 Z " fill="#443C4A" transform="translate(1081,211)"/>
<path d="M0 0 C2.625 0.375 2.625 0.375 5 1 C5.04254356 2.99954746 5.04080783 5.00041636 5 7 C4 8 4 8 1.5 8.125 C-1 8 -1 8 -2 7 C-2.1875 4.5625 -2.1875 4.5625 -2 2 C-1.34 1.34 -0.68 0.68 0 0 Z " fill="#443C4A" transform="translate(715,211)"/>
<path d="M0 0 C1 1 1 1 1.125 3.5 C1 6 1 6 0 7 C-2.5 7.125 -2.5 7.125 -5 7 C-6 6 -6 6 -6.0625 2.9375 C-6.041875 1.968125 -6.02125 0.99875 -6 0 C-3.49749232 -1.25125384 -2.59701335 -0.83774624 0 0 Z " fill="#B4B4B7" transform="translate(83,133)"/>
<path d="M0 0 C2.625 0.375 2.625 0.375 5 1 C5.04254356 2.99954746 5.04080783 5.00041636 5 7 C4 8 4 8 1.5 8.125 C-1 8 -1 8 -2 7 C-2.1875 4.5625 -2.1875 4.5625 -2 2 C-1.34 1.34 -0.68 0.68 0 0 Z " fill="#443C4A" transform="translate(108,29)"/>
<path d="M0 0 C2.625 0.375 2.625 0.375 5 1 C5.04254356 2.99954746 5.04080783 5.00041636 5 7 C4 8 4 8 1.5 8.125 C-1 8 -1 8 -2 7 C-2.1875 4.5625 -2.1875 4.5625 -2 2 C-1.34 1.34 -0.68 0.68 0 0 Z " fill="#443C4A" transform="translate(99,29)"/>
<path d="M0 0 C2.475 0.495 2.475 0.495 5 1 C5 3.64 5 6.28 5 9 C3.35 9.33 1.7 9.66 0 10 C0 6.7 0 3.4 0 0 Z " fill="#F2F4EC" transform="translate(143,259)"/>
<path d="M0 0 C2.125 0.375 2.125 0.375 4 1 C4 3.31 4 5.62 4 8 C2.35 8.33 0.7 8.66 -1 9 C-1.625 5.625 -1.625 5.625 -2 2 C-1.34 1.34 -0.68 0.68 0 0 Z " fill="#C1BBBA" transform="translate(109,548)"/>
<path d="M0 0 C2.125 0.375 2.125 0.375 4 1 C4 3.31 4 5.62 4 8 C2.35 8.33 0.7 8.66 -1 9 C-1.625 5.625 -1.625 5.625 -2 2 C-1.34 1.34 -0.68 0.68 0 0 Z " fill="#C1BBBA" transform="translate(1080,471)"/>
<path d="M0 0 C2.125 0.375 2.125 0.375 4 1 C4 3.31 4 5.62 4 8 C2.35 8.33 0.7 8.66 -1 9 C-1.625 5.625 -1.625 5.625 -2 2 C-1.34 1.34 -0.68 0.68 0 0 Z " fill="#C1BBBA" transform="translate(109,471)"/>
<path d="M0 0 C2.125 0.375 2.125 0.375 4 1 C4 3.31 4 5.62 4 8 C2.35 8.33 0.7 8.66 -1 9 C-1.625 5.625 -1.625 5.625 -2 2 C-1.34 1.34 -0.68 0.68 0 0 Z " fill="#C1BBBA" transform="translate(109,397)"/>
<path d="M0 0 C1.67542976 0.28604898 3.34385343 0.61781233 5 1 C5 2.98 5 4.96 5 7 C2.625 7.625 2.625 7.625 0 8 C-0.66 7.34 -1.32 6.68 -2 6 C-1.44444444 1.44444444 -1.44444444 1.44444444 0 0 Z " fill="#6A676F" transform="translate(121,211)"/>
<path d="M0 0 C1.67542976 0.28604898 3.34385343 0.61781233 5 1 C5 2.98 5 4.96 5 7 C2.625 7.625 2.625 7.625 0 8 C-0.66 7.34 -1.32 6.68 -2 6 C-1.44444444 1.44444444 -1.44444444 1.44444444 0 0 Z " fill="#6A676F" transform="translate(105,211)"/>
<path d="M0 0 C0.625 2.375 0.625 2.375 1 5 C0.34 5.66 -0.32 6.32 -1 7 C-3.625 6.625 -3.625 6.625 -6 6 C-6 4.02 -6 2.04 -6 0 C-3.50907189 -1.24546405 -2.58919267 -0.7767578 0 0 Z " fill="#88858D" transform="translate(1043,212)"/>
<path d="M0 0 C1.65 0 3.3 0 5 0 C7 2 7 2 7 5 C6.34 5 5.68 5 5 5 C5.33 6.65 5.66 8.3 6 10 C4.35 8.68 2.7 7.36 1 6 C0.67 7.32 0.34 8.64 0 10 C0 6.7 0 3.4 0 0 Z " fill="#6C606A" transform="translate(95,209)"/>
<path d="M0 0 C0.99 0.495 0.99 0.495 2 1 C2 1.99 2 2.98 2 4 C2.66 4 3.32 4 4 4 C4.33 2.68 4.66 1.36 5 0 C5.66 0 6.32 0 7 0 C7 1.32 7 2.64 7 4 C7.66 4 8.32 4 9 4 C9.33 2.68 9.66 1.36 10 0 C11.2077558 3.62326739 10.54311128 4.64146369 9 8 C8.34 8 7.68 8 7 8 C6.67 7.01 6.34 6.02 6 5 C5.01 6.485 5.01 6.485 4 8 C3.34 8 2.68 8 2 8 C0.23537317 4.91190305 0 3.76687864 0 0 Z " fill="#B0A3A2" transform="translate(85,132)"/>
<path d="M0 0 C1.65 0 3.3 0 5 0 C5.66 0.66 6.32 1.32 7 2 C6.625 4.125 6.625 4.125 6 6 C4.68 6 3.36 6 2 6 C2 7.32 2 8.64 2 10 C1.34 10 0.68 10 0 10 C0 6.7 0 3.4 0 0 Z " fill="#9DA2AB" transform="translate(803,27)"/>
<path d="M0 0 C2.0625 0.4375 2.0625 0.4375 4 1 C4.33 3.31 4.66 5.62 5 8 C3.34385343 8.38218767 1.67542976 8.71395102 0 9 C-1 8 -1 8 -1.125 4.5 C-1 1 -1 1 0 0 Z " fill="#B5B5BA" transform="translate(101,397)"/>
<path d="M0 0 C1.65 0 3.3 0 5 0 C7 2 7 2 7 5 C5.35 5.33 3.7 5.66 2 6 C2 7.32 2 8.64 2 10 C1.34 10 0.68 10 0 10 C0 6.7 0 3.4 0 0 Z " fill="#6E6973" transform="translate(1066,209)"/>
<path d="M0 0 C1.32 1.32 2.64 2.64 4 4 C4.6496875 3.01 4.6496875 3.01 5.3125 2 C5.869375 1.34 6.42625 0.68 7 0 C7.99 0 8.98 0 10 0 C10 2.64 10 5.28 10 8 C9.34 8 8.68 8 8 8 C7.67 7.34 7.34 6.68 7 6 C5.02 6.99 5.02 6.99 3 8 C0 2.25 0 2.25 0 0 Z " fill="#B2ABB0" transform="translate(65,132)"/>
<path d="M0 0 C0.99 1.32 1.98 2.64 3 4 C3.33 2.68 3.66 1.36 4 0 C7 1 7 1 8 3 C8.33 2.01 8.66 1.02 9 0 C9.66 0 10.32 0 11 0 C10.47731534 2.76276177 9.89130413 5.3260876 9 8 C8.01 7.67 7.02 7.34 6 7 C5.67 6.34 5.34 5.68 5 5 C4.67 5.99 4.34 6.98 4 8 C3.34 8 2.68 8 2 8 C0.74335022 5.09399739 0 3.20395416 0 0 Z " fill="#544450" transform="translate(294,29)"/>
<path d="M0 0 C1.36125 0.37125 1.36125 0.37125 2.75 0.75 C3.08 2.07 3.41 3.39 3.75 4.75 C2.3578125 4.4715625 2.3578125 4.4715625 0.9375 4.1875 C-2.26343771 3.50876119 -2.26343771 3.50876119 -5.25 4.75 C-5.58 7.39 -5.91 10.03 -6.25 12.75 C-6.58 12.75 -6.91 12.75 -7.25 12.75 C-7.86578947 4.74473684 -7.86578947 4.74473684 -5.625 1.125 C-3.25 -0.25 -3.25 -0.25 0 0 Z " fill="#341E1C" transform="translate(1037.25,255.25)"/>
<path d="M0 0 C1.67542976 0.28604898 3.34385343 0.61781233 5 1 C5.33 2.32 5.66 3.64 6 5 C5.01 5.33 4.02 5.66 3 6 C3.66 6.33 4.32 6.66 5 7 C2.625 7.625 2.625 7.625 0 8 C-0.66 7.34 -1.32 6.68 -2 6 C-1.44444444 1.44444444 -1.44444444 1.44444444 0 0 Z " fill="#9FA4A9" transform="translate(686,29)"/>
<path d="M0 0 C1.67542976 0.28604898 3.34385343 0.61781233 5 1 C5.33 2.32 5.66 3.64 6 5 C5.01 5.33 4.02 5.66 3 6 C3.66 6.33 4.32 6.66 5 7 C2.625 7.625 2.625 7.625 0 8 C-0.66 7.34 -1.32 6.68 -2 6 C-1.44444444 1.44444444 -1.44444444 1.44444444 0 0 Z " fill="#9B9694" transform="translate(618,29)"/>
<path d="M0 0 C1.67542976 0.28604898 3.34385343 0.61781233 5 1 C5.33 2.32 5.66 3.64 6 5 C5.01 5.33 4.02 5.66 3 6 C3.66 6.33 4.32 6.66 5 7 C2.625 7.625 2.625 7.625 0 8 C-0.66 7.34 -1.32 6.68 -2 6 C-1.44444444 1.44444444 -1.44444444 1.44444444 0 0 Z " fill="#9B9694" transform="translate(487,29)"/>
<path d="M0 0 C1.67542976 0.28604898 3.34385343 0.61781233 5 1 C5.33 2.32 5.66 3.64 6 5 C5.01 5.33 4.02 5.66 3 6 C3.66 6.33 4.32 6.66 5 7 C2.625 7.625 2.625 7.625 0 8 C-0.66 7.34 -1.32 6.68 -2 6 C-1.44444444 1.44444444 -1.44444444 1.44444444 0 0 Z " fill="#9B9694" transform="translate(451,29)"/>
<path d="M0 0 C2.625 0.375 2.625 0.375 5 1 C5 2.32 5 3.64 5 5 C4.01 5.495 4.01 5.495 3 6 C3.66 6.33 4.32 6.66 5 7 C4 8 4 8 1.5 8.125 C-1 8 -1 8 -2 7 C-2.1875 4.5625 -2.1875 4.5625 -2 2 C-1.34 1.34 -0.68 0.68 0 0 Z " fill="#969496" transform="translate(772,29)"/>
<path d="M0 0 C1.67542976 0.28604898 3.34385343 0.61781233 5 1 C5 2.32 5 3.64 5 5 C4.01 5.495 4.01 5.495 3 6 C3.66 6.33 4.32 6.66 5 7 C2.625 7.625 2.625 7.625 0 8 C-0.66 7.34 -1.32 6.68 -2 6 C-1.44444444 1.44444444 -1.44444444 1.44444444 0 0 Z " fill="#645E60" transform="translate(1081,355)"/>
<path d="M0 0 C1.67542976 0.28604898 3.34385343 0.61781233 5 1 C5 2.32 5 3.64 5 5 C4.01 5.495 4.01 5.495 3 6 C3.66 6.33 4.32 6.66 5 7 C2.625 7.625 2.625 7.625 0 8 C-0.66 7.34 -1.32 6.68 -2 6 C-1.44444444 1.44444444 -1.44444444 1.44444444 0 0 Z " fill="#645E60" transform="translate(84,355)"/>
<path d="M0 0 C1.67542976 0.28604898 3.34385343 0.61781233 5 1 C5 2.32 5 3.64 5 5 C4.01 5.495 4.01 5.495 3 6 C3.66 6.33 4.32 6.66 5 7 C2.625 7.625 2.625 7.625 0 8 C-0.66 7.34 -1.32 6.68 -2 6 C-1.44444444 1.44444444 -1.44444444 1.44444444 0 0 Z " fill="#645E60" transform="translate(68,355)"/>
<path d="M0 0 C2.625 0.375 2.625 0.375 5 1 C5 2.32 5 3.64 5 5 C3.35 5 1.7 5 0 5 C0 5.66 0 6.32 0 7 C1.65 6.67 3.3 6.34 5 6 C4.67 6.66 4.34 7.32 4 8 C2.33388095 8.042721 0.66617115 8.04063832 -1 8 C-2 7 -2 7 -2.1875 4.5625 C-2 2 -2 2 0 0 Z " fill="#ABA7A7" transform="translate(205,132)"/>
<path d="M0 0 C2.625 0.375 2.625 0.375 5 1 C5 2.32 5 3.64 5 5 C3.35 5 1.7 5 0 5 C0 5.66 0 6.32 0 7 C1.65 6.67 3.3 6.34 5 6 C4.67 6.66 4.34 7.32 4 8 C2.33388095 8.042721 0.66617115 8.04063832 -1 8 C-2 7 -2 7 -2.1875 4.5625 C-2 2 -2 2 0 0 Z " fill="#ABA7A7" transform="translate(158,132)"/>
<path d="M0 0 C0.33 1.32 0.66 2.64 1 4 C0.01 4.33 -0.98 4.66 -2 5 C-1.01 5.33 -0.02 5.66 1 6 C0 7 0 7 -2.5 7.125 C-5 7 -5 7 -6 6 C-6.04080783 4.00041636 -6.04254356 1.99954746 -6 0 C-3.50907189 -1.24546405 -2.58919267 -0.7767578 0 0 Z " fill="#888489" transform="translate(975,30)"/>
<path d="M0 0 C0.33 1.32 0.66 2.64 1 4 C0.01 4.33 -0.98 4.66 -2 5 C-1.01 5.33 -0.02 5.66 1 6 C0 7 0 7 -2.5 7.125 C-5 7 -5 7 -6 6 C-6.04080783 4.00041636 -6.04254356 1.99954746 -6 0 C-3.50907189 -1.24546405 -2.58919267 -0.7767578 0 0 Z " fill="#888489" transform="translate(921,30)"/>
<path d="M0 0 C3.02419525 0.58803797 6.01758453 1.22678118 9 2 C9.33 1.34 9.66 0.68 10 0 C10.33 0.33 10.66 0.66 11 1 C10.91062197 2.52519276 10.75462854 4.04681929 10.5625 5.5625 C10.46066406 6.38878906 10.35882813 7.21507813 10.25390625 8.06640625 C10.17011719 8.70449219 10.08632812 9.34257813 10 10 C9.75507812 9.38640625 9.51015625 8.7728125 9.2578125 8.140625 C7.74947715 5.57364433 6.55743212 4.96142096 3.875 3.75 C3.15054688 3.41484375 2.42609375 3.0796875 1.6796875 2.734375 C1.12539062 2.49203125 0.57109375 2.2496875 0 2 C0 1.34 0 0.68 0 0 Z " fill="#DEEDF4" transform="translate(79,104)"/>
<path d="M0 0 C0.33 1.32 0.66 2.64 1 4 C0.01 4.33 -0.98 4.66 -2 5 C-1.34 5.33 -0.68 5.66 0 6 C-1.65614657 6.38218767 -3.32457024 6.71395102 -5 7 C-6 6 -6 6 -6.0625 2.9375 C-6.041875 1.968125 -6.02125 0.99875 -6 0 C-3.50907189 -1.24546405 -2.58919267 -0.7767578 0 0 Z " fill="#5C5B64" transform="translate(1156,356)"/>
<path d="M0 0 C0.33 1.32 0.66 2.64 1 4 C0.01 4.33 -0.98 4.66 -2 5 C-1.34 5.33 -0.68 5.66 0 6 C-1.65614657 6.38218767 -3.32457024 6.71395102 -5 7 C-6 6 -6 6 -6.0625 2.9375 C-6.041875 1.968125 -6.02125 0.99875 -6 0 C-3.50907189 -1.24546405 -2.58919267 -0.7767578 0 0 Z " fill="#5C5B64" transform="translate(1060,356)"/>
<path d="M0 0 C0.33 1.32 0.66 2.64 1 4 C0.01 4.33 -0.98 4.66 -2 5 C-1.34 5.33 -0.68 5.66 0 6 C-1.65614657 6.38218767 -3.32457024 6.71395102 -5 7 C-6 6 -6 6 -6.0625 2.9375 C-6.041875 1.968125 -6.02125 0.99875 -6 0 C-3.50907189 -1.24546405 -2.58919267 -0.7767578 0 0 Z " fill="#5C5B64" transform="translate(1044,356)"/>
<path d="M0 0 C0.33 1.32 0.66 2.64 1 4 C-0.65 4.33 -2.3 4.66 -4 5 C-2.68 5 -1.36 5 0 5 C0 5.66 0 6.32 0 7 C-1.66611905 7.042721 -3.33382885 7.04063832 -5 7 C-6 6 -6 6 -6.0625 2.9375 C-6.041875 1.968125 -6.02125 0.99875 -6 0 C-3.50907189 -1.24546405 -2.58919267 -0.7767578 0 0 Z " fill="#A5A7AD" transform="translate(58,133)"/>
<path d="M0 0 C0.33 1.32 0.66 2.64 1 4 C0.01 4.33 -0.98 4.66 -2 5 C-1.34 5.33 -0.68 5.66 0 6 C-1.65614657 6.38218767 -3.32457024 6.71395102 -5 7 C-6 6 -6 6 -6.0625 2.9375 C-6.041875 1.968125 -6.02125 0.99875 -6 0 C-3.50907189 -1.24546405 -2.58919267 -0.7767578 0 0 Z " fill="#56555E" transform="translate(292,30)"/>
<path d="M0 0 C1.67542976 0.28604898 3.34385343 0.61781233 5 1 C5 1.66 5 2.32 5 3 C3.35 2.67 1.7 2.34 0 2 C0 2.66 0 3.32 0 4 C2.475 4.99 2.475 4.99 5 6 C4.67 7.32 4.34 8.64 4 10 C2.35 10 0.7 10 -1 10 C-1.33 9.01 -1.66 8.02 -2 7 C0.475 7.99 0.475 7.99 3 9 C3 8.01 3 7.02 3 6 C1.68 5.67 0.36 5.34 -1 5 C-1 1 -1 1 0 0 Z " fill="#968F91" transform="translate(962,27)"/>
<path d="M0 0 C0.78375 0.2475 1.5675 0.495 2.375 0.75 C2.705 1.41 3.035 2.07 3.375 2.75 C1.395 2.75 -0.585 2.75 -2.625 2.75 C-2.955 4.4 -3.285 6.05 -3.625 7.75 C-0.16 7.255 -0.16 7.255 3.375 6.75 C3.375 7.41 3.375 8.07 3.375 8.75 C0 9.375 0 9.375 -3.625 9.75 C-5.625 7.75 -5.625 7.75 -5.9375 4.75 C-5.834375 3.76 -5.73125 2.77 -5.625 1.75 C-2.625 -0.25 -2.625 -0.25 0 0 Z " fill="#928D91" transform="translate(731.625,27.25)"/>
<path d="M0 0 C0.78375 0.2475 1.5675 0.495 2.375 0.75 C2.705 1.41 3.035 2.07 3.375 2.75 C1.395 2.75 -0.585 2.75 -2.625 2.75 C-2.955 4.4 -3.285 6.05 -3.625 7.75 C-0.16 7.255 -0.16 7.255 3.375 6.75 C3.375 7.41 3.375 8.07 3.375 8.75 C0 9.375 0 9.375 -3.625 9.75 C-5.625 7.75 -5.625 7.75 -5.9375 4.75 C-5.834375 3.76 -5.73125 2.77 -5.625 1.75 C-2.625 -0.25 -2.625 -0.25 0 0 Z " fill="#928D91" transform="translate(429.625,27.25)"/>
<path d="M0 0 C1.98 0 3.96 0 6 0 C6.33 1.65 6.66 3.3 7 5 C7.66 5 8.32 5 9 5 C9.33 3.35 9.66 1.7 10 0 C10.66 0.33 11.32 0.66 12 1 C11.01 3.31 10.02 5.62 9 8 C8.34 8 7.68 8 7 8 C6.34 6.35 5.68 4.7 5 3 C4.01 3 3.02 3 2 3 C1.67 4.65 1.34 6.3 1 8 C0.67 8 0.34 8 0 8 C0 5.36 0 2.72 0 0 Z " fill="#523E4D" transform="translate(269,29)"/>
<path d="M0 0 C1.67542976 0.28604898 3.34385343 0.61781233 5 1 C5 1.66 5 2.32 5 3 C3.35 2.67 1.7 2.34 0 2 C0 2.66 0 3.32 0 4 C2.475 4.99 2.475 4.99 5 6 C4.67 7.32 4.34 8.64 4 10 C2.35 10 0.7 10 -1 10 C-1.33 9.01 -1.66 8.02 -2 7 C0.475 7.99 0.475 7.99 3 9 C3 8.01 3 7.02 3 6 C1.68 5.67 0.36 5.34 -1 5 C-1 1 -1 1 0 0 Z " fill="#59585C" transform="translate(744,209)"/>
<path d="M0 0 C0.33 1.32 0.66 2.64 1 4 C-0.65 4.33 -2.3 4.66 -4 5 C-3.01 5.66 -2.02 6.32 -1 7 C-2.65 6.67 -4.3 6.34 -6 6 C-6 4.02 -6 2.04 -6 0 C-3.50907189 -1.24546405 -2.58919267 -0.7767578 0 0 Z " fill="#3C3441" transform="translate(151,212)"/>
<path d="M0 0 C1.65 0.33 3.3 0.66 5 1 C4.67 1.66 4.34 2.32 4 3 C3.01 2.67 2.02 2.34 1 2 C0.67 2.66 0.34 3.32 0 4 C1.65 4.33 3.3 4.66 5 5 C4.67 6.65 4.34 8.3 4 10 C2.35 9.67 0.7 9.34 -1 9 C-0.34 7.68 0.32 6.36 1 5 C0.34 5 -0.32 5 -1 5 C-0.67 3.35 -0.34 1.7 0 0 Z " fill="#A8A4A9" transform="translate(177,130)"/>
<path d="M0 0 C0.33 1.32 0.66 2.64 1 4 C-0.65 4.33 -2.3 4.66 -4 5 C-3.01 5.66 -2.02 6.32 -1 7 C-2.65 6.67 -4.3 6.34 -6 6 C-6 4.02 -6 2.04 -6 0 C-3.50907189 -1.24546405 -2.58919267 -0.7767578 0 0 Z " fill="#352C39" transform="translate(266,30)"/>
<path d="M0 0 C0.33 1.32 0.66 2.64 1 4 C-0.65 4.33 -2.3 4.66 -4 5 C-3.01 5.66 -2.02 6.32 -1 7 C-2.65 6.67 -4.3 6.34 -6 6 C-6 4.02 -6 2.04 -6 0 C-3.50907189 -1.24546405 -2.58919267 -0.7767578 0 0 Z " fill="#3C3441" transform="translate(134,30)"/>
<path d="M0 0 C0.66 0 1.32 0 2 0 C2 1.98 2 3.96 2 6 C2.99 6 3.98 6 5 6 C5 4.02 5 2.04 5 0 C5.66 0 6.32 0 7 0 C7 2.64 7 5.28 7 8 C5.00045254 8.04254356 2.99958364 8.04080783 1 8 C0 7 0 7 -0.0625 3.4375 C-0.041875 2.303125 -0.02125 1.16875 0 0 Z " fill="#9D949C" transform="translate(835,29)"/>
<path d="M0 0 C0.66 0 1.32 0 2 0 C2 1.98 2 3.96 2 6 C2.99 6 3.98 6 5 6 C5 4.02 5 2.04 5 0 C5.66 0 6.32 0 7 0 C7 2.64 7 5.28 7 8 C5.00045254 8.04254356 2.99958364 8.04080783 1 8 C0 7 0 7 -0.0625 3.4375 C-0.041875 2.303125 -0.02125 1.16875 0 0 Z " fill="#9D949C" transform="translate(737,29)"/>
<path d="M0 0 C1.99954746 -0.04254356 4.00041636 -0.04080783 6 0 C7 1 7 1 7.0625 4.5625 C7.041875 5.696875 7.02125 6.83125 7 8 C6.34 8 5.68 8 5 8 C5 6.02 5 4.04 5 2 C4.01 2 3.02 2 2 2 C2 3.98 2 5.96 2 8 C1.34 8 0.68 8 0 8 C0 5.36 0 2.72 0 0 Z " fill="#978F95" transform="translate(761,29)"/>
<path d="M0 0 C0.99 0 1.98 0 3 0 C3.33 1.98 3.66 3.96 4 6 C2.35 6.66 0.7 7.32 -1 8 C-2 7 -2 7 -2.1875 4.5625 C-2 2 -2 2 0 0 Z " fill="#949095" transform="translate(460,29)"/>
<path d="M0 0 C2.31 0.33 4.62 0.66 7 1 C7 3.31 7 5.62 7 8 C6.34 8 5.68 8 5 8 C5 6.02 5 4.04 5 2 C4.01 2 3.02 2 2 2 C2 3.98 2 5.96 2 8 C1.34 8 0.68 8 0 8 C0 5.36 0 2.72 0 0 Z " fill="#928F99" transform="translate(992,29)"/>
<path d="M0 0 C2.375 -0.125 2.375 -0.125 5 0 C7 2 7 2 7.125 5.125 C7.08375 6.07375 7.0425 7.0225 7 8 C6.34 8 5.68 8 5 8 C5 6.02 5 4.04 5 2 C4.01 2 3.02 2 2 2 C2 3.98 2 5.96 2 8 C1.34 8 0.68 8 0 8 C0 5.36 0 2.72 0 0 Z " fill="#604F5C" transform="translate(1158,355)"/>
<path d="M0 0 C2.375 -0.125 2.375 -0.125 5 0 C7 2 7 2 7.125 5.125 C7.08375 6.07375 7.0425 7.0225 7 8 C6.34 8 5.68 8 5 8 C5 6.02 5 4.04 5 2 C4.01 2 3.02 2 2 2 C2 3.98 2 5.96 2 8 C1.34 8 0.68 8 0 8 C0 5.36 0 2.72 0 0 Z " fill="#604F5C" transform="translate(1062,355)"/>
<path d="M0 0 C2.375 -0.125 2.375 -0.125 5 0 C7 2 7 2 7.125 5.125 C7.08375 6.07375 7.0425 7.0225 7 8 C6.34 8 5.68 8 5 8 C5 6.02 5 4.04 5 2 C4.01 2 3.02 2 2 2 C2 3.98 2 5.96 2 8 C1.34 8 0.68 8 0 8 C0 5.36 0 2.72 0 0 Z " fill="#604F5C" transform="translate(160,355)"/>
<path d="M0 0 C0.66 0 1.32 0 2 0 C2 0.66 2 1.32 2 2 C2.66 2 3.32 2 4 2 C4 2.66 4 3.32 4 4 C3.34 4 2.68 4 2 4 C2 5.65 2 7.3 2 9 C2.66 9.33 3.32 9.66 4 10 C3.38125 9.814375 2.7625 9.62875 2.125 9.4375 C-0.04160178 8.76313824 -0.04160178 8.76313824 -2 10 C-2 7.36 -2 4.72 -2 2 C-1.34 2 -0.68 2 0 2 C0 1.34 0 0.68 0 0 Z " fill="#65787E" transform="translate(1197,353)"/>
<path d="M0 0 C-0.33 0.66 -0.66 1.32 -1 2 C-0.67 2.33 -0.34 2.66 0 3 C0 4.32 0 5.64 0 7 C-1.65 7 -3.3 7 -5 7 C-5.33 4.69 -5.66 2.38 -6 0 C-3.50907189 -1.24546405 -2.58919267 -0.7767578 0 0 Z " fill="#B5AEAC" transform="translate(170,133)"/>
<path d="M0 0 C0.99 0 1.98 0 3 0 C3 2.64 3 5.28 3 8 C1.35 7.67 -0.3 7.34 -2 7 C-2 5.35 -2 3.7 -2 2 C-1.34 2 -0.68 2 0 2 C0 1.34 0 0.68 0 0 Z " fill="#C4C6C7" transform="translate(987,29)"/>
<path d="M0 0 C1.65 0.33 3.3 0.66 5 1 C4.67 1.66 4.34 2.32 4 3 C3.01 2.67 2.02 2.34 1 2 C1 2.66 1 3.32 1 4 C2.32 4.33 3.64 4.66 5 5 C4.67 6.65 4.34 8.3 4 10 C2.35 9.67 0.7 9.34 -1 9 C-0.67 8.34 -0.34 7.68 0 7 C0.99 7.33 1.98 7.66 3 8 C3.33 7.34 3.66 6.68 4 6 C2.35 5.67 0.7 5.34 -1 5 C-0.67 3.35 -0.34 1.7 0 0 Z " fill="#8F888A" transform="translate(599,27)"/>
<path d="M0 0 C1.98 0 3.96 0 6 0 C6 0.66 6 1.32 6 2 C4.68 2 3.36 2 2 2 C2 2.66 2 3.32 2 4 C2.99 4 3.98 4 5 4 C5 4.66 5 5.32 5 6 C4.01 6 3.02 6 2 6 C2 7.32 2 8.64 2 10 C1.34 10 0.68 10 0 10 C0 6.7 0 3.4 0 0 Z " fill="#5D5F72" transform="translate(90,27)"/>
<path d="M0 0 C2.625 0.375 2.625 0.375 5 1 C5 2.32 5 3.64 5 5 C3.35 5 1.7 5 0 5 C-0.33 5.66 -0.66 6.32 -1 7 C-1.625 4.625 -1.625 4.625 -2 2 C-1.34 1.34 -0.68 0.68 0 0 Z " fill="#676164" transform="translate(110,355)"/>
<path d="M0 0 C0.66 0 1.32 0 2 0 C2.66 1.32 3.32 2.64 4 4 C4.66 2.68 5.32 1.36 6 0 C7.21386936 3.64160808 6.6674695 4.33165469 5.0625 7.6875 C4.68222656 8.49574219 4.30195312 9.30398437 3.91015625 10.13671875 C3.60980469 10.75160156 3.30945313 11.36648437 3 12 C2.34 12 1.68 12 1 12 C1.020625 10.948125 1.04125 9.89625 1.0625 8.8125 C1.01103198 5.67295096 0.73482813 3.03116604 0 0 Z " fill="#978F96" transform="translate(582,29)"/>
<path d="M0 0 C0.66 0 1.32 0 2 0 C2 2.31 2 4.62 2 7 C0.35 7.33 -1.3 7.66 -3 8 C-3.33 6.68 -3.66 5.36 -4 4 C-2.68 3.67 -1.36 3.34 0 3 C0 2.01 0 1.02 0 0 Z " fill="#A9ACB3" transform="translate(104,549)"/>
<path d="M0 0 C2.64 0 5.28 0 8 0 C8 1.32 8 2.64 8 4 C5.36 4 2.72 4 0 4 C0 2.68 0 1.36 0 0 Z " fill="#FDFDFD" transform="translate(951,215)"/>
<path d="M0 0 C1.32 0.33 2.64 0.66 4 1 C4 3.31 4 5.62 4 8 C2.68 8 1.36 8 0 8 C0 5.36 0 2.72 0 0 Z " fill="#D3CCCA" transform="translate(1080,548)"/>
<path d="M0 0 C1.32 0.33 2.64 0.66 4 1 C4 3.31 4 5.62 4 8 C2.68 8 1.36 8 0 8 C0 5.36 0 2.72 0 0 Z " fill="#D3CCCA" transform="translate(1080,397)"/>
<path d="M0 0 C0.33 0 0.66 0 1 0 C1 1.98 1 3.96 1 6 C2.32 6 3.64 6 5 6 C5 4.02 5 2.04 5 0 C5.66 0 6.32 0 7 0 C7 2.64 7 5.28 7 8 C5.00045254 8.04254356 2.99958364 8.04080783 1 8 C0 7 0 7 -0.0625 3.4375 C-0.041875 2.303125 -0.02125 1.16875 0 0 Z " fill="#61564F" transform="translate(1071,355)"/>
<path d="M0 0 C2.475 0.99 2.475 0.99 5 2 C5 4.31 5 6.62 5 9 C3.68 9 2.36 9 1 9 C0.67 6.03 0.34 3.06 0 0 Z " fill="#AEBCC1" transform="translate(120,353)"/>
<path d="M0 0 C0.33 0 0.66 0 1 0 C1 1.98 1 3.96 1 6 C2.32 6 3.64 6 5 6 C5 4.02 5 2.04 5 0 C5.66 0 6.32 0 7 0 C7 2.64 7 5.28 7 8 C5.00045254 8.04254356 2.99958364 8.04080783 1 8 C0 7 0 7 -0.0625 3.4375 C-0.041875 2.303125 -0.02125 1.16875 0 0 Z " fill="#61564F" transform="translate(1097,211)"/>
<path d="M0 0 C0.66 0 1.32 0 2 0 C2 3.63 2 7.26 2 11 C1.34 11 0.68 11 0 11 C-0.33 8.69 -0.66 6.38 -1 4 C-2.32 4.99 -3.64 5.98 -5 7 C-4.1875 5.0625 -4.1875 5.0625 -3 3 C-2.01 2.67 -1.02 2.34 0 2 C0 1.34 0 0.68 0 0 Z " fill="#BFB4B5" transform="translate(658,26)"/>
<path d="M0 0 C2.31 0 4.62 0 7 0 C7 0.66 7 1.32 7 2 C6.01 2 5.02 2 4 2 C4 4.64 4 7.28 4 10 C3.34 10 2.68 10 2 10 C2 7.36 2 4.72 2 2 C1.34 2 0.68 2 0 2 C0 1.34 0 0.68 0 0 Z " fill="#6E6063" transform="translate(1029,209)"/>
<path d="M0 0 C1.98 0 3.96 0 6 0 C4.68 0.33 3.36 0.66 2 1 C2 1.99 2 2.98 2 4 C2.99 4 3.98 4 5 4 C5 4.66 5 5.32 5 6 C4.01 6 3.02 6 2 6 C2 7.32 2 8.64 2 10 C1.34 10 0.68 10 0 10 C0 6.7 0 3.4 0 0 Z " fill="#A2A09E" transform="translate(118,130)"/>
<path d="M0 0 C1.99954746 -0.04254356 4.00041636 -0.04080783 6 0 C7 1 7 1 7.0625 4.5625 C7.041875 5.696875 7.02125 6.83125 7 8 C6.67 8 6.34 8 6 8 C6 6.02 6 4.04 6 2 C4.68 2 3.36 2 2 2 C2 3.98 2 5.96 2 8 C1.34 8 0.68 8 0 8 C0 5.36 0 2.72 0 0 Z " fill="#968685" transform="translate(693,29)"/>
<path d="M0 0 C1.65 0.33 3.3 0.66 5 1 C4.67 1.66 4.34 2.32 4 3 C4.33 3.33 4.66 3.66 5 4 C4.5625 6.0625 4.5625 6.0625 4 8 C2.35 7.67 0.7 7.34 -1 7 C-0.34 6.67 0.32 6.34 1 6 C1.66 6.33 2.32 6.66 3 7 C3 6.34 3 5.68 3 5 C1.68 4.67 0.36 4.34 -1 4 C-0.67 2.68 -0.34 1.36 0 0 Z " fill="#938D90" transform="translate(1011,29)"/>
<path d="M0 0 C2.97 0 5.94 0 9 0 C9 0.99 9 1.98 9 3 C5.7 3 2.4 3 -1 3 C-0.67 2.01 -0.34 1.02 0 0 Z " fill="#959595" transform="translate(37,25)"/>
<path d="M0 0 C0.99 0.33 1.98 0.66 3 1 C3.33 3.31 3.66 5.62 4 8 C4.99 8 5.98 8 7 8 C7.33 7.01 7.66 6.02 8 5 C8 6.32 8 7.64 8 9 C5.33333333 9 2.66666667 9 0 9 C0 6.03 0 3.06 0 0 Z " fill="#A2ADB3" transform="translate(1068,548)"/>
<path d="M0 0 C1.32 0.33 2.64 0.66 4 1 C4 3.31 4 5.62 4 8 C2.68 8 1.36 8 0 8 C0 5.36 0 2.72 0 0 Z " fill="#A1BDC8" transform="translate(1092,354)"/>
<path d="M0 0 C0.66 0 1.32 0 2 0 C2 0.66 2 1.32 2 2 C2.66 2 3.32 2 4 2 C4 2.66 4 3.32 4 4 C3.34 4 2.68 4 2 4 C2 5.32 2 6.64 2 8 C2.66 8 3.32 8 4 8 C4 8.66 4 9.32 4 10 C2.68 9.67 1.36 9.34 0 9 C-1.125 2.25 -1.125 2.25 0 0 Z " fill="#637170" transform="translate(1167,353)"/>
<path d="M0 0 C1.65 0.33 3.3 0.66 5 1 C4.67 1.66 4.34 2.32 4 3 C3.34 3 2.68 3 2 3 C2.99 3.66 3.98 4.32 5 5 C4.67 5.99 4.34 6.98 4 8 C2.35 7.67 0.7 7.34 -1 7 C-0.34 6.67 0.32 6.34 1 6 C1.66 6.33 2.32 6.66 3 7 C3 6.34 3 5.68 3 5 C1.68 4.67 0.36 4.34 -1 4 C-0.67 2.68 -0.34 1.36 0 0 Z " fill="#5D5455" transform="translate(772,211)"/>
<path d="M0 0 C1.65 0.33 3.3 0.66 5 1 C4.67 1.66 4.34 2.32 4 3 C4.33 3.33 4.66 3.66 5 4 C4.5625 6.0625 4.5625 6.0625 4 8 C2.68 8 1.36 8 0 8 C0.33 7.34 0.66 6.68 1 6 C1.66 6.33 2.32 6.66 3 7 C3 6.34 3 5.68 3 5 C1.68 4.67 0.36 4.34 -1 4 C-0.67 2.68 -0.34 1.36 0 0 Z " fill="#978F8D" transform="translate(858,29)"/>
<path d="M0 0 C2.625 0.375 2.625 0.375 5 1 C5 1.66 5 2.32 5 3 C3.35 2.67 1.7 2.34 0 2 C0.33 3.32 0.66 4.64 1 6 C2.32 6.33 3.64 6.66 5 7 C4 8 4 8 1.5 8.125 C-1 8 -1 8 -2 7 C-2.1875 4.5625 -2.1875 4.5625 -2 2 C-1.34 1.34 -0.68 0.68 0 0 Z " fill="#8F8F96" transform="translate(567,29)"/>
<path d="M0 0 C1.65 0.33 3.3 0.66 5 1 C4.67 1.66 4.34 2.32 4 3 C4.33 3.33 4.66 3.66 5 4 C4.5625 6.0625 4.5625 6.0625 4 8 C2.68 8 1.36 8 0 8 C0.33 7.34 0.66 6.68 1 6 C1.66 6.33 2.32 6.66 3 7 C3 6.34 3 5.68 3 5 C1.68 4.67 0.36 4.34 -1 4 C-0.67 2.68 -0.34 1.36 0 0 Z " fill="#978F8D" transform="translate(495,29)"/>
<path d="M0 0 C2.64 0 5.28 0 8 0 C8.33 0.99 8.66 1.98 9 3 C5.7 3 2.4 3 -1 3 C-0.67 2.01 -0.34 1.02 0 0 Z " fill="#BCBCBC" transform="translate(1274,211)"/>
<path d="M0 0 C0.66 0 1.32 0 2 0 C2 0.66 2 1.32 2 2 C2.66 2 3.32 2 4 2 C4 2.66 4 3.32 4 4 C3.34 4 2.68 4 2 4 C2 5.65 2 7.3 2 9 C2.66 9.33 3.32 9.66 4 10 C2.68 9.67 1.36 9.34 0 9 C-1.125 2.25 -1.125 2.25 0 0 Z " fill="#95959D" transform="translate(983,27)"/>
<path d="M0 0 C0.66 0 1.32 0 2 0 C2 0.66 2 1.32 2 2 C2.66 2 3.32 2 4 2 C4 2.66 4 3.32 4 4 C3.34 4 2.68 4 2 4 C2 5.65 2 7.3 2 9 C2.66 9.33 3.32 9.66 4 10 C2.68 9.67 1.36 9.34 0 9 C-1.125 2.25 -1.125 2.25 0 0 Z " fill="#95959D" transform="translate(662,27)"/>
<path d="M0 0 C1.65 0.33 3.3 0.66 5 1 C5 2.32 5 3.64 5 5 C4.34 5 3.68 5 3 5 C3 5.66 3 6.32 3 7 C1.68 6.67 0.36 6.34 -1 6 C-1 5.34 -1 4.68 -1 4 C-0.01 4 0.98 4 2 4 C2 3.34 2 2.68 2 2 C1.34 2 0.68 2 0 2 C0 1.34 0 0.68 0 0 Z " fill="#A9B5AC" transform="translate(1305,19)"/>
<path d="M0 0 C0.66 0 1.32 0 2 0 C2 0.66 2 1.32 2 2 C2.66 2 3.32 2 4 2 C4 2.66 4 3.32 4 4 C3.34 4 2.68 4 2 4 C2.33 5.98 2.66 7.96 3 10 C2.01 9.67 1.02 9.34 0 9 C-1.125 2.25 -1.125 2.25 0 0 Z " fill="#606965" transform="translate(722,209)"/>
<path d="M0 0 C1.98 0 3.96 0 6 0 C6 0.66 6 1.32 6 2 C5.34 2 4.68 2 4 2 C4 4.64 4 7.28 4 10 C3.34 10 2.68 10 2 10 C2 7.03 2 4.06 2 1 C1.34 0.67 0.68 0.34 0 0 Z " fill="#565956" transform="translate(58,209)"/>
<path d="M0 0 C0.66 0 1.32 0 2 0 C2.19491452 1.45736087 2.38069358 2.91594593 2.5625 4.375 C2.66691406 5.18710938 2.77132812 5.99921875 2.87890625 6.8359375 C3 9 3 9 2 11 C1.34 11 0.68 11 0 11 C0 7.37 0 3.74 0 0 Z " fill="#7785A1" transform="translate(760,208)"/>
<path d="M0 0 C0.66 0 1.32 0 2 0 C2 3.3 2 6.6 2 10 C0.02 10 -1.96 10 -4 10 C-3.01 9.34 -2.02 8.68 -1 8 C-0.42251197 6.03638136 -0.42251197 6.03638136 -0.3125 3.875 C-0.209375 2.59625 -0.10625 1.3175 0 0 Z " fill="#878392" transform="translate(389,27)"/>
<path d="M0 0 C0.66 0 1.32 0 2 0 C2 0.66 2 1.32 2 2 C2.66 2 3.32 2 4 2 C4 2.66 4 3.32 4 4 C3.34 4 2.68 4 2 4 C2 5.65 2 7.3 2 9 C2.66 9.33 3.32 9.66 4 10 C2.68 9.67 1.36 9.34 0 9 C0 6.03 0 3.06 0 0 Z " fill="#5F645D" transform="translate(1183,353)"/>
<path d="M0 0 C1.65 0.33 3.3 0.66 5 1 C4.67 1.66 4.34 2.32 4 3 C3.01 2.67 2.02 2.34 1 2 C1.33 2.66 1.66 3.32 2 4 C2.99 4.33 3.98 4.66 5 5 C4.67 6.32 4.34 7.64 4 9 C4 8.01 4 7.02 4 6 C2.35 5.67 0.7 5.34 -1 5 C-0.67 3.35 -0.34 1.7 0 0 Z " fill="#59494F" transform="translate(1176,353)"/>
<path d="M0 0 C0.66 0 1.32 0 2 0 C2 3.3 2 6.6 2 10 C1.34 10 0.68 10 0 10 C-2.21538462 4.58461538 -2.21538462 4.58461538 -1.125 1.625 C-0.75375 1.08875 -0.3825 0.5525 0 0 Z " fill="#4A4F57" transform="translate(148,353)"/>
<path d="M0 0 C1.98 0.66 3.96 1.32 6 2 C6.33 1.34 6.66 0.68 7 0 C7 0.99 7 1.98 7 3 C4.03 3.66 1.06 4.32 -2 5 C-1 1 -1 1 0 0 Z " fill="#BFD0D9" transform="translate(1035,258)"/>
<path d="M0 0 C0.99 0 1.98 0 3 0 C3 0.99 3 1.98 3 3 C6.63 3 10.26 3 14 3 C13.67 4.32 13.34 5.64 13 7 C13 6.01 13 5.02 13 4 C9.7 4 6.4 4 3 4 C2.67 4.66 2.34 5.32 2 6 C1.34 4.02 0.68 2.04 0 0 Z " fill="#838383" transform="translate(947,210)"/>
<path d="M0 0 C1.65 0 3.3 0 5 0 C3.125 4.75 3.125 4.75 2 7 C2.99 7.33 3.98 7.66 5 8 C3.35 8 1.7 8 0 8 C0.50603992 5.83125748 0.99983813 4.00032373 2 2 C1.34 2 0.68 2 0 2 C0 1.34 0 0.68 0 0 Z " fill="#89868C" transform="translate(610,29)"/>
<path d="M0 0 C2.475 0.495 2.475 0.495 5 1 C5 2.65 5 4.3 5 6 C2.525 5.01 2.525 5.01 0 4 C0 2.68 0 1.36 0 0 Z " fill="#D7DBD3" transform="translate(1120,357)"/>
<path d="M0 0 C0.99 0.33 1.98 0.66 3 1 C2.67 2.65 2.34 4.3 2 6 C-0.31 5.34 -2.62 4.68 -5 4 C-4.0409375 3.8453125 -4.0409375 3.8453125 -3.0625 3.6875 C-2.381875 3.460625 -1.70125 3.23375 -1 3 C-0.67 2.01 -0.34 1.02 0 0 Z " fill="#E5EAE7" transform="translate(93,264)"/>
<path d="M0 0 C0.99 0.33 1.98 0.66 3 1 C2.67 2.65 2.34 4.3 2 6 C0.68 5.67 -0.64 5.34 -2 5 C-1.125 1.125 -1.125 1.125 0 0 Z " fill="#E9F1F3" transform="translate(146,133)"/>
<path d="M0 0 C0.66 0 1.32 0 2 0 C1.67 3.63 1.34 7.26 1 11 C0.34 11 -0.32 11 -1 11 C-1.02688151 9.35425434 -1.04634123 7.70838587 -1.0625 6.0625 C-1.07410156 5.14597656 -1.08570312 4.22945312 -1.09765625 3.28515625 C-1 1 -1 1 0 0 Z " fill="#A2A0A0" transform="translate(111,129)"/>
<path d="M0 0 C2.475 0.495 2.475 0.495 5 1 C5 2.65 5 4.3 5 6 C2.525 5.01 2.525 5.01 0 4 C0 2.68 0 1.36 0 0 Z " fill="#D7DBD3" transform="translate(116,31)"/>
<path d="M0 0 C0.66 0 1.32 0 2 0 C3.1577506 3.47325181 3.06866652 6.36067448 3 10 C2.01 9.67 1.02 9.34 0 9 C-1.125 2.25 -1.125 2.25 0 0 Z " fill="#5D6259" transform="translate(169,353)"/>
<path d="M0 0 C0.66 0 1.32 0 2 0 C2 3.3 2 6.6 2 10 C1.01 10 0.02 10 -1 10 C-1.125 3.375 -1.125 3.375 0 0 Z " fill="#50364B" transform="translate(1093,209)"/>
<path d="M0 0 C1.65 0 3.3 0 5 0 C4.67 1.65 4.34 3.3 4 5 C2.68 4.67 1.36 4.34 0 4 C0 2.68 0 1.36 0 0 Z " fill="#F2F7F0" transform="translate(102,134)"/>
<path d="M0 0 C0.66 0 1.32 0 2 0 C2 1.32 2 2.64 2 4 C2.66 4 3.32 4 4 4 C4.33 2.68 4.66 1.36 5 0 C6.2077558 3.62326739 5.54311128 4.64146369 4 8 C3.34 8 2.68 8 2 8 C1.34 5.36 0.68 2.72 0 0 Z " fill="#A6A4B1" transform="translate(90,132)"/>
<path d="M0 0 C0.66 0 1.32 0 2 0 C2 3.3 2 6.6 2 10 C1.01 10 0.02 10 -1 10 C-1.125 3.375 -1.125 3.375 0 0 Z " fill="#91828A" transform="translate(911,27)"/>
<path d="M0 0 C0.66 0 1.32 0 2 0 C2 3.3 2 6.6 2 10 C1.01 10 0.02 10 -1 10 C-1.125 3.375 -1.125 3.375 0 0 Z " fill="#91828A" transform="translate(831,27)"/>
<path d="M0 0 C2.475 0.495 2.475 0.495 5 1 C4.67 2.32 4.34 3.64 4 5 C2.68 4.67 1.36 4.34 0 4 C0 2.68 0 1.36 0 0 Z " fill="#DAE2E0" transform="translate(1189,357)"/>
<path d="M0 0 C0.33 0.99 0.66 1.98 1 3 C3.01508358 3.73323796 3.01508358 3.73323796 5 4 C4.67 5.32 4.34 6.64 4 8 C2.68 7.67 1.36 7.34 0 7 C0 4.69 0 2.38 0 0 Z " fill="#DCCFBA" transform="translate(76,262)"/>
<path d="M0 0 C2.475 0.495 2.475 0.495 5 1 C4.67 2.32 4.34 3.64 4 5 C2.68 4.67 1.36 4.34 0 4 C0 2.68 0 1.36 0 0 Z " fill="#E1DDD0" transform="translate(1034,265)"/>
<path d="M0 0 C2.475 0.495 2.475 0.495 5 1 C4.67 2.32 4.34 3.64 4 5 C2.68 4.67 1.36 4.34 0 4 C0 2.68 0 1.36 0 0 Z " fill="#DAE2E0" transform="translate(80,213)"/>
<path d="M0 0 C2.475 0.495 2.475 0.495 5 1 C4.67 2.32 4.34 3.64 4 5 C2.68 4.67 1.36 4.34 0 4 C0 2.68 0 1.36 0 0 Z " fill="#DCE2DF" transform="translate(1080,213)"/>
<path d="M0 0 C2.475 0.495 2.475 0.495 5 1 C4.67 2.32 4.34 3.64 4 5 C2.68 4.67 1.36 4.34 0 4 C0 2.68 0 1.36 0 0 Z " fill="#DCE2DF" transform="translate(714,213)"/>
<path d="M0 0 C0.99 0.33 1.98 0.66 3 1 C3 3.64 3 6.28 3 9 C2.01 8.67 1.02 8.34 0 8 C-0.38063221 5.6739143 -0.71269945 3.33944736 -1 1 C-0.67 0.67 -0.34 0.34 0 0 Z " fill="#5F535D" transform="translate(1046,210)"/>
<path d="M0 0 C2.31 0 4.62 0 7 0 C7 0.66 7 1.32 7 2 C6.01 2 5.02 2 4 2 C4 4.64 4 7.28 4 10 C3.67 10 3.34 10 3 10 C3 7.36 3 4.72 3 2 C2.01 2 1.02 2 0 2 C0 1.34 0 0.68 0 0 Z " fill="#454347" transform="translate(705,209)"/>
<path d="M0 0 C0.66 0 1.32 0 2 0 C3.15941038 3.47823115 2.70820884 5.45895578 2 9 C2.66 9.33 3.32 9.66 4 10 C2.68 9.67 1.36 9.34 0 9 C0 6.03 0 3.06 0 0 Z " fill="#9C9D9E" transform="translate(184,130)"/>
<path d="M0 0 C2.4375 0.75 2.4375 0.75 5 2 C5.8125 4.125 5.8125 4.125 6 6 C5.01 6.495 5.01 6.495 4 7 C4 6.01 4 5.02 4 4 C2.35 3.67 0.7 3.34 -1 3 C-0.67 2.01 -0.34 1.02 0 0 Z " fill="#EDF5F7" transform="translate(178,131)"/>
<path d="M0 0 C1.65 0.33 3.3 0.66 5 1 C5 1.99 5 2.98 5 4 C3.02 4 1.04 4 -1 4 C-0.67 2.68 -0.34 1.36 0 0 Z " fill="#757575" transform="translate(39,34)"/>
<path d="M0 0 C1.32 0 2.64 0 4 0 C4 0.66 4 1.32 4 2 C3.01 2 2.02 2 1 2 C1 2.66 1 3.32 1 4 C1.99 4 2.98 4 4 4 C4 4.99 4 5.98 4 7 C2.68 7 1.36 7 0 7 C0 4.69 0 2.38 0 0 Z " fill="#CFDAE3" transform="translate(331,29)"/>
<path d="M0 0 C2.475 0.495 2.475 0.495 5 1 C4.67 2.32 4.34 3.64 4 5 C2.68 4.67 1.36 4.34 0 4 C0 2.68 0 1.36 0 0 Z " fill="#E6E8E4" transform="translate(1002,31)"/>
<path d="M0 0 C2.475 0.495 2.475 0.495 5 1 C4.67 2.32 4.34 3.64 4 5 C2.68 4.67 1.36 4.34 0 4 C0 2.68 0 1.36 0 0 Z " fill="#E6E8E4" transform="translate(557,31)"/>
<path d="M0 0 C2.475 0.495 2.475 0.495 5 1 C4.67 2.32 4.34 3.64 4 5 C2.68 4.67 1.36 4.34 0 4 C0 2.68 0 1.36 0 0 Z " fill="#E6E8E4" transform="translate(538,31)"/>
<path d="M0 0 C2.475 0.495 2.475 0.495 5 1 C4.67 2.32 4.34 3.64 4 5 C2.68 4.67 1.36 4.34 0 4 C0 2.68 0 1.36 0 0 Z " fill="#DCE2DF" transform="translate(107,31)"/>
<path d="M0 0 C2.475 0.495 2.475 0.495 5 1 C4.67 2.32 4.34 3.64 4 5 C2.68 4.67 1.36 4.34 0 4 C0 2.68 0 1.36 0 0 Z " fill="#DCE2DF" transform="translate(98,31)"/>
<path d="M0 0 C1.98 0 3.96 0 6 0 C6.33 1.98 6.66 3.96 7 6 C5 6 5 6 3.5 4.5625 C3.005 4.046875 2.51 3.53125 2 3 C1.34 2.67 0.68 2.34 0 2 C0 1.34 0 0.68 0 0 Z " fill="#E8EEE9" transform="translate(962,29)"/>
<path d="M0 0 C2.475 0.495 2.475 0.495 5 1 C5 3.31 5 5.62 5 8 C4.34 8 3.68 8 3 8 C3 7.01 3 6.02 3 5 C2.34 4.67 1.68 4.34 1 4 C1.33 3.34 1.66 2.68 2 2 C1.34 1.34 0.68 0.68 0 0 Z " fill="#A8ACBA" transform="translate(94,397)"/>
<path d="M0 0 C1.65 0 3.3 0 5 0 C5.33 0.66 5.66 1.32 6 2 C5.01 3.485 5.01 3.485 4 5 C3.01 5 2.02 5 1 5 C0.67 3.35 0.34 1.7 0 0 Z " fill="#98A4AA" transform="translate(1111,353)"/>
<path d="M0 0 C1.98 0 3.96 0 6 0 C7.231394 2.46278801 7.07159196 4.2795055 7 7 C6.34 7 5.68 7 5 7 C4.67 6.01 4.34 5.02 4 4 C1.99983534 2.79117904 1.99983534 2.79117904 0 2 C0 1.34 0 0.68 0 0 Z " fill="#EAF0E1" transform="translate(744,211)"/>
<path d="M0 0 C1.98 0.495 1.98 0.495 4 1 C3.67 2.32 3.34 3.64 3 5 C1.68 4.67 0.36 4.34 -1 4 C-0.67 2.68 -0.34 1.36 0 0 Z " fill="#E8EAE8" transform="translate(437,31)"/>
<path d="M0 0 C3.875 0.875 3.875 0.875 5 2 C5.04080783 3.99958364 5.04254356 6.00045254 5 8 C4.34 8 3.68 8 3 8 C3 7.01 3 6.02 3 5 C2.34 4.67 1.68 4.34 1 4 C1.33 3.34 1.66 2.68 2 2 C1.34 1.34 0.68 0.68 0 0 Z " fill="#A5A9B8" transform="translate(1065,397)"/>
<path d="M0 0 C1.32 0 2.64 0 4 0 C4 0.66 4 1.32 4 2 C3.34 2 2.68 2 2 2 C2 3.98 2 5.96 2 8 C1.34 8 0.68 8 0 8 C0 5.36 0 2.72 0 0 Z " fill="#A7A19F" transform="translate(198,132)"/>
<path d="M0 0 C1.32 0 2.64 0 4 0 C4 0.66 4 1.32 4 2 C3.34 2 2.68 2 2 2 C2 3.98 2 5.96 2 8 C1.34 8 0.68 8 0 8 C0 5.36 0 2.72 0 0 Z " fill="#AFA49F" transform="translate(60,132)"/>
<path d="M0 0 C1.32 0 2.64 0 4 0 C4 0.66 4 1.32 4 2 C3.34 2 2.68 2 2 2 C2 3.98 2 5.96 2 8 C1.34 8 0.68 8 0 8 C0 5.36 0 2.72 0 0 Z " fill="#8A91A3" transform="translate(477,29)"/>
<path d="M0 0 C1.32 0 2.64 0 4 0 C4 0.66 4 1.32 4 2 C3.34 2 2.68 2 2 2 C2 3.98 2 5.96 2 8 C1.34 8 0.68 8 0 8 C0 5.36 0 2.72 0 0 Z " fill="#8A91A3" transform="translate(378,29)"/>
<path d="M0 0 C1.32 0 2.64 0 4 0 C4 0.66 4 1.32 4 2 C3.34 2 2.68 2 2 2 C2 3.98 2 5.96 2 8 C1.34 8 0.68 8 0 8 C0 5.36 0 2.72 0 0 Z " fill="#8E889A" transform="translate(900,29)"/>
<path d="M0 0 C0.33 0 0.66 0 1 0 C1 1.98 1 3.96 1 6 C2.65 6.33 4.3 6.66 6 7 C6 7.66 6 8.32 6 9 C4.02 9.33 2.04 9.66 0 10 C0 6.7 0 3.4 0 0 Z " fill="#ECF4EC" transform="translate(391,27)"/>
<path d="M0 0 C1.98 0 3.96 0 6 0 C5.67 1.98 5.34 3.96 5 6 C4.67 5.01 4.34 4.02 4 3 C1.98491642 2.26676204 1.98491642 2.26676204 0 2 C0 1.34 0 0.68 0 0 Z " fill="#D9E0E0" transform="translate(1177,355)"/>
<path d="M0 0 C0.66 0 1.32 0 2 0 C1.47731534 2.76276177 0.89130413 5.3260876 0 8 C-0.99 7.67 -1.98 7.34 -3 7 C-3 6.34 -3 5.68 -3 5 C-2.34 5 -1.68 5 -1 5 C-0.67 3.35 -0.34 1.7 0 0 Z " fill="#6E6A71" transform="translate(303,29)"/>
<path d="M0 0 C0.33 0.66 0.66 1.32 1 2 C1.66 2 2.32 2 3 2 C3 2.66 3 3.32 3 4 C2.34 4 1.68 4 1 4 C1.66 5.98 2.32 7.96 3 10 C2.01 10 1.02 10 0 10 C-1.125 2.25 -1.125 2.25 0 0 Z " fill="#8E8382" transform="translate(978,27)"/>
<path d="M0 0 C0.33 0.66 0.66 1.32 1 2 C1.66 2 2.32 2 3 2 C3 2.66 3 3.32 3 4 C2.34 4 1.68 4 1 4 C1.66 5.98 2.32 7.96 3 10 C2.01 10 1.02 10 0 10 C-1.125 2.25 -1.125 2.25 0 0 Z " fill="#8E8382" transform="translate(853,27)"/>
<path d="M0 0 C0.66 0.33 1.32 0.66 2 1 C2 2.32 2 3.64 2 5 C3.32 5.33 4.64 5.66 6 6 C3.625 6.625 3.625 6.625 1 7 C0.34 6.34 -0.32 5.68 -1 5 C-0.625 2.375 -0.625 2.375 0 0 Z " fill="#888086" transform="translate(685,30)"/>
<path d="M0 0 C0.33 0.66 0.66 1.32 1 2 C1.66 2 2.32 2 3 2 C3 2.66 3 3.32 3 4 C2.34 4 1.68 4 1 4 C1.66 5.98 2.32 7.96 3 10 C2.01 10 1.02 10 0 10 C-1.125 2.25 -1.125 2.25 0 0 Z " fill="#8E8382" transform="translate(445,27)"/>
<path d="M0 0 C1.32 0 2.64 0 4 0 C4 1.65 4 3.3 4 5 C2.68 4.67 1.36 4.34 0 4 C0 2.68 0 1.36 0 0 Z " fill="#E6EFF1" transform="translate(548,31)"/>
<path d="M0 0 C1.32 0 2.64 0 4 0 C4 0.66 4 1.32 4 2 C3.34 2 2.68 2 2 2 C2 3.98 2 5.96 2 8 C1.34 8 0.68 8 0 8 C0 5.36 0 2.72 0 0 Z " fill="#A89486" transform="translate(923,29)"/>
<path d="M0 0 C1.32 0 2.64 0 4 0 C4 0.66 4 1.32 4 2 C3.34 2 2.68 2 2 2 C2 3.98 2 5.96 2 8 C1.34 8 0.68 8 0 8 C0 5.36 0 2.72 0 0 Z " fill="#9E8A84" transform="translate(811,29)"/>
<path d="M0 0 C1.98 0.495 1.98 0.495 4 1 C3.67 2.98 3.34 4.96 3 7 C2.34 6.67 1.68 6.34 1 6 C1.33 4.68 1.66 3.36 2 2 C1.01 2.33 0.02 2.66 -1 3 C-0.67 2.01 -0.34 1.02 0 0 Z " fill="#A29DAB" transform="translate(1066,471)"/>
<path d="M0 0 C1.98 0.495 1.98 0.495 4 1 C3.67 2.98 3.34 4.96 3 7 C2.34 6.67 1.68 6.34 1 6 C1.33 4.68 1.66 3.36 2 2 C1.01 2.33 0.02 2.66 -1 3 C-0.67 2.01 -0.34 1.02 0 0 Z " fill="#A19DAA" transform="translate(95,471)"/>
<path d="M0 0 C1.32 0 2.64 0 4 0 C3.67 1.65 3.34 3.3 3 5 C2.01 4.67 1.02 4.34 0 4 C0 2.68 0 1.36 0 0 Z " fill="#F2F6EE" transform="translate(153,357)"/>
<path d="M0 0 C0.66 0 1.32 0 2 0 C2 2.64 2 5.28 2 8 C1.01 7.67 0.02 7.34 -1 7 C-1.04254356 5.00045254 -1.04080783 2.99958364 -1 1 C-0.67 0.67 -0.34 0.34 0 0 Z " fill="#424957" transform="translate(1056,211)"/>
<path d="M0 0 C0.66 0 1.32 0 2 0 C2 2.64 2 5.28 2 8 C1.01 7.67 0.02 7.34 -1 7 C-1.04254356 5.00045254 -1.04080783 2.99958364 -1 1 C-0.67 0.67 -0.34 0.34 0 0 Z " fill="#424957" transform="translate(756,211)"/>
<path d="M0 0 C1.32 0 2.64 0 4 0 C3.67 1.65 3.34 3.3 3 5 C2.01 4.67 1.02 4.34 0 4 C0 2.68 0 1.36 0 0 Z " fill="#F0F5F0" transform="translate(1089,213)"/>
<path d="M0 0 C1.32 0 2.64 0 4 0 C3.67 1.65 3.34 3.3 3 5 C2.01 4.67 1.02 4.34 0 4 C0 2.68 0 1.36 0 0 Z " fill="#F4F4E8" transform="translate(1052,213)"/>
<path d="M0 0 C1.32 0 2.64 0 4 0 C3.67 1.65 3.34 3.3 3 5 C2.01 4.67 1.02 4.34 0 4 C0 2.68 0 1.36 0 0 Z " fill="#F4F4E8" transform="translate(752,213)"/>
<path d="M0 0 C1.32 0 2.64 0 4 0 C3.67 1.65 3.34 3.3 3 5 C2.01 4.67 1.02 4.34 0 4 C0 2.68 0 1.36 0 0 Z " fill="#F0F5F0" transform="translate(728,213)"/>
<path d="M0 0 C1.32 0 2.64 0 4 0 C3.67 1.65 3.34 3.3 3 5 C2.01 4.67 1.02 4.34 0 4 C0 2.68 0 1.36 0 0 Z " fill="#F2F6EE" transform="translate(67,213)"/>
<path d="M0 0 C0.33 0.66 0.66 1.32 1 2 C1.66 2 2.32 2 3 2 C3 2.66 3 3.32 3 4 C2.34 4 1.68 4 1 4 C1 5.65 1 7.3 1 9 C1.66 9.33 2.32 9.66 3 10 C2.01 10 1.02 10 0 10 C-1.125 2.25 -1.125 2.25 0 0 Z " fill="#838189" transform="translate(578,27)"/>
<path d="M0 0 C1.32 0 2.64 0 4 0 C3.67 1.65 3.34 3.3 3 5 C2.01 4.67 1.02 4.34 0 4 C0 2.68 0 1.36 0 0 Z " fill="#F3F7F3" transform="translate(907,31)"/>
<path d="M0 0 C1.32 0 2.64 0 4 0 C3.67 1.65 3.34 3.3 3 5 C2.01 4.67 1.02 4.34 0 4 C0 2.68 0 1.36 0 0 Z " fill="#F3F7F3" transform="translate(827,31)"/>
<path d="M0 0 C1.32 0 2.64 0 4 0 C3.67 1.65 3.34 3.3 3 5 C2.01 4.67 1.02 4.34 0 4 C0 2.68 0 1.36 0 0 Z " fill="#F5F8F1" transform="translate(818,31)"/>
<path d="M0 0 C1.32 0 2.64 0 4 0 C3.67 1.65 3.34 3.3 3 5 C2.01 4.67 1.02 4.34 0 4 C0 2.68 0 1.36 0 0 Z " fill="#E9F4F8" transform="translate(469,31)"/>
<path d="M0 0 C1.32 0 2.64 0 4 0 C3.67 1.65 3.34 3.3 3 5 C2.01 4.67 1.02 4.34 0 4 C0 2.68 0 1.36 0 0 Z " fill="#F6F6ED" transform="translate(460,31)"/>
<path d="M0 0 C1.32 0 2.64 0 4 0 C3.67 1.65 3.34 3.3 3 5 C2.01 4.67 1.02 4.34 0 4 C0 2.68 0 1.36 0 0 Z " fill="#F6F6ED" transform="translate(385,31)"/>
<path d="M0 0 C1.32 0 2.64 0 4 0 C3.67 1.65 3.34 3.3 3 5 C2.01 4.67 1.02 4.34 0 4 C0 2.68 0 1.36 0 0 Z " fill="#F6F6ED" transform="translate(370,31)"/>
<path d="M0 0 C1.32 0 2.64 0 4 0 C3.67 1.65 3.34 3.3 3 5 C2.01 4.67 1.02 4.34 0 4 C0 2.68 0 1.36 0 0 Z " fill="#F5F8F1" transform="translate(361,31)"/>
<path d="M0 0 C1.32 0 2.64 0 4 0 C3.67 1.65 3.34 3.3 3 5 C2.01 4.67 1.02 4.34 0 4 C0 2.68 0 1.36 0 0 Z " fill="#F3F7F3" transform="translate(352,31)"/>
<path d="M0 0 C1.32 0 2.64 0 4 0 C3.67 1.32 3.34 2.64 3 4 C1.68 3.67 0.36 3.34 -1 3 C-0.67 2.01 -0.34 1.02 0 0 Z " fill="#322729" transform="translate(117,269)"/>
<path d="M0 0 C1.98 0.495 1.98 0.495 4 1 C4 1.99 4 2.98 4 4 C2.35 4 0.7 4 -1 4 C-0.67 2.68 -0.34 1.36 0 0 Z " fill="#878886" transform="translate(147,211)"/>
<path d="M0 0 C1.67542976 0.28604898 3.34385343 0.61781233 5 1 C4.67 1.99 4.34 2.98 4 4 C2.68 4 1.36 4 0 4 C-0.33 3.01 -0.66 2.02 -1 1 C-0.67 0.67 -0.34 0.34 0 0 Z " fill="#898583" transform="translate(121,211)"/>
<path d="M0 0 C1.67542976 0.28604898 3.34385343 0.61781233 5 1 C4.67 1.99 4.34 2.98 4 4 C2.68 4 1.36 4 0 4 C-0.33 3.01 -0.66 2.02 -1 1 C-0.67 0.67 -0.34 0.34 0 0 Z " fill="#898583" transform="translate(105,211)"/>
<path d="M0 0 C0.928125 0.20625 1.85625 0.4125 2.8125 0.625 C2.8125 1.285 2.8125 1.945 2.8125 2.625 C-0.1575 2.295 -3.1275 1.965 -6.1875 1.625 C-3.1875 -0.375 -3.1875 -0.375 0 0 Z " fill="#E4E6E7" transform="translate(80.1875,110.375)"/>
<path d="M0 0 C1.98 0.495 1.98 0.495 4 1 C4 1.99 4 2.98 4 4 C2.35 4 0.7 4 -1 4 C-0.67 2.68 -0.34 1.36 0 0 Z " fill="#A7A8A8" transform="translate(971,29)"/>
<path d="M0 0 C1.98 0.495 1.98 0.495 4 1 C4 1.99 4 2.98 4 4 C2.35 4 0.7 4 -1 4 C-0.67 2.68 -0.34 1.36 0 0 Z " fill="#A7A8A8" transform="translate(917,29)"/>
<path d="M0 0 C1.98 0.495 1.98 0.495 4 1 C4 1.99 4 2.98 4 4 C2.35 4 0.7 4 -1 4 C-0.67 2.68 -0.34 1.36 0 0 Z " fill="#838382" transform="translate(262,29)"/>
<path d="M0 0 C1.98 0.495 1.98 0.495 4 1 C4 1.99 4 2.98 4 4 C2.35 4 0.7 4 -1 4 C-0.67 2.68 -0.34 1.36 0 0 Z " fill="#878886" transform="translate(130,29)"/>
</svg>
